<?xml version="1.0" encoding="UTF-8"?> <svg xmlns="http://www.w3.org/2000/svg" id="Calque_1" data-name="Calque 1" viewBox="0 0 343.73 241.16"><defs><style> .cls-1 { fill: #c00d0d; } </style></defs><g><path d="m256.21,241.16c2.72,0,4.59-1.41,5.97-5.36l5.68-16.31c.14-.35.21-.64.21-.92,0-1.02-.71-1.7-1.7-1.7-.92,0-1.48.49-1.73,1.44l-3.81,12.33-3.78-12.29c-.28-1.02-.92-1.48-1.84-1.48-1.1,0-1.8.71-1.8,1.76,0,.28.11.67.25,1.02l5.4,15.5c-.63,1.98-1.62,2.89-3.25,2.89-.39,0-.63-.11-1.02-.11-.88,0-1.48.57-1.48,1.45.01,1.28,1.17,1.78,2.9,1.78m-16.38-22.74c0,.85.57,1.44,1.41,1.44h1.59v10.7c0,3.21,1.9,4.94,4.83,4.94.85,0,1.55-.11,2.12-.21.99-.14,1.77-.67,1.77-1.69,0-.57-.25-.99-.67-1.16-.5-.21-1.24-.14-2.09-.14-1.48,0-2.36-.67-2.36-2.44v-10h3.85c.77,0,1.38-.6,1.38-1.44s-.6-1.38-1.38-1.38h-3.85v-2.86c0-1.06-.74-1.8-1.8-1.8s-1.8.74-1.8,1.8v2.86h-1.59c-.84,0-1.41.57-1.41,1.38m-4.87-1.56c-1.06,0-1.83.74-1.83,1.84v14.79c0,1.1.77,1.84,1.83,1.84s1.87-.74,1.87-1.84v-14.79c0-1.09-.78-1.84-1.87-1.84m0-2.57c1.38,0,2.33-.99,2.33-2.29s-.99-2.33-2.33-2.33-2.29.99-2.29,2.33.98,2.29,2.29,2.29m-14.48,19.21c0,1.1.74,1.84,1.8,1.84s1.8-.74,1.8-1.84v-8.16c0-3.42,1.7-5.01,4.2-5.01,1.24,0,1.94-.78,1.94-1.84s-.67-1.8-1.8-1.8c-2.08,0-3.96,1.34-4.69,3.39l-.07-1.62c-.03-.95-.67-1.59-1.59-1.59s-1.59.67-1.59,1.59v15.04Zm-6.39-16.63c-1.06,0-1.8.74-1.8,1.8v9.43c0,2.93-1.52,4.2-3.6,4.2s-3.32-1.34-3.32-4.35v-9.29c0-1.06-.74-1.8-1.8-1.8s-1.8.74-1.8,1.8v10.1c0,4.41,2.29,6.74,5.75,6.74,2.12,0,3.85-.81,5.02-2.65v.77c0,.99.71,1.7,1.66,1.7s1.7-.71,1.7-1.7v-14.97c-.01-1.04-.75-1.78-1.81-1.78m-30.08,11.72c0,4.38,2.86,6.92,6.95,6.92s6.75-2.61,6.75-6c0-1.02-.67-1.66-1.66-1.66-.78,0-1.38.39-1.62,1.34-.14,1.91-1.48,3.11-3.36,3.11-2.08,0-3.46-1.41-3.46-3.82v-4.77c0-2.4,1.38-3.82,3.46-3.82,1.91,0,3.21,1.27,3.36,3,.17.85.78,1.27,1.66,1.27.96,0,1.63-.71,1.63-1.76,0-3.18-2.65-5.72-6.64-5.72s-7.06,2.68-7.06,7.02v4.89h-.01Zm-14.56-4.52v-.53c0-2.51,1.45-3.99,3.64-3.99s3.64,1.49,3.64,3.99v.53h-7.28Zm-3.6,4.34c0,4.49,2.93,7.1,7.2,7.1,3.99,0,5.62-2.36,6.36-4.02.17-.32.39-.81.39-1.31,0-.92-.63-1.59-1.55-1.59-.57,0-1.02.32-1.3.81-.49.99-1.24,2.9-3.85,2.9-2.19,0-3.64-1.49-3.64-3.99v-1.91h9.01c1.06,0,1.73-.67,1.73-1.73v-.88c0-4.46-2.86-7.1-7.06-7.1s-7.27,2.75-7.27,7.2v4.52h-.02Zm-18.5,1.27c0,.39.11.82.39,1.27.81,1.66,2.86,4.55,7.1,4.55s7.24-2.43,7.24-6.74c0-3.5-2.5-5.79-5.75-7.73-2.72-1.59-4.27-2.86-4.27-4.95,0-1.7,1.3-2.79,3.18-2.79,2.12,0,3.14,1.48,3.71,2.44.35.6.85.99,1.55.99.92,0,1.62-.67,1.62-1.62,0-.35-.14-.78-.39-1.24-.81-1.48-2.72-3.77-6.6-3.77s-6.85,2.5-6.85,6.25c0,3.11,2.29,5.54,5.51,7.42,2.9,1.73,4.52,3.07,4.52,5.33,0,1.94-1.38,3.22-3.5,3.22-2.44,0-3.64-2.09-4.27-3.29-.28-.53-.78-.95-1.55-.95-.97,0-1.64.66-1.64,1.61m-14.33-12.82c-1.06,0-1.84.74-1.84,1.84v14.79c0,1.1.78,1.84,1.84,1.84s1.87-.74,1.87-1.84v-14.79c0-1.09-.78-1.84-1.87-1.84m0-2.57c1.38,0,2.33-.99,2.33-2.29s-.99-2.33-2.33-2.33-2.29.99-2.29,2.33c-.01,1.3.98,2.29,2.29,2.29m-8.65,2.57c-1.06,0-1.84.74-1.84,1.84v14.79c0,1.1.78,1.84,1.84,1.84s1.87-.74,1.87-1.84v-14.79c0-1.09-.78-1.84-1.87-1.84m0-2.57c1.37,0,2.33-.99,2.33-2.29s-.99-2.33-2.33-2.33-2.29.99-2.29,2.33c-.01,1.3.98,2.29,2.29,2.29m-14.48,19.21c0,1.1.74,1.84,1.8,1.84s1.8-.74,1.8-1.84v-8.16c0-3.42,1.7-5.01,4.2-5.01,1.24,0,1.95-.78,1.95-1.84s-.67-1.8-1.8-1.8c-2.09,0-3.96,1.34-4.7,3.39l-.07-1.62c-.04-.95-.67-1.59-1.59-1.59s-1.59.67-1.59,1.59v15.04Zm-15.12-5.19v-4.41c0-2.51,1.45-3.99,3.64-3.99s3.64,1.48,3.64,3.99v4.41c0,2.51-1.45,3.99-3.64,3.99s-3.64-1.49-3.64-3.99m-3.6-4.42v4.52c0,4.49,2.93,7.1,7.2,7.1s7.27-2.72,7.27-7.2v-4.52c0-4.45-2.92-7.1-7.2-7.1-4.23,0-7.27,2.75-7.27,7.2m-1.91-13.45h-12.11c-.92.11-1.52.81-1.52,1.69s.6,1.62,1.52,1.73h4.27v19.56c0,1.13.78,1.91,1.9,1.91s1.87-.78,1.87-1.91v-19.56h4.06c1.02,0,1.73-.71,1.73-1.73.01-.98-.69-1.69-1.72-1.69"></path><g><path d="m91,212.14c0,1.02-.71,1.73-1.73,1.73h-4.06v19.56c0,1.13-.78,1.91-1.87,1.91s-1.91-.78-1.91-1.91v-19.56h-4.27c-.92-.11-1.52-.81-1.52-1.73s.6-1.59,1.52-1.69h12.11c1.02,0,1.73.7,1.73,1.69Z"></path><path d="m98.48,216.69c4.27,0,7.2,2.65,7.2,7.1v4.52c0,4.48-3.04,7.2-7.27,7.2s-7.2-2.61-7.2-7.1v-4.52c0-4.45,3.03-7.2,7.27-7.2Zm-.03,15.61c2.19,0,3.64-1.48,3.64-3.99v-4.41c0-2.51-1.45-3.99-3.64-3.99s-3.64,1.48-3.64,3.99v4.41c0,2.5,1.45,3.99,3.64,3.99Z"></path><path d="m109.89,218.46c0-.92.67-1.59,1.59-1.59s1.55.64,1.59,1.59l.07,1.62c.74-2.05,2.61-3.39,4.7-3.39,1.13,0,1.8.78,1.8,1.8s-.71,1.84-1.94,1.84c-2.51,0-4.2,1.59-4.2,5.01v8.16c0,1.09-.74,1.84-1.8,1.84s-1.8-.74-1.8-1.84v-15.04h0Z"></path><path d="m122.07,211.99c0-1.34.99-2.33,2.29-2.33s2.33.99,2.33,2.33-.95,2.29-2.33,2.29c-1.3.01-2.29-.98-2.29-2.29Zm4.17,6.71v14.79c0,1.09-.78,1.84-1.87,1.84s-1.84-.74-1.84-1.84v-14.79c0-1.09.78-1.84,1.84-1.84,1.09,0,1.87.75,1.87,1.84Z"></path><path d="m130.72,211.99c0-1.34.99-2.33,2.29-2.33s2.33.99,2.33,2.33-.95,2.29-2.33,2.29c-1.3.01-2.29-.98-2.29-2.29Zm4.17,6.71v14.79c0,1.09-.78,1.84-1.87,1.84s-1.84-.74-1.84-1.84v-14.79c0-1.09.78-1.84,1.84-1.84,1.09,0,1.87.75,1.87,1.84Z"></path><path d="m148.98,228.06c.78,0,1.27.42,1.55.95.64,1.2,1.84,3.28,4.27,3.28,2.12,0,3.5-1.27,3.5-3.21,0-2.26-1.62-3.6-4.52-5.33-3.21-1.87-5.51-4.31-5.51-7.42,0-3.74,3-6.25,6.85-6.25s5.79,2.29,6.6,3.78c.25.46.39.88.39,1.24,0,.95-.71,1.62-1.62,1.62-.71,0-1.2-.39-1.55-.99-.56-.95-1.59-2.44-3.71-2.44-1.87,0-3.18,1.09-3.18,2.79,0,2.08,1.55,3.35,4.27,4.94,3.25,1.94,5.75,4.24,5.75,7.73,0,4.31-3.14,6.74-7.24,6.74s-6.29-2.9-7.1-4.56c-.28-.46-.39-.88-.39-1.27,0-.93.68-1.6,1.64-1.6Z"></path><path d="m165.86,223.89c0-4.45,3.04-7.2,7.27-7.2s7.06,2.65,7.06,7.1v.88c0,1.06-.67,1.73-1.73,1.73h-9v1.91c0,2.51,1.45,3.99,3.64,3.99,2.61,0,3.35-1.91,3.85-2.89.28-.5.74-.81,1.31-.81.92,0,1.55.67,1.55,1.59,0,.49-.21.99-.39,1.31-.74,1.66-2.37,4.03-6.36,4.03-4.27,0-7.2-2.61-7.2-7.1v-4.54h0Zm10.87.18v-.53c0-2.51-1.45-3.99-3.64-3.99s-3.64,1.48-3.64,3.99v.53h7.28Z"></path><path d="m183.97,223.72c0-4.34,2.97-7.03,7.06-7.03s6.64,2.54,6.64,5.72c0,1.06-.67,1.76-1.62,1.76-.88,0-1.48-.42-1.66-1.27-.14-1.73-1.45-3-3.35-3-2.08,0-3.46,1.41-3.46,3.81v4.77c0,2.4,1.38,3.81,3.46,3.81,1.87,0,3.21-1.2,3.35-3.11.25-.95.85-1.34,1.62-1.34.99,0,1.66.63,1.66,1.66,0,3.39-2.72,6-6.74,6s-6.96-2.54-6.96-6.92v-4.86h0Z"></path><path d="m215.85,218.67v14.97c0,.99-.71,1.7-1.69,1.7s-1.66-.71-1.66-1.7v-.78c-1.17,1.84-2.9,2.65-5.01,2.65-3.46,0-5.75-2.33-5.75-6.74v-10.1c0-1.06.74-1.8,1.8-1.8s1.8.74,1.8,1.8v9.29c0,3,1.24,4.34,3.32,4.34s3.6-1.27,3.6-4.2v-9.43c0-1.06.74-1.8,1.8-1.8s1.79.74,1.79,1.8Z"></path><path d="m220.41,218.46c0-.92.67-1.59,1.59-1.59s1.55.64,1.59,1.59l.07,1.62c.74-2.05,2.61-3.39,4.7-3.39,1.13,0,1.8.78,1.8,1.8s-.71,1.84-1.94,1.84c-2.51,0-4.2,1.59-4.2,5.01v8.16c0,1.09-.74,1.84-1.8,1.84s-1.8-.74-1.8-1.84v-15.04h-.01Z"></path><path d="m232.59,211.99c0-1.34.99-2.33,2.29-2.33s2.33.99,2.33,2.33-.95,2.29-2.33,2.29c-1.3.01-2.29-.98-2.29-2.29Zm4.17,6.71v14.79c0,1.09-.78,1.84-1.87,1.84s-1.84-.74-1.84-1.84v-14.79c0-1.09.78-1.84,1.84-1.84,1.09,0,1.87.75,1.87,1.84Z"></path><path d="m241.17,217.04h1.59v-2.86c0-1.06.74-1.8,1.8-1.8s1.8.74,1.8,1.8v2.86h3.85c.78,0,1.38.56,1.38,1.38s-.6,1.45-1.38,1.45h-3.85v9.99c0,1.76.88,2.44,2.37,2.44.85,0,1.59-.07,2.08.14.42.18.67.6.67,1.17,0,1.02-.78,1.55-1.76,1.7-.57.11-1.27.21-2.12.21-2.93,0-4.84-1.73-4.84-4.94v-10.7h-1.59c-.85,0-1.41-.6-1.41-1.45,0-.82.57-1.39,1.41-1.39Z"></path><path d="m253.21,239.39c0-.88.6-1.45,1.48-1.45.39,0,.64.11,1.02.11,1.62,0,2.61-.92,3.25-2.9l-5.4-15.5c-.14-.35-.25-.74-.25-1.02,0-1.06.71-1.77,1.8-1.77.92,0,1.55.46,1.84,1.48l3.78,12.29,3.81-12.32c.25-.95.81-1.45,1.73-1.45.99,0,1.69.67,1.69,1.7,0,.28-.07.56-.21.92l-5.68,16.31c-1.38,3.95-3.25,5.37-5.97,5.37-1.72,0-2.89-.5-2.89-1.77Z"></path></g></g><path class="cls-1" d="m215.77,43.92c0,24.26-19.67,43.92-43.92,43.92s-43.92-19.66-43.92-43.92S147.6,0,171.85,0s43.92,19.67,43.92,43.92"></path><path d="m330.45,84.88v7.96c-.02,4.82-1.14,7.8-2.58,9.99-1.1,1.64-2.45,2.87-3.99,3.87-2.29,1.49-5.03,2.34-7.15,2.75-1.06.21-1.96.31-2.56.36l-283.89.04c-4.82-.02-7.8-1.14-9.99-2.58-1.64-1.1-2.87-2.45-3.87-3.99-1.49-2.29-2.34-5.03-2.75-7.16-.2-1.06-.31-1.96-.36-2.56l-.04-.64v-8.04H0v7.96c.04.55-.04,7.28,3.66,14.79,1.86,3.74,4.8,7.7,9.27,10.69,4.46,3,10.35,4.83,17.36,4.81h3.4v12.93h54.96v42.11h27.74v-42.11h110.95v41.6h27.74v-41.6h54.96v-12.93h3.41c.55-.03,7.28.04,14.79-3.66,3.74-1.86,7.7-4.8,10.68-9.28,3-4.46,4.83-10.35,4.81-17.35v-7.96h-13.28Z"></path></svg> 