<?xml version="1.0" encoding="UTF-8" standalone="no"?>
<!-- Created with Inkscape (http://www.inkscape.org/) -->

<svg
   width="33.573792cm"
   height="21.522457cm"
   viewBox="0 0 335.73792 215.22458"
   version="1.1"
   id="svg1"
   inkscape:version="1.4 (e7c3feb100, 2024-10-09)"
   sodipodi:docname="logo-2025.svg"
   inkscape:export-filename="logo2.png"
   inkscape:export-xdpi="373.3956"
   inkscape:export-ydpi="373.3956"
   xmlns:inkscape="http://www.inkscape.org/namespaces/inkscape"
   xmlns:sodipodi="http://sodipodi.sourceforge.net/DTD/sodipodi-0.dtd"
   xmlns="http://www.w3.org/2000/svg"
   xmlns:svg="http://www.w3.org/2000/svg">
  <sodipodi:namedview
     id="namedview1"
     pagecolor="#ffffff"
     bordercolor="#999999"
     borderopacity="1"
     inkscape:showpageshadow="2"
     inkscape:pageopacity="0"
     inkscape:pagecheckerboard="0"
     inkscape:deskcolor="#d1d1d1"
     inkscape:document-units="mm"
     inkscape:zoom="0.70035315"
     inkscape:cx="576.13791"
     inkscape:cy="367.67165"
     inkscape:window-width="1902"
     inkscape:window-height="1006"
     inkscape:window-x="7"
     inkscape:window-y="35"
     inkscape:window-maximized="1"
     inkscape:current-layer="layer1" />
  <defs
     id="defs1" />
  <g
     inkscape:label="Layer 1"
     inkscape:groupmode="layer"
     id="layer1"
     transform="translate(-55.582955,-82.078484)">
    <rect
       style="fill:#000000;fill-opacity:1;stroke:#8d0000;stroke-width:0.26689"
       id="rect1"
       width="335.47101"
       height="214.95769"
       x="55.7164"
       y="82.211929" />
    <path
       id="rect289"
       style="display:inline;fill:#000000;stroke-width:0.182049"
       d="m 154.82841,120.14391 h 137.24726 c 0.57247,0 1.03333,0.45611 1.03333,1.02266 v 137.04841 c 0,0.56655 -0.46086,1.02265 -1.03333,1.02265 H 154.82841 c -0.57247,0 -1.03333,-0.4561 -1.03333,-1.02265 V 121.16657 c 0,-0.56655 0.46086,-1.02266 1.03333,-1.02266 z" />
    <path
       id="path3"
       style="display:inline;fill:#ffffff;stroke-width:0.264583"
       d="m 225.79855,173.24513 -1.04748,0.18551 -1.07642,0.11679 -0.63355,0.14573 -0.85163,0.18655 -0.95136,0.35605 -1.08986,0.48835 c 0,0 -1.11859,0.55398 -1.16065,0.60771 -0.0421,0.0537 -0.82372,0.50023 -0.82372,0.50023 l -0.7922,0.64905 -0.8475,0.84078 -0.74,0.81545 -0.68213,0.87024 -1.05834,1.90996 -0.5457,1.33893 -0.33848,1.08572 -0.0388,0.95033 0.0108,1.61283 v 0.90847 l 0.0992,0.47232 0.34778,-0.632 0.57154,-1.17719 0.42943,-1.13482 0.38965,-1.19786 0.32401,-0.95963 0.55035,-1.39681 c 0,0 0.1526,-0.33954 0.18707,-0.38706 0.0345,-0.0475 0.2496,-0.35036 0.2496,-0.35036 l 0.18138,-0.2496 0.0656,-0.0408 h 0.0589 l 0.0718,-0.009 0.0589,0.0413 0.0181,0.1018 v 0.0971 l -0.19792,0.41548 -0.42323,0.86971 -0.24495,0.65733 -0.27233,0.67076 -0.21497,0.73949 -0.24237,0.86299 0.0749,0.58653 c 0,0 0.0844,-0.2224 0.16433,-0.3023 0.0799,-0.0799 0.31988,-0.51108 0.31988,-0.51108 l 0.21653,-0.47284 0.39894,-0.57361 c 0,0 0.44764,-0.57237 0.49299,-0.63769 0.0454,-0.0653 0.19475,-0.27868 0.25632,-0.32659 0.0616,-0.0479 0.14765,-0.18894 0.23254,-0.34159 0.0849,-0.15264 0.14624,-0.0646 0.14624,-0.0646 l 0.15555,0.0403 c 0,0 1e-5,0.1676 -0.015,0.2558 -0.015,0.0882 -0.0971,0.19017 -0.0971,0.19017 l -0.26923,0.20722 -0.3514,0.53124 -0.524,1.03611 -0.10594,0.55501 0.24701,-0.25322 0.37311,-0.54312 0.59273,-0.80873 0.5612,-0.83406 0.38137,-0.66094 0.0279,-0.16537 0.11007,-0.0594 0.33487,0.23306 0.0315,0.13746 -0.22273,0.47594 -0.40669,1.0666 -0.41134,1.41904 0.42064,-0.5147 c 0,0 0.60328,-0.64432 0.67696,-0.77256 0.0491,-0.0855 0.43771,-0.53555 0.69867,-0.83509 l 0.10697,-0.0243 0.16846,-0.0207 0.24805,0.0326 c 0,0 0.13293,0.0506 0.1757,0.0708 l 0.5426,0.37827 0.60668,-0.39171 0.75293,-0.3359 0.82476,-0.13332 1.11001,-0.1695 0.89917,-0.16691 0.58394,-0.13126 0.39791,-0.39171 0.81752,-0.81235 0.70952,-0.51522 1.00045,-0.58497 0.87902,-0.46251 0.97203,-0.40773 0.46406,-0.22944 1.05781,-0.70797 0.91364,-0.69608 0.67696,-0.72605 0.12454,-0.19896 v -0.14882 l -0.41806,-0.19534 -0.41961,-0.31006 -0.37775,-0.0915 -0.68627,0.0351 c 0,0 -0.0662,0.0812 -0.12195,0.13384 -0.0558,0.0527 -0.21291,0.045 -0.21291,0.045 h -0.15038 l -0.0403,-0.1881 -0.16743,-0.008 -0.43305,0.0398 -0.27698,0.12661 c 0,0 -0.46308,0.027 -0.48059,-0.047 -0.0175,-0.074 0.0682,-0.1757 0.0682,-0.1757 l 0.32194,-0.14676 c 0,0 0.30078,0.0103 0.38086,0.0103 0.0801,0 0.65577,-0.0584 0.65577,-0.0584 l 0.41703,-0.0579 0.18242,-0.017 -0.2682,-0.22428 c 0,0 -0.93113,-0.37059 -1.05782,-0.37 -0.12668,5.3e-4 -1.19447,-0.39973 -1.24643,-0.41651 -0.052,-0.0168 -1.14464,-0.0579 -1.14464,-0.0579 0,0 -0.70325,-0.13798 -0.79116,-0.13798 -0.0879,0 -0.86093,-0.0408 -0.86093,-0.0408 z m 9.18497,2.15955 -0.31833,0.0847 -0.19327,0.26614 c 0,0 0.28019,0.25168 0.31988,0.28784 0.0397,0.0362 0.27337,0.35036 0.27337,0.35036 l 0.2837,0.40204 c 0,0 0.10941,0.27439 0.12093,0.31575 0.0115,0.0414 0.0931,0.20541 0.14676,0.32918 0.0536,0.12376 0.26148,0.51159 0.26148,0.51159 l 0.2899,0.0594 0.48111,0.14728 0.62787,0.27285 0.64182,0.35709 0.4961,0.43356 0.37052,0.45475 0.41186,0.39791 0.0625,-0.33744 -0.87489,-1.0511 -0.64905,-0.70384 -0.30851,-0.30799 -0.30644,-0.45888 -0.0258,-0.10749 -0.35812,-0.62529 -0.39739,-0.47594 -0.30127,-0.31419 c 0,0 -0.25415,-0.22223 -0.28887,-0.23461 -0.0347,-0.0124 -0.29279,-0.0455 -0.34779,-0.0455 -0.055,0 -0.41806,-0.008 -0.41806,-0.008 z m -0.74104,1.04852 -0.27854,0.0847 -0.32504,0.24649 -0.51728,0.38344 -0.68213,0.56328 -0.73536,0.45888 -0.96634,0.54881 -1.20045,0.54673 -0.92552,0.4098 -0.98237,0.55035 -0.66404,0.52917 -0.24805,0.22479 0.005,0.11266 0.33744,-0.031 0.71159,-0.14418 0.97513,-0.24236 1.23507,-0.33073 0.89658,-0.37827 0.77567,-0.39533 0.87333,-0.61753 0.63459,-0.51005 0.35295,-0.33951 0.45113,-0.5271 0.25063,-0.5271 0.0568,-0.28526 z m 0.6966,1.25522 -0.44494,0.63407 -0.33331,0.63355 -0.87798,0.79944 -1.05265,0.91002 -1.12551,0.77773 -1.37666,0.65216 -1.10226,0.51211 -0.86816,0.86713 -1.30277,1.74925 -0.82424,1.14463 -1.20509,1.45056 -0.84749,0.98805 -0.61702,0.57568 -0.51056,0.26148 -0.73071,0.23461 -0.57051,0.0816 -0.20877,0.0656 c 0,0 -0.0842,0.11577 -0.0842,0.18293 0,0.0672 0.10955,0.38551 0.10955,0.38551 l 0.25787,0.42943 0.0667,0.36587 -0.0506,0.47491 -0.80977,-0.3204 -0.66766,-0.42116 -0.20464,-0.76584 -0.30437,-0.46354 -0.26872,-0.0543 -0.11317,0.61702 0.0868,0.75137 0.5302,1.01544 0.95808,0.8909 0.83768,0.14832 0.4873,-0.10801 0.0848,1.21336 0.34521,1.19838 0.54105,1.18494 0.73535,1.09916 0.63149,0.49609 0.92139,0.64906 1.4919,0.80305 1.34927,0.65422 1.78335,0.5762 1.73116,0.37723 1.87431,0.23875 1.37563,0.1111 0.67902,-0.17208 0.4346,-0.26975 0.18604,-0.38912 -0.0362,-0.84595 0.17054,-0.78548 0.0563,-0.59221 -0.10283,-0.15968 -0.24237,0.10749 -0.55087,0.03 -0.50798,-0.0568 -0.47852,-0.25993 -0.045,-0.37414 0.19534,-0.28267 0.61443,-0.22065 0.58808,-0.0243 0.12661,-0.17312 0.2961,0.0749 0.14831,0.47749 0.45062,-0.0418 0.16898,-0.54519 -0.0558,-0.447 -0.81907,-0.0734 -1.48311,-0.0341 -0.57826,0.0496 -0.58136,0.092 -0.67593,0.21963 -0.25528,-0.12454 0.1943,-0.44545 0.26304,-0.0346 0.28008,0.12764 0.42478,-0.0677 0.24857,-0.17157 0.37569,-0.0372 0.33693,-0.14935 0.10593,-0.11214 0.68523,-0.009 0.25115,-0.17002 h 0.22272 l 0.23565,0.22738 0.49868,-0.0227 0.076,-0.26096 0.32763,0.42788 0.22428,0.0227 0.25373,-0.86662 0.31264,-0.71262 0.20464,-0.78548 0.0744,-0.39274 -0.34416,0.0822 c 0,0 -0.27619,0.1705 -0.3974,0.34623 -0.12118,0.17574 -0.4656,0.38034 -0.4656,0.38034 l -0.21239,0.11627 -0.13798,0.43873 0.0129,0.33538 -0.18603,0.16537 -0.31936,-0.68265 -0.0455,-0.36897 0.19379,-0.34003 -0.19069,-0.3328 -0.25166,-0.0114 -0.35398,0.22428 h -0.38182 l -0.27234,-0.008 -0.19534,-0.17983 -0.0667,-0.3297 0.0878,-0.25476 0.12144,-0.093 0.0641,0.20516 0.28939,0.15141 0.40152,-0.0455 0.27544,-0.21394 h 0.40101 l 0.54622,0.22014 0.72812,-0.0222 0.50023,-0.0894 0.32556,-0.22945 0.13642,-0.40721 0.008,-0.43046 -0.53796,-1.3162 -0.43769,-1.10433 -0.39171,-0.84749 -0.13488,-0.57722 -0.0868,-0.66715 0.093,-0.54208 0.23255,-0.41858 0.33228,-0.29972 0.40101,-0.34934 0.28732,-0.007 0.31316,0.20309 0.28422,0.008 0.23099,-0.0599 -0.14779,-0.26097 -0.12661,-0.28473 -0.015,-1.19166 -0.0749,-1.21026 -0.16433,-1.06351 -0.40153,-0.96014 -0.97771,-1.55495 -0.88677,-0.89658 z m 3.16828,1.93528 -0.0568,0.0662 0.97151,1.81023 0.73691,1.65209 0.61495,1.31517 0.10335,0.21239 0.14573,-0.18759 c 0,0 0.004,-0.1661 0.004,-0.25011 0,-0.084 -0.0403,-0.41238 -0.0403,-0.41238 l -0.21239,-0.47956 -0.36122,-0.93327 -0.42737,-0.87695 -0.44235,-0.73071 -0.41134,-0.57722 -0.31936,-0.38603 -0.19637,-0.19585 z m -10.63914,1.98179 c -0.061,0 -0.37122,0.0724 -0.48008,0.0724 -0.10887,0 -0.4935,-0.0119 -0.59634,0.004 -0.10284,0.0161 -0.4222,0.13385 -0.4222,0.13385 l -0.5178,0.27543 c 0,0 -0.82793,0.19233 -0.9126,0.23668 -0.0847,0.0443 -0.77814,0.27822 -0.8754,0.30644 -0.0973,0.0282 -0.5927,0.0486 -0.6935,0.0889 -0.1008,0.0403 -0.80253,0.22531 -0.80253,0.22531 l -1.07901,0.56327 c 0,0 -0.56346,0.13073 -0.632,0.1912 -0.0685,0.0605 -0.34985,0.31368 -0.34985,0.31368 l -0.4253,0.65629 -0.44855,0.6749 -0.37362,0.51418 -0.74259,0.49609 -0.65371,0.6103 c 0,0 -0.46779,0.39225 -0.51986,0.45682 -0.0521,0.0646 -0.33924,0.40692 -0.39068,0.48214 -0.0514,0.0752 -0.31367,0.5271 -0.31367,0.5271 l -0.19017,0.46095 -0.21653,0.70487 c 0,0 -0.0686,0.49043 -0.1018,0.53588 -0.0332,0.0455 -0.19232,0.1136 -0.25683,0.22893 -0.0645,0.11533 -0.17652,0.24545 -0.20877,0.28577 -0.0323,0.0403 -0.17105,0.25373 -0.17105,0.25373 l -0.30593,0.0889 -0.47025,0.26975 -0.64492,0.21291 -0.76326,0.2775 -0.34417,0.0796 -0.39997,0.37414 -0.41135,0.57206 -0.29197,0.34313 -0.15606,0.3638 -0.0243,0.38861 -0.0522,0.36432 0.0724,0.41961 c 0,0 0.008,0.28059 0.016,0.34262 0.008,0.062 0.0228,0.15754 0.0548,0.20929 0.0319,0.0517 0.12764,0.15038 0.12764,0.15038 l 0.20205,-0.0698 c 0,0 0.0667,-0.24899 0.0667,-0.28112 0,-0.0321 -0.004,-0.21762 0,-0.36277 0.004,-0.14515 -0.008,-0.26951 0.004,-0.31832 0.0121,-0.0488 0.0964,-0.2675 0.11627,-0.3266 0.0199,-0.0591 0.17725,-0.39119 0.17725,-0.39119 l 0.26562,-0.34881 c 0,0 0.24982,-0.20935 0.29094,-0.24392 0.0411,-0.0346 0.48731,-0.27647 0.48731,-0.27647 l 0.45423,-0.22376 c 0,0 0.38652,-0.13859 0.43253,-0.14262 0.046,-0.004 0.258,-0.10138 0.31678,-0.12093 0.0588,-0.0196 0.25632,-0.11214 0.25632,-0.11214 l 0.17931,-0.10283 0.078,0.0661 0.0284,0.17415 c 0,0 -0.0714,0.102 -0.11782,0.13022 -0.0464,0.0282 -0.27078,0.16898 -0.27078,0.16898 l -0.49248,0.17984 -0.55242,0.32711 -0.40979,0.34365 -0.33642,0.40152 -0.0367,0.19896 c 0,0 0.0655,0.0992 0.10025,0.0992 0.0347,0 0.22221,-0.0822 0.22221,-0.0822 l 0.24753,-0.24495 0.5979,-0.30644 c 0,0 0.19813,-0.0835 0.22996,-0.0956 0.0318,-0.0121 0.37492,-0.11719 0.40876,-0.13332 0.0338,-0.0161 0.28541,-0.0948 0.34778,-0.14108 0.0624,-0.0462 0.41234,-0.20309 0.45992,-0.20309 0.0476,0 0.42582,-0.18655 0.42582,-0.18655 l 0.34468,-0.3514 c 0,0 0.18447,-0.24481 0.22841,-0.31212 0.0439,-0.0673 0.18913,-0.3204 0.18913,-0.3204 l 0.0522,-0.2098 0.0284,-0.3142 -0.14159,-0.0124 -0.10904,-0.0724 c 0,0 0.004,-0.10645 0,-0.16691 -0.004,-0.0605 0.0336,-0.17723 0.0765,-0.21653 0.0428,-0.0393 0.10956,-0.11834 0.10956,-0.11834 l 0.23306,-0.37 0.38705,-0.48317 0.28526,-0.70745 0.2496,-0.44442 c 0,0 0.16202,-0.29894 0.20153,-0.37931 0.0395,-0.0804 0.13591,-0.41341 0.13591,-0.41341 l 0.54105,-0.63665 c 0,0 0.32611,-0.28498 0.36846,-0.32349 0.0423,-0.0385 0.43733,-0.32375 0.46974,-0.33435 0.0324,-0.0106 0.40566,-0.11937 0.40566,-0.11937 l 0.47439,-0.1354 1.06195,-0.31057 0.92242,-0.2837 0.73071,-0.26097 0.82682,-0.22789 0.66817,-0.29973 0.49558,-0.2589 0.51987,-0.36897 0.63872,-0.40307 0.55552,-0.36329 0.19689,-0.30437 v -0.12661 c 0,0 -0.0823,-0.0663 -0.11783,-0.0584 -0.0355,0.008 -0.34416,0.20774 -0.34416,0.20774 l -0.70177,0.18965 c 0,0 -0.50202,0.14936 -0.58239,0.20929 -0.0804,0.0599 -0.72037,0.45992 -0.72037,0.45992 l -0.78238,0.34055 -0.99167,0.43563 -0.92553,0.0527 -0.5674,-0.15141 0.0341,-0.11627 0.31522,-0.0424 0.48318,-0.1571 0.73948,-0.20154 0.85938,-0.28318 0.39843,-0.16795 0.33021,-0.16847 0.31729,-0.36535 0.55552,-0.45733 0.86093,-0.46251 0.49713,-0.29869 c 0,0 0.29123,-0.10387 0.34623,-0.10387 0.055,0 0.39032,-0.0243 0.50643,-0.0243 0.1161,0 0.29766,-0.0563 0.29766,-0.0563 0,0 0.0671,-0.1136 0.0558,-0.15761 -0.0113,-0.044 -0.16067,-0.10439 -0.22169,-0.10439 z m -8.62945,2.32079 -0.34933,0.20464 c 0,0 -0.31754,0.20725 -0.32815,0.24185 -0.0106,0.0346 -0.26252,0.2036 -0.26252,0.2036 0,0 -0.004,-0.0849 -0.0248,-0.14056 -0.0211,-0.0557 -0.0527,-0.14883 -0.0527,-0.14883 l -0.0372,-0.25373 -0.15968,0.49661 -0.33021,0.41497 -0.53278,0.60461 c 0,0 -0.44334,0.66442 -0.47026,0.68109 -0.0269,0.0167 -0.2806,0.40308 -0.2806,0.40308 l 0.0124,0.12506 0.077,-0.0207 0.83044,-0.75551 0.87385,-0.68988 0.43873,-0.45372 0.43925,-0.58291 z m 13.02039,0.94103 0.79272,0.0181 0.76481,0.0977 0.56172,0.10594 0.69505,0.21394 0.25942,0.18707 0.11214,0.3116 -0.0444,0.59325 -0.79116,0.63459 -0.26252,1.4211 -0.44287,0.18655 -0.17983,0.73484 -0.70022,0.39636 -0.44338,-0.0382 -0.53795,-0.39584 -0.96893,-0.47129 -0.43615,-0.48008 -0.45424,-0.25786 -0.0785,-0.0724 -0.83974,-0.0367 -0.22066,-0.3266 0.63976,-0.42943 0.46043,-0.33745 0.66405,-0.32349 0.66404,-0.26562 0.39171,-0.11472 0.47542,-0.0754 0.46509,0.0377 0.44338,0.15038 0.1726,-0.31058 -0.37724,-0.28938 -0.55035,-0.15297 -0.47749,-0.12247 -0.50591,-0.0165 -0.46871,0.0165 -0.41961,0.0238 -0.36329,0.10956 -0.49506,0.20153 -0.50643,0.13178 -0.32763,0.0258 0.0506,-0.0677 0.5426,-0.31213 0.58859,-0.1881 0.76947,-0.22479 0.63355,-0.18707 z m -7.09362,0.60875 c -0.0473,-0.002 -0.1757,0.0408 -0.1757,0.0408 0,0 -0.0545,0.0432 -0.11576,0.0718 -0.0613,0.0286 -0.34397,0.25444 -0.3979,0.27285 -0.0539,0.0184 -0.52057,0.26032 -0.59222,0.29714 -0.0717,0.0368 -0.58315,0.24776 -0.6134,0.26045 -0.0302,0.0127 -0.83922,0.33228 -0.83922,0.33228 0,0 -0.75958,0.19261 -0.79788,0.20825 -0.0383,0.0156 -0.44562,0.15266 -0.58498,0.19999 -0.13936,0.0473 -0.69402,0.231 -0.69402,0.231 0,0 -0.44767,0.21061 -0.48782,0.22375 -0.0402,0.0131 -0.57206,0.27596 -0.57206,0.27596 l -0.38292,0.42013 c 0,0 -0.33218,0.37055 -0.35864,0.37517 -0.0265,0.005 -0.34003,0.46353 -0.34003,0.46353 l -0.20825,0.29766 -0.32918,0.49196 -0.21911,0.32039 -0.06,0.25477 v 0.16691 c 0,0 0.10845,0.0336 0.15968,0.0362 0.0512,0.003 0.23329,-0.16409 0.25631,-0.19223 0.023,-0.0281 0.35761,-0.55501 0.35761,-0.55501 l 0.42374,-0.52503 c 0,0 0.22934,-0.21233 0.29507,-0.27543 0.0658,-0.0631 0.868,-0.65274 0.90744,-0.70022 0.0394,-0.0475 0.36786,-0.19471 0.49145,-0.26045 0.12358,-0.0657 0.37874,-0.0919 0.47077,-0.12609 0.092,-0.0342 0.59411,-0.26018 0.63355,-0.27595 0.0394,-0.0158 0.42633,-0.14728 0.42633,-0.14728 0,0 0.68626,-0.25707 0.73433,-0.27285 0.0481,-0.0158 0.41876,-0.0923 0.49764,-0.13436 0.0789,-0.0421 0.52689,-0.28902 0.56896,-0.31006 0.0421,-0.021 0.5202,-0.25803 0.55397,-0.29921 0.0338,-0.0412 0.37215,-0.20105 0.42737,-0.25889 0.0552,-0.0579 0.23951,-0.2192 0.27595,-0.2682 0.0364,-0.049 0.0996,-0.13349 0.13901,-0.18346 0.0394,-0.05 0.13436,-0.2589 0.13436,-0.2589 l 0.0439,-0.1974 c 0,0 0.0188,0.002 -0.0284,0 z m 7.53081,1.01286 -0.47233,0.0217 -0.74724,0.20567 -0.66611,0.17673 -0.22221,0.15245 -0.37775,0.076 -0.0548,0.10128 0.0858,0.1385 0.56172,-0.0574 0.32711,-0.0677 0.37879,-0.15038 0.5488,-0.16537 0.38034,-0.0295 0.32453,0.009 0.0724,-0.0232 0.0155,-0.0749 -0.002,-0.22582 -0.0553,-0.0744 z m 5.83427,0.49196 -0.0935,0.21704 -0.20309,0.0382 -0.14107,0.11782 -0.27596,0.1912 -0.006,0.28784 0.12144,0.18035 0.47129,0.18397 0.29094,-0.0832 0.14728,-0.42995 -0.0904,-0.37775 z m -7.41351,0.67437 -0.23977,0.0217 -0.24237,0.17364 -0.003,0.17311 0.0662,0.0801 1.12138,0.53899 0.41289,0.0935 0.4253,-0.007 0.25683,-0.0956 0.16175,-0.1788 -0.18552,-0.0693 -0.55862,-0.0238 -0.63097,-0.27544 -0.23358,-0.40152 -0.17208,-0.0233 z m 7.06521,1.2759 -0.24288,0.21239 0.14883,0.36638 0.0847,-0.0155 0.15297,-0.0718 0.0837,-0.093 0.007,-0.1788 z m -17.15761,5.28133 -0.44442,0.0796 -0.24701,0.31316 -0.1323,1.06195 v 0.79478 l -0.16898,2.35852 -0.67127,1.67896 -0.87747,0.9338 -0.38344,0.27078 -0.21291,0.23564 0.51522,0.7829 0.73949,0.75706 1.19062,1.01855 1.47536,0.68522 2.17558,0.84388 1.85054,0.19327 1.12861,-0.18242 0.0217,-0.90537 -0.0331,-0.81132 -0.0331,-0.91002 v -0.50385 -0.29455 l -0.0641,-0.36587 -0.13694,-0.47284 -0.16382,-0.25321 -0.50591,-0.58085 -1.26039,-0.88056 -0.77308,-0.50695 -0.76274,-0.51366 -0.7028,-0.91829 -0.69608,-1.33997 -0.40773,-1.48777 z m -4.75372,0.24753 -0.0398,0.12661 -0.0692,0.16019 -0.0501,0.18345 -0.092,0.13746 -0.40049,0.45372 -0.34623,0.28991 -0.2403,0.20257 c 0,0 -0.17522,0.14805 -0.22221,0.16485 -0.047,0.0168 -0.15606,0.12764 -0.15606,0.12764 0,0 -0.2618,0.14783 -0.3328,0.16123 -0.071,0.0134 -0.50953,0.12505 -0.50953,0.12505 l -0.41599,0.16589 c 0,0 -0.2115,0.0839 -0.23926,0.0899 -0.0278,0.006 -0.20309,0.0501 -0.20309,0.0501 l -0.1881,0.0992 -0.13178,0.0961 -0.33073,0.0336 c 0,0 -0.40967,-0.013 -0.43718,0.004 -0.0275,0.0168 -0.13191,0.04 -0.16847,0.0568 -0.0366,0.0168 -0.13022,0.10336 -0.13022,0.10336 l -0.15761,0.16536 -0.21343,0.22221 -0.22634,0.31574 -0.108,0.26717 c 0,0 -0.0938,0.26561 -0.14418,0.33951 -0.0503,0.0738 -0.0638,0.17094 -0.0672,0.19844 -0.003,0.0275 -0.0605,0.2372 -0.0605,0.2372 v 0.21859 0.32453 l 0.092,0.35915 0.0915,0.37207 0.01,-0.18139 0.0134,-0.12815 0.0269,-0.18966 c 0,0 0.0171,-0.23283 0.0305,-0.33383 0.0134,-0.10094 0.0168,-0.0931 0.0202,-0.14262 0.003,-0.0495 0.0791,-0.22893 0.0791,-0.22893 l 0.11162,-0.24598 0.0403,-0.11524 0.0636,-0.23874 0.15761,-0.1757 0.11369,-0.18862 0.0801,-0.0527 -5.2e-4,0.0646 0.0615,0.0589 0.0367,0.11214 v 0.12403 l -0.0439,0.18448 c 0,0 -0.10058,0.23462 -0.14676,0.28422 -0.0462,0.0496 -0.0471,0.10639 -0.0935,0.20619 -0.0464,0.0998 -0.03,0.154 -0.03,0.154 v 0.27233 c 0,0.0974 0.0233,0.18242 0.0233,0.18242 l 0.0465,0.2775 c 0,0 0.03,0.13522 0.03,0.17002 0,0.0348 0.10749,0.2961 0.10749,0.2961 l 0.15555,0.262 0.19637,0.27544 0.27905,0.21497 0.31574,0.22944 0.19121,0.0899 -0.23048,-0.32866 -0.1478,-0.24081 -0.0966,-0.19999 -0.14521,-0.28836 -0.0951,-0.25011 v -0.3514 c 0,-0.03 0.0233,-0.20981 0.0233,-0.20981 l 0.017,-0.25063 0.17674,-0.37052 c 0,0 0.21267,-0.34254 0.24288,-0.41134 0.0302,-0.0688 0.16433,-0.25632 0.16433,-0.25632 l 0.31161,-0.37413 0.28628,-0.30334 c 0,0 0.61808,-0.28871 0.63356,-0.32401 0.0155,-0.0353 0.59324,-0.37466 0.59324,-0.37466 l 0.67645,-0.5395 0.50436,-0.45114 c 0,0 0.39338,-0.39036 0.42581,-0.42116 0.0324,-0.0308 0.15451,-0.21239 0.15451,-0.21239 0,0 0.0605,-0.16751 0.0904,-0.23151 0.03,-0.064 0.0403,-0.1974 0.0403,-0.1974 z m -1.30069,3.14864 -0.0677,0.15658 -0.56586,0.2372 c 0,0 -0.62199,0.26355 -0.69918,0.26355 -0.0772,0 -0.39791,0.1974 -0.39791,0.1974 l -0.25115,0.26872 -0.28629,0.49041 0.0202,0.4253 0.35709,0.25786 0.14262,-0.14986 v -0.18552 l 0.0708,-0.33073 0.37465,-0.30489 0.33021,-0.25115 0.51832,-0.27543 0.57516,-0.28939 z m 2.10013,4.85397 -0.10956,0.077 0.12299,1.35444 0.20981,1.46089 0.24753,0.96532 0.21084,0.37465 0.90382,0.99012 c 0,0 1.59126,1.56024 1.63659,1.60404 0.0453,0.0438 2.05621,1.60197 2.05621,1.60197 l 2.07016,1.77405 1.84743,1.12758 1.23661,0.62993 1.67484,0.51729 1.78852,0.26303 0.92191,0.0114 1.07642,-0.13281 0.64544,-0.19275 0.81752,-0.4253 c 0,0 0.43364,-0.39264 0.50694,-0.46974 0.0733,-0.0771 0.16227,-0.5827 0.16227,-0.6382 0,-0.0555 -0.19928,-0.52405 -0.24288,-0.57155 -0.0436,-0.0475 -0.23833,-0.34268 -0.29663,-0.38188 -0.0583,-0.0392 -0.54777,-0.43925 -0.54777,-0.43925 l -1.00045,-0.64079 -0.76843,-0.57671 -0.56637,-0.55139 -0.33848,-0.6382 -0.0336,-0.40049 0.002,-0.97359 0.0171,-1.0387 0.22737,-1.10639 c 0,0 0.22028,-0.73451 0.23668,-0.78961 0.0164,-0.0551 0.19275,-0.67128 0.19275,-0.67128 l -0.0537,-0.65112 -0.0605,-0.10749 -0.12919,0.0904 -0.12299,0.45992 -0.28939,0.7953 -0.25373,1.21957 c 0,0 -0.16599,1.14908 -0.18759,1.21078 -0.0216,0.0617 -0.0351,1.4552 -0.0351,1.4552 l 0.077,0.78859 0.33331,0.786 0.65423,0.77566 0.83147,0.58188 0.59376,0.74362 0.25373,0.73329 -0.16484,0.39946 -0.48266,0.35398 -1.12241,0.39016 -2.06913,-0.27802 -1.79162,-0.55552 -0.0279,-0.22325 -0.0196,-0.51986 -0.0537,-0.447 -0.12299,-0.17157 -0.22686,-0.22686 -0.20258,-0.48782 -0.1142,-0.69505 -0.20516,-1.37666 -0.0418,-1.125 0.0326,-0.92811 -0.16691,-0.17518 -0.65423,-0.0388 -1.04696,-0.13125 -0.92759,-0.17364 -1.39578,-0.47284 -1.2051,-0.52451 -1.29501,-0.66198 -1.14618,-0.72295 -0.82786,-0.61185 -0.70073,-0.66249 z m 16.06413,0.56534 -0.23874,0.12144 0.0517,0.43977 0.25735,0.39584 0.91984,2.71198 0.63769,1.55442 0.72967,1.23145 0.45062,1.03198 0.32608,1.56942 0.077,1.15703 -0.2403,1.30896 -0.87488,1.13999 -1.21646,0.75137 -1.65313,0.18707 -1.52136,0.13384 -1.65468,-0.31677 -2.1425,-0.78187 -2.02365,-1.33325 -3.33417,-2.35128 -2.57865,-2.33216 -1.22576,-1.07383 -1.7291,-1.20871 -1.15962,-1.01596 -0.94929,-0.44184 -0.43667,-0.7431 -1.08004,-0.41238 -1.77922,-0.52142 -1.04851,-0.30075 -1.82108,0.34055 -0.35967,0.46767 -0.33951,0.41961 -0.42788,0.6382 -0.17415,0.4098 -0.50591,0.31832 -0.11989,0.12971 v 0.1726 l 0.0904,0.10129 0.26716,0.15244 0.90848,-0.0718 0.90485,-0.061 c 0,0 0.79265,0.022 0.89762,0.0816 0.10497,0.0596 1.55701,0.45786 1.55701,0.45786 l 1.25987,0.70331 1.59267,1.15549 2.15284,1.66088 2.04174,1.92081 2.39623,2.07119 1.85725,1.45314 2.27222,1.44901 1.68879,1.01596 1.60765,0.72502 1.51825,0.35863 1.05937,0.20413 2.26705,-0.0729 1.75854,-0.063 1.50792,-0.27389 0.53847,-0.30954 c 0,0 0.78126,-0.47692 0.93018,-0.54777 0.14892,-0.0708 0.96376,-0.65216 0.96376,-0.65216 0,0 0.74757,-0.86172 0.82734,-0.97668 0.0798,-0.11496 0.44752,-1.2361 0.44752,-1.2361 l 0.16071,-1.52962 0.2682,-2.48461 -0.10231,-1.41748 -0.26665,-1.47846 -0.33332,-1.09709 -0.60513,-1.11673 -1.23817,-1.3777 -1.1715,-0.85421 -1.19063,-0.79788 -0.88728,-0.5271 -0.61753,-0.32556 z m -26.89965,4.91288 -0.71106,0.0165 -0.65216,0.10903 -0.33176,0.12299 -0.30748,0.36794 -0.40049,0.29972 -0.49661,0.61082 -0.1695,0.53226 0.0889,0.32402 h 0.1726 l 0.63045,-0.10284 0.81856,-0.10852 1.19786,0.008 1.16582,0.0336 0.82837,0.22996 1.11776,0.43718 1.74046,0.97462 1.16789,0.76326 1.5136,0.91364 1.24179,0.77308 0.76067,0.63304 0.67697,0.84904 0.46818,0.75396 0.35864,1.11259 0.23461,1.05265 0.11627,1.12655 0.0439,0.83457 -0.062,1.16841 -0.1018,1.08675 -0.19069,1.19114 -0.30024,1.0232 -0.34261,1.07383 -0.53692,1.33739 -0.41083,1.07435 -0.52451,0.90227 -0.72502,1.17926 c 0,0 -0.70054,1.28255 -0.73174,1.33015 -0.0312,0.0476 -0.57619,1.03715 -0.57619,1.03715 l -0.68317,1.002 -0.57929,0.98134 -0.56689,0.90744 -0.39687,0.39894 c 0,0 -0.148,0.11162 -0.23306,0.11162 -0.0851,0 -0.17932,0.14056 -0.17932,0.14056 v 0.2775 l 0.15709,0.0501 c 0,0 0.25894,-0.0672 0.29559,-0.0672 0.0367,0 0.12713,-0.11937 0.12713,-0.11937 v -0.23151 l 0.22531,-0.12816 0.46353,-0.48008 0.56069,-0.61184 0.42943,-0.5178 c 0,0 0.59672,-0.66697 0.62064,-0.71107 0.0239,-0.0441 0.4439,-0.64906 0.4439,-0.64906 l 0.41754,-0.51728 0.21188,-0.21962 0.14986,-0.0853 h 0.078 l 0.10542,0.0574 0.0336,0.154 0.14728,0.29869 0.32556,0.49558 0.42064,0.54105 0.70384,0.92914 0.94464,1.03198 0.99167,0.99735 0.63821,0.51367 0.86454,0.62166 0.78755,0.56379 0.30283,0.29559 0.14521,0.11007 0.0326,0.27441 0.0326,0.34623 -0.0491,0.74466 -0.16743,0.93947 -0.0527,0.39739 0.18603,0.47905 0.55087,0.23719 0.55036,0.0672 1.36683,-0.16692 1.73427,-0.47904 1.18235,-0.43046 1.16221,-0.47646 0.97203,-0.55862 0.89142,-0.51108 -2.66496,0.69608 c 0,0 -2.47268,0.50973 -2.59829,0.56793 -0.12562,0.0582 -1.35857,0.17105 -1.35857,0.17105 l -0.7369,0.076 -0.47698,-0.33331 -0.14107,-0.43254 v -0.28835 -0.59325 l 0.0641,-0.39377 0.41031,-0.16123 2.4815,-0.0465 3.14761,-0.28784 2.43706,-0.16019 1.77767,-0.43667 0.99373,-0.59376 0.67283,-0.35605 0.8785,-1.19166 0.67903,-1.12448 0.39481,-0.99684 1.14256,0.0517 2.56522,-0.21446 2.07429,-0.32608 c 0,0 1.44388,-0.20402 1.65055,-0.31729 0.20667,-0.11326 1.23713,-0.64802 1.23713,-0.64802 l 1.57252,-0.75603 0.91312,-0.51883 v -0.41961 l 0.006,-0.43254 -0.5948,-1.23041 -0.6351,-1.38338 -0.6904,-0.90537 -0.33073,-0.21962 -0.55397,0.18913 -0.27181,0.41186 -0.39998,0.34727 -0.91674,0.56069 -1.60714,0.75654 -1.48776,0.44907 -1.0356,0.1819 -0.46509,0.28474 -0.447,-0.13126 0.0393,-0.22841 0.53898,-0.14521 c 0,0 2.199,-0.59518 2.36007,-0.60978 0.16106,-0.0146 0.81803,-0.23151 0.81803,-0.23151 l 1.03043,-0.6997 0.69815,-0.53485 0.48524,-0.5886 -0.35191,-0.8046 -0.72037,-0.95602 -1.41491,-1.64589 -1.45159,-1.96009 -0.74569,-0.66404 -0.0987,0.12557 -0.36225,0.53072 -0.65629,0.39119 -1.74305,0.50126 c 0,0 -2.21925,0.31031 -2.35386,0.29611 -0.13462,-0.0142 -2.34042,-0.0682 -2.34042,-0.0682 l -2.52026,-0.30179 -2.40813,-0.67283 -1.66294,-0.74259 c 0,0 -1.9667,-1.25183 -2.20297,-1.38286 -0.23626,-0.13103 -1.94871,-1.26142 -1.94871,-1.26142 l -1.97663,-1.62523 -0.66611,-0.79116 -0.97461,-1.3746 -0.78549,-1.39164 -1.13378,-1.23145 -1.16995,-1.10174 -1.2485,-0.98961 -1.04232,-0.81183 -0.4346,-0.5147 -0.71417,-0.27234 -1.35237,-0.12712 -0.90227,-0.0114 z m 34.76429,3.39049 1.34617,1.19993 1.19476,1.3348 1.33532,2.019 0.89297,1.64796 0.50643,1.94975 0.55138,1.71411 0.13695,1.26917 0.25941,1.09761 0.20774,0.77721 0.0785,0.25063 h 0.41703 l 0.66507,-0.0439 0.91571,-0.4191 0.54777,0.36535 0.47491,1.04593 -0.18914,1.58699 -0.004,1.59473 -0.10387,1.61799 0.25269,2.19367 0.25787,1.55804 0.16226,0.4253 c 0,0 0.13067,0.24829 0.29508,0.26355 0.16441,0.0153 0.47439,0.0305 0.47439,0.0305 l 0.78186,-0.31161 -0.27078,-0.93586 -0.64751,-2.22054 -0.65629,-2.29547 -0.22738,-1.51825 -0.002,-0.59583 -0.0889,-2.56315 0.86817,1.7632 0.69556,2.10788 0.4098,1.50637 0.15244,0.52452 0.34623,0.37258 0.72399,-0.30644 1.4335,-0.46302 0.52762,-0.3638 0.0848,-0.23771 0.0455,-0.47388 -0.70177,-1.89652 -1.53686,-3.82871 -1.14566,-2.62206 0.0692,0.52503 0.061,0.75706 -0.18965,0.3266 -0.41186,0.13384 -0.0636,-0.21291 0.12041,-0.82992 0.1571,-1.28158 -0.2527,-0.8971 -0.93534,-1.94923 -0.56948,-1.0263 -0.63355,-0.90382 -0.65267,-0.35088 -0.64338,-0.28009 0.30489,0.40928 0.22376,0.51108 0.14987,0.64285 0.0915,0.9307 v 0.69814 l 0.14315,0.87385 v 0.52659 l -0.12764,0.51004 -0.20206,-0.0217 -0.19017,-0.28732 -0.063,-0.88987 -0.11679,-1.60714 -0.14108,-1.19837 -0.25476,-0.74931 -0.36742,-0.70177 -0.38241,-0.35347 -0.78858,-0.57412 -0.98547,-0.57309 -1.04903,-0.41496 -1.01855,-0.3359 -1.31258,-0.24185 z m -36.24999,0.38602 -1.00355,0.12971 -0.87437,0.0625 v 0.26975 l 0.46767,0.2005 0.63666,0.2372 0.8723,0.8847 c 0,0 1.02083,1.04317 1.05781,1.1591 0.037,0.11593 0.68627,0.91778 0.68627,0.91778 l 0.66559,1.38544 0.31833,0.76326 0.20722,0.33021 0.16071,-0.10283 c 0,0 0.0768,-0.1449 0.21446,-0.1819 0.13764,-0.037 0.29042,0 0.29042,0 l 0.0103,0.1819 c 0,0 -0.12168,0.23791 -0.21962,0.26561 -0.0979,0.0277 -0.0547,0.18494 -0.032,0.26924 0.0227,0.0843 0.31936,0.0951 0.31936,0.0951 l 1.04851,0.0202 0.009,-0.94155 -0.13694,-1.17615 -0.34882,-1.06919 -0.7152,-1.44332 -0.41858,-0.70022 -0.92397,-0.77928 -0.99426,-0.56017 z m -4.19199,0.74518 -0.73019,0.33899 -0.94929,0.44235 -1.15704,0.6041 -0.67179,0.39068 0.22272,0.22996 1.01286,0.17053 1.19114,0.27647 1.50327,0.63768 1.02578,0.61754 0.81029,0.85886 0.95239,1.39061 0.2682,0.50643 h 0.44339 l 0.94568,0.55604 0.34468,0.41083 0.58187,1.03301 -0.0651,1.01286 -0.41031,0.6351 -0.65319,0.28939 -0.7121,0.1664 -0.55759,-0.0739 -0.6196,-0.63717 -0.26406,-0.7152 0.3023,-0.74828 0.50333,-0.40204 0.60513,-0.18552 0.45786,-0.009 0.44131,0.47645 0.154,0.46509 -0.69453,-0.6165 c 0,0 -0.36653,-0.0373 -0.45372,0.045 -0.0872,0.0823 -0.51263,0.28422 -0.51263,0.28422 l -0.22324,0.1726 -0.15969,0.22738 0.0672,0.48007 0.30386,0.39688 0.53124,0.39119 0.65835,-0.0129 0.71831,-0.40256 0.2036,-0.34623 0.0326,-0.39998 -0.28629,-0.88212 -0.42168,-0.62787 -0.35605,-0.22944 -0.89245,-0.2005 h -0.77101 l -0.0904,-0.20464 0.10077,-0.12558 0.25838,-0.21497 0.0212,-0.35192 -0.92036,-1.22886 -0.63768,-0.56999 -0.52917,-0.3297 -0.38706,-0.18397 0.51728,0.91571 0.69608,1.09192 0.30851,0.61805 0.0181,0.61237 -0.0139,0.69763 0.0357,0.99632 -0.40566,0.93018 -0.85731,1.31 -0.35192,0.70331 0.56173,0.28836 0.61805,0.56689 0.40824,0.45992 0.25218,0.73535 -0.0894,0.90382 -0.27492,1.04335 -0.59117,0.65681 -0.66198,0.5271 -1.01286,0.0114 -0.37879,-0.21394 -0.37517,-0.308 -0.27492,-0.57619 -0.22014,-0.62993 0.078,-0.56896 0.16227,-0.34933 0.36793,-0.34572 0.53951,-0.17932 0.59583,-0.0744 0.43718,0.0217 0.37,0.31936 0.19482,0.55191 v 0.23409 l -0.22479,-0.21135 -0.25528,-0.34004 -0.38241,-0.1757 h -0.49144 l -0.16485,0.0295 -0.30902,0.13023 -0.26924,0.27905 -0.22324,0.39842 0.0434,0.39171 0.20981,0.57206 0.23564,0.19223 0.41445,0.27286 0.51986,-0.0264 0.70538,-0.20619 0.4439,-0.55604 0.30696,-0.72915 0.0341,-0.91622 -0.10645,-0.80202 -0.6165,-0.54674 -0.29766,-0.2868 -0.6196,-0.0336 c 0,0 -0.22002,-0.007 -0.40204,0.10335 -0.18202,0.11014 -0.47594,0.60358 -0.47594,0.60358 0,0 -0.30922,0.35951 -0.42116,0.42943 -0.11195,0.0699 -0.71262,0.78445 -0.71262,0.78445 l -0.53227,0.57723 -0.31884,0.67076 c 0,0 -0.12149,0.44583 -0.15451,0.56689 -0.033,0.12106 -0.15968,0.88418 -0.15968,0.88418 0,0 -0.0626,0.22484 -0.16795,0.33021 -0.10536,0.10536 -0.46302,0.58033 -0.46302,0.58033 l -0.42272,0.0909 -1.09399,0.0269 -6.2053,-0.29507 -0.0672,0.13798 c 0.15705,0.16194 0.75706,0.63458 0.75706,0.63458 l 6.08335,0.045 -0.73536,0.65112 -0.5147,0.5762 -0.18655,0.74879 c 0,0 -0.0227,0.37691 -0.0563,0.52245 -0.0336,0.14554 -0.0672,0.6165 -0.0672,0.6165 h -0.20877 l -0.33486,-0.27337 -0.3297,-0.24702 -0.12867,-0.12867 -0.11162,-0.3483 -0.35554,-0.53692 -0.78496,-0.29094 -0.15968,0.045 c 0,0 -0.1447,0.0933 -0.17829,0.31678 -0.0336,0.22349 0.0899,0.91364 0.0899,0.91364 l 0.21498,0.86403 0.71003,1.13533 0.74052,-0.29869 c 0,0 0.0595,-0.13694 0.36174,-0.13694 0.30227,0 1.55598,0.10335 1.55598,0.10335 l 0.95756,-0.002 0.64131,-0.3917 0.70021,-0.6656 0.74259,-0.72708 0.61392,-0.35605 0.97565,-0.23255 1.27537,0.16485 c 0,0 0.40842,0.37741 0.6041,0.35502 0.19568,-0.0224 0.52038,0.10077 0.52038,0.10077 l 0.48008,0.0372 0.31212,-0.28215 0.7891,-1.76062 0.46664,-1.51412 c 0,0 0.28706,-0.0903 0.36432,-0.23926 0.0772,-0.14897 0.40514,-0.55345 0.40514,-0.55345 l 0.39894,-0.51263 c 0,0 0.28558,-0.70125 0.17674,-0.70125 -0.10885,0 -0.58653,-0.23565 -0.58653,-0.23565 l -0.42426,-0.55397 -0.11731,-0.78548 c 0,0 -0.11195,-0.36366 0,-0.58963 0.11195,-0.22598 0.65577,-0.68316 0.65577,-0.68316 l 0.48938,-0.0894 -0.0243,0.6382 -0.26717,0.15038 1.42214,-0.19947 0.94568,-0.55914 0.51056,-0.61391 0.53795,-1.06661 0.22479,-1.04231 0.19482,-1.15859 0.1571,-1.22266 0.0109,-0.54467 -0.63717,-0.16795 -0.98185,-0.13177 h -0.5116 c -0.0902,0 -0.26303,0.11162 -0.26303,0.11162 0,0 -0.13064,-0.0694 -0.29714,0.0336 -0.1665,0.10296 -0.31109,0.10283 -0.31109,0.10283 l -0.37879,-0.0527 0.0858,-0.54467 0.32814,-0.0558 0.42892,-0.0977 0.11317,-0.25012 -0.50384,-1.08624 -0.58963,-1.08882 -0.93173,-1.25935 -1.23041,-1.33222 -0.71779,-0.52917 -0.72502,-0.33693 -0.90072,-0.0672 z m 39.56193,0.43666 v 0.28009 l 0.01,0.32763 0.0413,0.65164 h 1.08779 l 0.26923,-0.15917 0.0501,-0.13177 -0.28112,-0.20671 -0.55397,-0.3514 -0.25528,-0.34623 z m -27.50375,2.00763 c -0.0992,0.0259 -0.6413,0.0326 -0.6413,0.0326 l -0.32195,0.21394 -0.0708,0.001 -0.27698,0.28577 0.0956,0.38448 0.23926,0.24443 0.32298,0.0584 0.46405,-0.30851 0.41548,-0.41496 0.11627,-0.39274 c 0,0 -0.24337,-0.13026 -0.34261,-0.10439 z m 29.14758,0.0377 c -0.0628,-0.006 -0.13613,-0.004 -0.18035,0.0289 -0.0885,0.0657 -0.68213,0.22583 -0.68213,0.22583 l -0.83251,0.009 v 0.28628 h 0.60151 l 0.90796,-0.0155 0.478,-0.25063 v -0.1602 l -0.17776,-0.10283 c 0,0 -0.052,-0.0144 -0.11472,-0.0207 z m -44.93369,0.14211 -1.06919,0.27802 -0.43408,0.34726 -0.26975,0.49764 -0.70797,1.46193 -0.72554,1.39837 -1.35392,3.21737 -1.00717,2.44688 -1.07436,2.6417 -0.65732,1.53169 0.10904,0.33228 h 0.76119 c 0.11812,0 2.51612,0.13901 2.51612,0.13901 l 2.58589,0.0873 0.65681,-0.14779 c 0,0 0.40762,-0.41155 0.55966,-0.55553 l 1.04283,-1.95853 0.85473,-1.2821 1.25108,-1.13533 0.80925,-0.92397 0.76585,-1.12396 0.85524,-1.39733 -0.092,-0.98806 -0.15916,-1.0666 -0.74672,-1.19114 -0.81752,-1.28933 -0.84905,-0.78755 -1.44901,-0.39119 z m 17.43407,0.77928 0.0651,0.46457 0.11731,0.35605 0.26458,0.18035 0.22169,0.26252 0.14108,-0.10646 -0.0129,-0.31161 -0.24856,-0.25166 -0.1571,-0.33331 -0.0878,-0.14418 z m 25.29407,2.33991 c 0,0 -0.2114,0.0187 -0.2279,0.11575 -0.0165,0.0971 -0.11472,0.62735 -0.11472,0.62735 l -0.23358,0.42323 0.15865,0.4899 0.12247,0.16226 0.38809,0.69091 0.7984,0.8661 1.45831,1.61489 0.76688,0.85783 0.91571,1.15858 0.45165,0.76326 c 0,0 0.19925,0.0725 0.33538,0.0889 0.13612,0.0164 0.28835,0.0873 0.28835,0.0873 l 0.82734,0.98495 0.63046,0.83509 0.70021,1.11363 0.31368,0.54209 0.3421,0.71158 0.42219,0.75861 0.28319,0.90331 -0.0599,0.95394 -0.1633,0.86093 -0.19276,0.80667 -0.40307,1.02474 -0.6072,1.16944 -0.55862,0.95653 -0.69608,0.95808 -0.68988,0.7519 -0.54984,0.46974 -0.55397,0.25889 c 0,0 -0.40879,0.14809 -0.43719,0.21239 -0.0284,0.0642 -0.54354,0.0636 -0.65267,0.0636 -0.10913,0 -0.2026,-1e-5 -0.293,0.0103 -0.0905,0.0105 -0.0857,0.0379 -0.1447,0.078 -0.059,0.0401 -0.0842,0.095 -0.16019,0.17105 -0.076,0.0765 -0.046,0.0822 -0.046,0.0822 v 0.16536 c 0,0 0.0387,0.0979 0.0832,0.14366 0.0445,0.0458 0.12535,0.0599 0.17415,0.0708 0.0489,0.0109 0.0781,0.0163 0.12506,0.0491 0.0469,0.0328 0.0915,0.10852 0.0915,0.10852 l -0.0186,0.20981 -0.0656,0.43511 -0.15399,0.33073 -0.42995,0.73433 -0.67179,1.002 -0.31626,0.72657 -0.22945,0.73639 -0.67334,2.06758 -0.42116,1.5043 -0.43099,1.42627 -0.21807,1.00459 0.19172,-0.33177 0.33848,-0.75034 0.45785,-1.28571 0.5824,-1.33842 0.38034,-1.0883 0.58652,-1.49087 0.36639,-1.08469 0.54932,-1.04128 0.51986,-1.27951 -0.0248,-0.64905 0.10594,-0.19275 0.19998,0.18293 1.07487,-0.14004 c 0,0 0.74836,-0.52934 0.82786,-0.56844 0.0795,-0.0391 0.7059,-0.57206 0.7059,-0.57206 l 0.8785,-1.02165 0.42271,-0.62631 0.59015,-0.82476 0.51831,-1.15393 0.32711,-1.09864 0.21705,-1.23249 0.11162,-1.28622 -0.0708,-1.00098 -0.18965,-0.84491 -0.36897,-0.9927 -0.0331,-0.54415 -0.37878,-0.76585 -0.59842,-0.86454 -0.94774,-1.30639 -1.16892,-1.38337 -0.9772,-1.17719 -1.36375,-1.89291 -1.33842,-1.59267 -0.92552,-1.0051 z m -23.2699,0.53071 -0.44442,0.44184 -0.37827,0.4501 -0.6196,0.17518 -0.58343,0.0439 0.0837,2.72696 -0.16226,2.71508 -0.38241,1.86294 -1.00252,2.38538 -1.00252,1.76062 -0.50798,0.92552 1.56786,-1.5012 1.09451,-1.37924 1.13843,-2.32596 0.99632,-2.67064 0.29817,-1.99316 0.093,-2.33784 z m 27.40143,0.64544 c 0,0 -0.39457,0.40241 -0.46147,0.50798 -0.0669,0.10557 -0.0109,0.77411 -0.0109,0.77411 l 0.38396,0.73071 0.65526,0.43821 0.57774,-0.2806 0.24546,-0.39842 -0.0625,-0.64493 -0.26768,-0.48524 -0.52141,-0.64182 z m -33.26671,3.99304 -0.13436,0.0512 c 0,0 -0.0268,0.19994 -0.0894,0.27543 -0.0626,0.0755 -0.20308,0.2403 -0.20308,0.2403 l -0.0847,0.25063 c 0,0 0.0516,0.12039 0.1018,0.18242 0.0502,0.062 1.07538,0.95653 1.07538,0.95653 l 0.53537,0.29094 c 0,0 0.044,0.0306 0.091,0.0904 0.047,0.0597 0.0661,0.0678 0.0884,0.15761 0.0223,0.0898 0.0253,0.16847 0.0253,0.16847 0,0 -0.0217,0.0484 0.0388,0.0548 0.0605,0.006 0.25831,-0.0199 0.29507,-0.0625 0.0368,-0.0427 0.22066,-0.18862 0.22066,-0.18862 0,0 0.0534,-0.10366 0.0853,-0.15968 0.0319,-0.056 0.0249,-0.0718 0.0661,-0.11937 0.0413,-0.0476 0.0946,-0.29301 0.0946,-0.29301 0,0 -0.13409,-0.20139 -0.14262,-0.23668 -0.008,-0.0353 -0.22996,-0.34106 -0.22996,-0.34106 l -0.81753,-0.58446 c 0,0 -0.5269,-0.40437 -0.5519,-0.41393 -0.025,-0.01 -0.14488,-0.10675 -0.19327,-0.15038 -0.0484,-0.0436 -0.0616,-0.0435 -0.10749,-0.0692 -0.0459,-0.0257 -0.16329,-0.0997 -0.16329,-0.0997 z m -10.26449,12.45092 c 0,0 -0.0671,0.21515 -0.31574,0.51366 -0.2486,0.29851 -0.59376,0.94671 -0.59376,0.94671 l -0.34313,0.45476 -0.14831,0.43925 -0.29456,1.26297 -0.32918,1.76165 -0.18552,0.0605 v -1.11414 l 0.14935,-1.99678 0.27595,-1.09813 0.21807,-0.33744 0.0212,-0.41755 -0.33899,-0.46095 -0.79169,0.27492 -0.96324,0.73949 -0.98547,0.3948 -1.11673,0.12816 -1.47691,-0.17156 h -0.51574 l -0.2036,0.27026 v 0.16175 l -0.67076,1.97662 -0.54312,1.71101 0.0346,0.65629 -0.41806,0.10387 -0.24753,0.21859 -0.007,0.26097 0.30489,0.37879 1.73581,0.0119 2.11253,0.0465 1.98024,-0.0496 1.40819,-0.7431 0.98236,-1.54926 0.89556,-1.66244 0.32091,-0.51831 h 0.35708 l 0.49661,-0.40979 0.78703,-1.13172 V 236.355 l -1.00045,-0.24133 z m 52.36683,0.59945 -0.0899,0.26199 0.3483,1.26556 0.41186,1.28054 0.43511,1.35134 0.42117,0.59945 0.0398,0.51004 c 0,0 -0.31977,0.20342 -0.46664,0.23772 -0.14688,0.0343 -0.97204,0.57826 -0.97204,0.57826 l -1.2547,0.54156 -0.31264,0.15348 -0.0114,0.20619 0.29145,0.10697 h 0.25994 l 1.43557,-0.68936 1.21078,-0.69815 0.5519,-0.33176 0.0791,-0.34882 -0.31936,-0.56172 -0.27441,-1.01441 -0.67489,-1.29863 -0.88987,-1.76992 z m -2.70267,0.56068 -0.20723,0.37156 0.47491,0.50333 0.65887,0.14986 0.22583,-0.28577 -0.31213,-0.37466 -0.49144,-0.36432 z m -15.67037,2.87011 -1.30741,0.0698 -1.11983,0.23254 -1.81487,0.81804 -1.35858,0.68781 -1.41748,0.89452 -2.93522,1.18236 c 0,0 -1.3348,0.36718 -1.48828,0.45888 -0.15349,0.0917 -1.01596,-0.12609 -1.01596,-0.12609 l -0.24236,0.31885 0.28318,0.24133 0.47853,0.12609 0.17776,0.016 0.49041,0.12247 c 0,0 0.24518,0.1848 0.34158,0.2558 0.0964,0.071 0.44545,0.32969 0.44545,0.32969 l 0.45476,0.53589 0.87281,0.96015 1.16065,1.36477 1.94304,2.41949 1.68878,2.35386 1.15704,1.90686 0.42995,0.21756 0.13177,0.54467 5.01727,-0.0713 0.53433,-1.3069 -0.0527,-0.47077 -0.0341,0.0754 -2.37866,-13.91388 0.14107,-0.0481 z m 0.58291,0.19586 0.28681,0.0961 1.71462,1.46554 c 0,0 1.20165,1.02347 1.03715,1.17977 -0.16451,0.15631 -0.38447,0.95395 -0.38447,0.95395 l -0.32918,1.12034 -0.44597,1.16066 v 1.77612 l 0.0367,2.16834 0.15555,2.17403 0.2005,1.79162 1.04283,-2.29857 -0.0362,-1.12396 0.0672,-1.3963 0.5364,-1.84588 0.57567,-2.0836 0.4098,-1.8557 0.15968,-0.58446 c 0,0 -0.0172,-0.4022 -0.10542,-0.48524 -0.0882,-0.0831 -1.05834,-1.2361 -1.05834,-1.2361 l -1.20871,-0.82682 -1.28519,-0.21239 -1.17719,-0.004 z m -34.5767,0.72553 c 0,0 0.0142,0.41096 -0.25683,0.91726 -0.27104,0.5063 -0.72864,1.27176 -0.72864,1.27176 0,0 -0.18794,0.0555 -0.62786,0.43356 -0.43993,0.37807 -1.28158,1.12552 -1.28158,1.12552 0,0 -0.88409,0.23616 -1.24178,0.23616 -0.3577,0 -0.9961,0.19017 -1.29812,0.19017 -0.30201,0 -1.06401,-0.19327 -1.06401,-0.19327 l 0.93327,0.7338 1.59577,0.0424 h 1.41387 l 0.94619,0.23409 h 1.02836 l 0.62064,-1.63452 c 0,0 0.21394,-0.65797 0.21394,-1.10691 v -1.67122 z m 47.87202,0.17622 -0.0956,0.0625 0.4408,1.26556 0.77101,1.68568 0.54829,1.23352 0.14211,0.47749 c 0,0 -0.0737,0.0419 0.0444,0.10542 0.11811,0.0635 0.61753,-0.0853 0.61753,-0.0853 l 1.3963,-0.27182 0.74621,-0.12712 1.15031,-0.40101 c 0,0 0.38636,-0.14092 0.39843,-0.1881 0.0121,-0.0472 0.0357,-0.23255 0.0357,-0.23255 l -0.1204,-0.41754 -0.20671,-0.63097 -0.21497,10e-4 -0.92449,0.32246 -1.48363,0.53899 c 0,0 -0.55589,0.26917 -0.72399,0.32349 -0.16809,0.0543 -0.60151,0.24702 -0.60151,0.24702 0,0 0.0665,-0.0956 0.003,-0.0956 -0.0633,0 -0.15607,-0.13642 -0.15607,-0.13642 0,0 -0.17156,-0.48394 -0.17156,-0.53434 0,-0.0504 -0.0181,-0.39894 -0.0181,-0.39894 l 0.0486,-0.33538 c 0,0 0.0238,-0.17959 -0.0785,-0.24598 -0.10249,-0.0664 -0.43408,-0.41237 -0.43408,-0.41237 l -0.46871,-0.84233 -0.41031,-0.66921 -0.11989,-0.21446 z m -35.31981,0.31729 -0.17777,0.031 0.0145,0.15038 c 0.15159,0.11026 1.28468,1.6707 1.28468,1.6707 l 1.02423,1.0914 1.17615,0.97514 c 0,0 0.50597,0.21615 0.5519,0.39739 0.0459,0.18125 1.19166,2.14199 1.19166,2.14199 l 0.22531,0.31471 h 0.24237 l 0.0408,-0.50488 -0.34468,-1.06144 -0.45165,-0.42684 -0.13487,-0.30076 c 0,0 0.12098,-0.15095 0.24598,-0.27595 0.12499,-0.12499 0.50746,-0.25167 0.50746,-0.25167 l 0.66094,-0.42168 0.55552,-0.42684 0.43563,-0.52245 0.59428,-0.49041 -0.0109,-0.49403 -0.45217,0.0853 -0.38654,0.51056 -0.83767,0.97152 -0.63304,0.47542 -0.61236,0.0754 -0.54467,-0.27078 -1.43609,-0.98341 -0.9741,-0.88625 -1.06815,-0.94103 -0.41703,-0.43821 z m -19.86907,3.46543 -0.26355,0.28783 -0.16123,1.21905 -0.1912,0.9033 0.24442,0.60514 0.24082,0.45268 0.98082,0.416 0.99735,-0.26355 0.83716,-0.46044 0.29869,-0.50023 0.54673,-0.0305 1.3808,0.37879 1.31465,0.64182 0.68678,-0.2005 0.24546,-0.15658 0.17105,-0.29456 v -0.33279 l -1.16996,-0.24133 -0.82682,-0.46147 -0.4532,-0.26149 -1.65055,-0.51314 -0.78858,0.0594 -0.7922,-0.0558 -0.87075,-0.26406 -0.64802,-0.44752 z m 61.07276,0.4718 -0.80822,0.26355 -1.25419,0.39274 -0.68988,0.31833 -0.54002,0.16381 -0.14831,0.47646 0.12764,0.39791 c 0,0 0.42135,0.16175 0.62994,0.16175 0.20859,0 1.07083,-0.44512 1.20716,-0.49196 0.13633,-0.0468 1.22318,-0.64389 1.22318,-0.64389 l 0.54415,-0.85421 c 0,0 0.0779,-0.0911 -0.0315,-0.13798 -0.10949,-0.0468 -0.25993,-0.0465 -0.25993,-0.0465 z m 1.01699,2.11357 c 0,0 -0.0836,0.14874 -0.10801,0.20619 -0.0244,0.0575 -0.056,0.12918 -0.0899,0.28938 -0.0339,0.1602 -0.1099,0.43876 -0.12454,0.48215 -0.0146,0.0434 -0.1043,0.28185 -0.13178,0.34054 -0.0275,0.0587 -0.12454,0.32815 -0.12454,0.32815 0,0 -0.0332,0.0539 -0.10387,0.0977 -0.0707,0.0438 -0.23099,0.19223 -0.23099,0.19223 l 0.0599,0.308 c -0.004,-0.003 -0.0143,-0.0278 -0.0176,-0.0269 -0.0878,0.0251 -0.41754,0.2465 -0.41754,0.2465 l -0.46096,0.41341 -0.23667,0.1509 -0.22428,0.15399 -0.0863,0.4222 0.22376,0.601 0.29714,0.3793 0.21911,0.31109 0.13281,0.48214 0.2899,0.80461 c 0,0 0.32981,0.71396 0.38447,0.79323 0.0546,0.0792 0.40721,0.64182 0.40721,0.64182 l 0.18811,-0.092 -0.0687,0.92449 3.5357,-0.0703 -0.63459,-1.65365 -0.61081,-2.02003 -1.02475,-2.82412 -0.26458,-0.68213 c 0,0 -0.22687,-0.11553 -0.27544,-0.16898 -0.0486,-0.0535 -0.16743,-0.23357 -0.16743,-0.23357 0,0 -0.0526,-0.12096 -0.077,-0.2279 -0.0244,-0.10693 -0.0341,-0.27647 -0.0341,-0.27647 l -0.0589,-0.2899 z m -13.58522,0.46043 -0.35708,0.98754 -0.42065,0.98392 -0.17622,0.45475 -0.20774,0.96325 c 0,0 -0.332,1.32073 -0.31936,1.42369 0.0126,0.10296 -0.40824,1.02474 -0.40824,1.02474 l -0.0377,0.2837 0.24856,0.7798 0.26045,0.46509 -0.10129,-1.31258 0.1726,-0.75913 0.26407,-1.32602 0.31368,-1.12706 0.33848,-0.45578 0.36638,1.07848 0.35657,0.60203 -0.076,1.17564 0.21911,1.00252 0.17725,-1.43557 5.2e-4,-0.66921 0.13591,-0.14417 -0.38086,-0.46923 -0.29248,-0.53433 -0.17674,-0.6103 v -0.51573 -0.85059 z m -49.40112,0.64286 -0.38809,2.7218 -0.34261,2.33836 -0.88005,2.60242 5.62084,0.24546 -0.66094,-2.96881 -0.57774,-1.80454 -1.32343,-1.75906 z m 33.77985,1.45417 v 5.2e-4 c -0.0981,-0.0135 -0.2155,0.009 -0.32453,0.009 -0.21807,0 -0.26613,0.063 -0.26613,0.063 l -0.49351,0.39016 c 0,0 -0.1912,0.59035 -0.1912,0.70797 0,0.11762 0.17983,0.51263 0.17983,0.51263 l 0.27337,0.13901 0.35398,-0.0496 c 0,0 0.30275,-0.24214 0.5302,-0.39378 0.2273,-0.15162 0.22221,-0.23719 0.22221,-0.23719 v -0.32298 c 0,0 -0.0123,-0.31966 -0.0755,-0.6103 -0.0316,-0.14533 -0.11064,-0.1948 -0.20877,-0.20826 z m 51.80873,-126.14834 -0.89659,0.0408 -8.30234,12.43748 -0.15554,0.73742 0.13126,24.18613 3.0055,-2.55954 -0.10129,-14.5712 5.76657,-6.55412 -0.0269,2.94762 -5.29528,5.84202 0.0227,4.21422 5.2405,-5.0581 0.062,1.79628 -5.27617,5.11752 0.0827,1.33893 5.21054,-4.77903 0.0465,2.43654 -5.44308,5.08961 0.0419,1.89808 5.87612,-5.00383 z m -0.4961,4.12998 0.0801,1.07797 -8.43669,11.08924 -0.11834,-0.72502 -0.0786,-0.2837 z m -114.27468,0.58601 0.15348,58.71786 12.40958,2.94918 0.0109,6.1619 0.24029,0.0207 0.003,-6.37946 0.30645,-39.62755 9.00307,-0.0398 0.21445,0.005 c 0,0 0.16251,0.0563 0.20309,0.0703 0.0406,0.0139 0.076,0.0331 0.076,0.0331 0,0 0.076,0.10226 0.10232,0.15709 0.0263,0.0548 0.0103,0.24437 0.0103,0.26562 0,0.0213 0.008,0.27595 0.008,0.27595 l 0.15761,57.78976 0.16175,-20.28507 0.0248,-1.11776 0.14779,-0.23099 0.39016,-0.0816 0.73381,0.0739 4.87722,1.19734 0.98495,0.20515 0.46199,0.56018 -0.0574,6.06061 -0.0512,0.35657 -0.0879,0.3147 c 0,0 -0.0567,0.0377 -0.0961,0.0377 h -0.15296 l -6.59237,-0.46716 0.0289,1.47795 c 0,0 6.35859,0.2702 6.84971,0.25786 l -5.1e-4,-0.0754 0.40721,0.009 v 0.0496 c -0.0415,10e-4 -0.1054,2.7e-4 -0.20516,0.0243 -0.004,8.8e-4 -0.18708,-0.008 -0.20154,-0.008 l 0.0424,5.41156 -2.78432,0.14573 0.002,0.15709 -0.231,-0.031 5.2e-4,-0.11421 -1.11104,0.0584 5.1e-4,-3.31918 -0.0543,-0.0377 h -0.0548 -0.0646 l -0.009,3.3662 0.18191,-0.009 v 0.16588 l -0.18191,-0.0796 v -0.0775 l -1.38854,0.0729 0.0594,3.59617 0.30541,0.26923 6.68124,-1.02733 0.10181,-0.51211 -0.0165,-2.2965 -0.1478,-0.39533 -0.92294,0.0486 -0.002,-5.40845 c 0.0119,-3.4e-4 0.0589,-0.007 0.0589,-0.007 l 0.15296,-0.0455 0.0191,-37.69021 0.12454,-0.10026 0.0532,0.0341 0.4501,0.70487 0.0677,0.16898 -0.0176,5.01933 0.0341,0.077 0.0263,0.0579 c 0,0 0.20597,0.0207 0.22997,0.0238 0.024,0.003 0.10283,-0.059 0.13539,-0.11885 0.0326,-0.0599 0.003,-2.6479 0.003,-2.6479 l 0.10283,-0.0755 0.11524,0.0413 0.40721,0.48317 -0.0749,20.63854 -0.0904,0.11317 -0.83096,0.63923 -0.0341,6.11384 0.0227,0.11214 0.0724,0.0186 3.98116,0.10852 3.74809,1.69395 0.24288,-0.0615 -0.0703,-0.21342 -0.17519,-0.13694 -3.59409,-1.69706 -3.58841,-0.061 h -0.26769 v -0.18811 l -0.0424,-5.22397 0.19121,-0.31419 0.632,-0.44183 0.13074,-0.16537 0.0811,-9.54412 0.0631,-0.0879 5.01106,0.0434 h 0.18449 l 0.0992,0.0429 0.72967,0.58601 0.18345,0.1509 0.0517,0.13384 v 0.18913 l 0.0413,15.34739 0.27234,-0.13694 0.017,-0.29404 0.007,-14.2012 c 0,0 0.0376,-0.18164 0.0558,-0.22221 0.0182,-0.0405 0.0677,-0.0336 0.0677,-0.0336 0,0 0.12486,10e-5 0.16278,0.008 0.038,0.008 0.0455,0.0274 0.0455,0.0274 l 0.0537,0.0646 2.05103,1.93166 0.28681,0.32143 0.0636,0.20619 -0.0129,8.05687 -0.0227,0.0961 -0.0599,0.0233 -2.22777,-1.36891 -0.0703,0.0537 c 0,0 -0.007,0.22912 -0.007,0.30282 0,0.0737 0.0182,0.23332 0.0444,0.28732 0.0263,0.0541 0.0377,0.11989 0.0377,0.11989 l 1.68568,0.92501 c 0,0 0.4998,0.25705 0.53227,0.27905 0.0325,0.022 0.0992,0.10542 0.0992,0.10542 0,0 -0.0222,1.68429 -0.0222,1.71669 0,0.0324 -0.0264,0.19947 -0.0264,0.19947 l -0.0811,0.0739 h -0.0832 l -2.09083,-0.9493 -0.0563,0.0336 -0.0233,2.08101 0.31161,0.0899 0.008,-1.16117 0.13798,-0.27492 0.14263,0.0109 1.24591,0.49351 0.4346,0.16382 0.14211,0.16381 -0.0491,1.99006 -0.0295,0.0274 -0.0744,0.0408 c 0,0 -1.80844,-0.55088 -1.86138,-0.55088 -0.0529,0 -0.13843,0.0365 -0.17002,0.0444 -0.0316,0.008 -0.0186,0.10748 -0.0186,0.10748 l 0.0532,0.14315 c 0,0 1.74994,0.61095 1.79162,0.61495 0.0417,0.004 0.24598,0.0563 0.24598,0.0563 l 0.0574,0.10801 -0.0238,2.11615 v 0.03 l -0.0548,0.0532 -0.14469,0.005 -1.56683,-0.58446 -0.18087,0.0517 v 0.17312 l 1.91978,0.91209 0.0233,2.28978 -0.0703,0.42271 -1.92339,-0.0703 0.0667,-0.25166 0.32659,-0.15503 -0.0284,-2.37919 -0.50178,-0.32297 -0.18552,4.8028 0.0868,0.27492 2.17558,0.0801 0.14314,0.28526 -0.007,2.497 -0.11782,0.20516 -2.13268,0.10025 -0.16795,0.16071 -0.0599,2.32234 0.11265,0.0346 0.38964,-0.009 0.0217,-0.86506 0.34727,-0.19844 1.1653,-0.0155 0.36329,0.0832 0.0279,0.18242 -0.0362,1.19062 -0.0987,0.14676 -2.51096,0.41083 -0.009,0.24546 0.11162,0.1602 2.40502,-0.57774 0.17518,-0.13281 0.41858,-0.46716 -0.11214,-27.76006 -4.44985,-4.05091 0.0574,-2.58899 -0.36484,0.0207 -0.0692,2.33422 -0.10697,0.19327 -4.79505,-0.0331 -0.10387,-11.00656 -0.93173,-0.99942 -0.005,-1.67225 -0.80047,-1.34721 0.12144,-1.29449 -1.43454,-1.54099 0.18862,-2.56057 -4.5377,-3.9827 0.0636,-1.9234 -1.52343,-2.10581 -6.4394,-0.0605 -1.00045,0.69298 -0.11783,1.00717 -1.61799,0.0718 -0.0548,2.54041 -1.95337,0.0982 0.0481,-6.18412 z m 27.55078,74.32776 0.22841,-0.0119 -0.0532,-3.76256 h -0.0909 l -0.0651,0.0734 z m -14.73657,-6.47815 v 0.10438 l -0.2403,-0.0326 v -0.0925 l -15.65072,-1.35341 0.0863,3.27732 17.79374,0.79943 0.009,-0.74672 -0.185,-1.17357 -0.48059,-0.66715 z m -12.10159,-65.86989 11.60653,13.49375 0.20825,0.5054 -0.48111,41.81295 -2.02933,-0.57981 v 0.0847 l -0.41341,-0.15038 -5.2e-4,-0.0522 -1.76216,-0.50384 -5.2e-4,0.0444 -0.42013,-0.032 5.2e-4,-0.13229 -2.29702,-0.65629 -0.29972,-0.0713 v -0.014 l -2.28617,-0.65319 0.0424,-18.15755 -0.0165,-0.0124 2.1916,1.20716 -5.2e-4,-0.12144 0.48834,0.28422 v 0.10594 l 2.25723,1.24334 5.2e-4,-0.10439 0.47697,0.23203 -0.001,0.13487 1.54358,0.85008 -5.2e-4,-0.11731 0.47801,0.19482 v 0.18552 l 1.51256,0.83303 0.0243,-8.66407 -1.56217,-1.25109 0.0718,-3.13159 -0.009,-0.007 0.003,0.13436 -0.47439,-0.34675 -0.002,-0.16795 -3.93465,-3.1595 -0.0775,-7.38094 3.92999,3.68814 -5.1e-4,-0.0403 0.39894,0.15297 0.004,0.16123 0.15555,-0.0139 0.46715,-0.20206 0.72605,-0.71727 -10.15752,-10.0645 0.0165,-4.5005 2.7373,3.17965 0.50127,0.12712 -0.004,0.4501 7.75353,9.00566 -0.10439,-3.30342 -11.48767,-13.44569 z m 3.61166,8.09977 -0.49764,-0.57723 -0.0765,-0.0196 -0.0372,3.09335 0.59015,0.0568 z m 5.55729,11.7414 -0.10077,0.009 -0.30128,-0.28267 0.0822,6.8523 0.47335,0.38034 z m 0.11627,19.17971 -0.47749,-0.26303 0.0827,16.35662 0.41393,0.11782 z m -2.02106,-1.11311 -0.47646,-0.26252 -0.0796,16.84549 0.42013,0.11989 z m -2.73369,-1.50585 -0.48782,-0.26872 0.0687,17.61598 0.29972,0.0853 0.12506,0.03 z m 122.27006,-35.13998 -7.71374,9.06715 -0.15658,0.23306 0.0729,27.5053 -5.29838,0.008 -0.27957,0.13126 0.32608,0.0724 0.33124,-0.0739 4.92115,0.0279 0.0806,30.35163 0.27957,0.55449 0.51211,0.3421 6.97993,-0.59222 0.0274,-2.80034 -6.30349,0.84026 -0.29042,-0.2217 -0.24081,-56.37485 0.0362,-0.29972 6.75618,-8.21914 z m -13.04933,37.01687 -0.0129,0.003 -0.31833,-0.0729 0.005,-0.003 -0.10542,-0.0232 -10.64276,6.8094 0.0207,22.82496 0.5147,0.57981 9.95288,-0.95343 0.94774,-0.50488 -0.0811,-28.59773 z m 13.08395,-35.40095 -0.0532,0.0997 -6.55257,7.44864 c 0,0 -0.0479,0.11527 -0.0496,0.13333 -0.002,0.0181 0.13125,0.0765 0.13125,0.0765 l 0.48731,0.005 6.04873,-6.60373 z m -125.53342,3.20032 -0.18449,1.68466 1.50327,1.47433 0.14159,-1.60973 z m 105.91498,3.63544 v 0.60772 l -2.05465,2.11925 -0.0367,-0.42995 z m 0.16537,0.90847 0.0408,1.05214 -2.29081,2.53524 -0.0615,-1.25005 z m -101.87699,0.28371 -0.0264,2.33112 0.93638,0.66146 0.0796,-1.95544 z m 115.61775,0.68781 c -0.0142,-0.002 -0.0579,0.0155 -0.0579,0.0155 l -0.0713,0.0455 -0.0109,0.10025 0.0134,0.20929 0.21498,16.15457 c 0,0 0.0413,-16.33598 0.0413,-16.34939 0,-0.0134 -0.0341,-0.12299 -0.0341,-0.12299 0,0 -0.0813,-0.0501 -0.0956,-0.0527 z m -120.59264,0.30024 0.39636,0.31574 3.46077,3.24735 -0.047,7.34219 -3.95273,-3.17448 -0.0455,-7.552 z m 6.19032,0.30592 -0.10439,1.85674 0.54054,0.48782 0.0677,-1.69498 z m 58.95919,1.70533 -1.20923,1.88826 2.46962,0.0543 z m 41.50651,0.0465 0.0631,1.44229 -2.02778,2.46755 -0.0543,-1.83038 z m -105.99301,1.69447 -0.12093,3.0701 0.79789,0.54622 0.13126,-2.94039 z m 15.57941,0.12609 6.27145,0.0553 0.65474,0.8785 -0.0253,4.11913 -1.53634,-1.43506 -7.41143,-0.0341 0.002,-2.19883 1.788,0.0119 -0.0574,-1.13585 z m -14.34176,0.8878 -0.0713,3.09697 1.50895,1.18081 0.10232,-2.80035 z m 21.89065,0.37827 0.19431,0.31626 -0.0326,2.18282 0.5519,0.13952 0.0134,0.40928 -0.81028,0.61547 -0.062,-3.60547 z m 82.89365,0.99219 -0.0145,2.22054 -1.93786,2.13527 -0.0331,-2.43603 z m -40.07765,0.40979 -2.90474,0.009 -0.001,0.21756 2.77089,0.0398 0.13488,-0.11627 z m -61.61485,0.92811 0.004,3.37292 2.82308,2.18075 0.12351,-2.42207 z m 61.58126,0.11473 -2.91094,0.0217 0.0594,0.22065 2.80603,-0.001 0.0915,-0.017 c 0,0 0.0313,0.0477 0.0367,-0.0827 0.005,-0.13041 -0.0827,-0.14159 -0.0827,-0.14159 z m -0.19172,0.84646 -1.57252,0.0134 -0.20257,0.0186 v 0.0868 l -0.0165,0.20205 0.10491,0.0501 1.65106,10e-4 0.0847,-0.0698 z m -2.11874,0.0196 c 0,0 -0.54521,0.0125 -0.60151,0.0331 l 0.061,0.32762 0.5488,-0.0134 z m -39.23895,0.0351 0.231,0.15709 c 0,0 2.96939,2.89227 3.04839,2.92592 0.079,0.0336 0.0951,0.38241 0.0951,0.38241 l -0.0801,2.04742 0.13074,0.3023 0.35967,0.27906 0.97203,0.62166 0.0444,0.59532 -0.31419,0.18758 c 0,0 -0.28832,0.23776 -0.26768,0.30334 0.002,0.008 -0.017,2.59574 -0.0196,3.26337 l 0.0341,0.0269 0.0243,0.55035 -0.0615,-0.0599 c -0.004,0.85141 -0.0141,2.25036 -0.0222,3.67265 l -3.52175,-1.85932 3.51916,2.25774 c -0.0103,1.77762 -0.0132,2.26354 -0.0269,4.44263 l -3.16053,-1.58389 3.15795,1.97818 c -0.0129,2.04224 -0.0118,2.14068 -0.0248,4.13566 l 0.006,0.0248 -0.006,-0.002 c -0.013,1.98754 -0.0147,2.53032 -0.0253,4.12275 l -2.96003,-0.66404 2.95796,1.00924 c -0.0177,2.6624 -0.0429,7.11067 -0.0429,7.11067 l -0.0574,0.10956 -0.24908,-0.002 -6.70398,-1.57923 -0.13126,-0.29146 c 0,0 -0.0925,-34.07113 -0.0842,-34.13383 l 0.0568,-0.12609 0.14676,0.0537 0.19069,0.11834 0.2527,0.3421 0.65629,0.5674 h 0.36897 z m 4.11758,24.64914 c 7e-5,-0.011 -7e-5,-0.0118 0,-0.0227 l -0.0817,-0.34934 -2.98224,-0.63562 z m 0.0791,-13.06639 c 5.3e-4,-0.11992 0.003,-0.41145 0.003,-0.51728 l -2.91455,-2.3027 z m -9.72809,-11.17141 -0.12195,12.93719 0.0217,8.03724 0.0346,23.6492 0.14159,-4.83382 0.0227,-7.20266 0.008,-10.10584 -0.0248,-11.37036 0.0377,-10.06812 z m 44.36577,0.31523 -0.0558,0.15451 0.12867,0.11472 2.59106,0.005 0.10232,-0.12196 c 0,0 -0.0316,-0.14986 -0.0966,-0.14986 -0.065,0 -2.6696,-0.002 -2.6696,-0.002 z m -38.75732,0.24236 0.12557,2.49855 2.79156,2.22933 0.0646,-1.82418 z m 9.46557,0.33745 0.0295,14.92518 0.36742,-3.27525 -0.0537,-8.51679 z m 29.45969,0.14417 -0.0315,0.12403 0.0429,0.12867 0.17674,0.0439 1.9606,0.0269 0.34055,-0.0496 0.045,-0.13539 -0.20154,-0.12454 z m 34.06304,0.51728 -2.11977,2.90319 -5.1e-4,0.0233 -6.60425,0.017 -0.30799,0.17104 -1.68775,2.00402 c 0,0 -0.0739,0.12841 -0.0739,0.18603 0,0.0576 0.0227,0.30128 0.0227,0.30128 0,0 0.0749,2.01068 0.0367,2.08514 -0.0382,0.0745 -0.26355,0.22686 -0.26355,0.22686 l -0.45889,0.47439 0.62425,-0.37517 0.13849,0.063 -0.0258,46.90618 0.10025,-0.008 0.1664,-49.13912 -0.008,-0.47749 0.14263,-0.26252 0.34313,-0.38499 1.2175,-1.40973 h 0.13436 l 6.49469,-0.0532 h 0.002 l -0.002,0.0941 v -0.0941 l -0.0568,15.20631 0.12144,0.32711 c 0,0 0.26665,-0.009 0.34726,0 0.0806,0.009 1.20562,-1.14102 1.20562,-1.14102 l 0.16691,0.37156 0.009,0.95188 -3.95376,6.11694 0.0693,10.20092 0.46095,-0.33848 -0.13797,-3.60494 3.29385,-2.91817 c 0,0 0.14545,-0.0804 0.21601,-0.01 0.0706,0.0706 0.0982,3.48402 0.0982,3.48402 l -1.42885,1.31104 0.0589,0.49557 1.65106,-1.44229 z m -98.13664,0.13643 3.97857,3.27732 -0.15555,7.59695 -3.77651,-2.37246 z m 106.72682,0.7121 0.002,2.79208 -1.73323,1.58595 c 0,0 -0.13435,-2.3324 -0.13435,-2.45153 z m 6.8373,0.11059 -9.20925,7.9561 0.0599,11.10888 9.14466,-6.34379 z m -90.39602,0.88625 -0.0114,27.50891 0.13539,0.54105 0.23668,0.58188 0.37982,0.35605 0.45992,0.36277 0.68058,0.24649 2.7714,0.68678 c 0,0 0.40702,-0.0219 0.4284,-0.0723 0.0214,-0.0504 0,-0.19689 0,-0.19689 l -0.005,-0.13643 -0.1633,-0.0832 -3.02978,-0.72864 -0.35657,-0.10956 -0.42323,-0.27388 -0.29301,-0.35915 -0.27078,-0.36587 -0.0568,-27.61123 -0.007,-0.19327 -0.0977,-0.13798 z m 1.90686,0.10542 0.0382,3.26388 3.00136,2.40037 0.0305,-1.24437 -2.64428,-2.08049 v -1.34514 l 0.3514,0.0413 2.93419,2.31149 0.0822,-0.50695 z m 39.04774,0.005 -0.0129,0.40101 4.31446,0.15554 -0.004,-0.48679 z m 0.0879,0.78031 0.0103,0.20051 4.2416,0.0651 -0.0129,-0.25012 z m -0.0217,0.83044 -0.009,0.37724 4.27364,0.008 0.0114,-0.33279 z m -59.62271,0.18811 2.87114,2.30063 -0.1881,6.92826 -2.87941,-1.50999 z m 85.81233,0.10438 -0.24391,0.007 -0.0656,48.05392 z m 22.63996,0.0388 0.0305,2.07481 -0.14366,0.10387 -5.12424,4.36769 0.0408,1.80764 0.19068,-0.0103 4.6235,-3.60649 0.32607,0.032 0.0114,0.47852 -0.1881,0.48937 -5.0028,3.75171 0.0775,1.6645 0.10904,0.0155 0.90537,-0.7059 c 0,0 -0.0884,-0.97449 -0.0114,-1.08262 0.077,-0.10813 0.93689,-0.66921 0.93689,-0.66921 l 0.33642,0.0145 c 0,0 0.0565,0.3215 0.12454,0.57206 0.068,0.25056 0,0.21394 0,0.21394 l 0.11162,0.13229 2.67012,-1.89032 c 0,0 0.0909,0.12117 0.0909,0.28112 0,0.15995 -0.10904,0.20619 -0.10904,0.20619 l -5.80171,3.78633 -0.0398,-7.08587 z m -112.87321,0.0139 0.0139,3.77548 1.45727,0.81907 0.0491,-3.44165 z m 64.12528,0.53847 0.001,0.3359 4.20749,0.0486 v -0.32763 z m 24.64914,0.0667 -0.66714,0.94981 0.0212,46.40183 0.42891,-0.13539 -0.008,-46.09125 c 0,0 0.14667,-0.20566 0.22324,-0.28681 0.0766,-0.0811 0.002,-0.83819 0.002,-0.83819 z m -32.12361,0.70848 0.005,0.34107 3.62975,0.0579 -0.0134,-0.339 z m 7.46879,0.01 -0.0295,0.33331 4.22093,0.0687 v -0.34882 z m -62.31816,0.0196 0.0109,3.59565 1.60093,0.92191 0.0222,-3.34037 z m 54.90053,1.15239 -0.0171,0.32349 3.56826,0.0294 0.0165,-0.3054 z m -52.07538,0.88832 -0.10749,3.00912 2.10065,1.47174 -0.0667,-3.07888 z m 52.02267,0.22272 0.0362,0.37414 3.59409,0.0134 v -0.38602 z m -31.58205,0.44235 -0.0331,1.64796 3.49952,2.11305 -0.03,-1.26452 z m 42.40722,0.0563 -1.02784,0.97307 -0.005,11.08356 0.41961,0.0982 0.0248,0.007 -0.0109,-10.68358 0.65164,-0.61082 z m -7.2471,0.55862 -3.48712,0.0439 v 0.38447 l 3.48712,-0.01 z m 46.3119,0.70797 -0.0362,1.49448 -1.66967,1.40302 -0.13126,-1.28726 z m -46.38993,0.45992 -3.25458,0.0253 -0.007,0.28939 3.29902,0.0496 z m 60.93685,0.62064 V 195.192 l 0.20567,0.0496 c 0,0 0.1602,-4.1e-4 0.1602,-0.0698 0,-0.0693 0.006,-0.39894 0.006,-0.39894 z m -60.91205,0.40411 -3.22667,0.0388 -0.006,0.293 3.25252,0.016 z m -60.15085,1.05988 0.44184,0.32866 0.29662,0.1633 0.0238,18.27537 0.26148,0.10542 -1.25367,-0.35812 -0.0279,-18.42471 z m 25.13594,0.40928 -0.0134,1.55649 3.18585,1.82573 -0.0305,-1.35186 z m 31.11335,0.98702 -0.03,0.49092 0.69091,0.46302 -0.002,6.48953 0.45217,-0.14883 0.0191,-6.34948 z m -25.51989,0.14624 -0.26045,0.0114 0.0362,2.65565 0.10697,0.12196 0.19068,-0.0465 0.0108,-0.62425 -0.008,-1.72651 v -0.18604 c 0,0 0.0432,0.008 0,-0.0744 -0.0432,-0.0827 -0.0765,-0.13126 -0.0765,-0.13126 z m 75.59176,0.31264 0.0506,2.2841 -1.5353,0.97824 -0.16072,-2.06344 z m -81.18057,0.55397 v 0.40566 l 3.36414,2.06344 0.15192,-0.35863 z m 21.64157,1.83348 -0.10077,0.10232 0.20361,17.25321 0.25786,0.13746 -0.12867,-17.39583 z m 36.84168,0.0816 c -0.0592,0.0434 -0.49558,0.44339 -0.49558,0.44339 l -0.11472,0.4625 0.1695,0.58136 0.22737,0.59015 -0.13229,0.84232 -2.06705,2.22416 0.0853,19.0562 0.16175,-14.02912 0.46199,-0.36019 1.04541,-0.8971 0.23409,-0.0584 0.032,1.09347 -1.41335,1.12654 0.007,0.42737 1.37769,-1.0325 0.13746,0.0749 v 0.61805 l -1.49862,1.09089 0.20929,18.55494 0.31265,0.26097 c 0,0 0.12371,0.32976 0.13694,0.42478 0.0132,0.095 0.0486,3.33571 0.0486,3.33571 l 0.12868,0.19431 0.21756,0.0661 0.0129,-0.28887 -0.15245,-0.22531 -0.0439,-3.43183 -0.28836,-0.41341 -0.21911,-18.20612 0.25012,-0.37363 0.60358,-0.35501 0.22737,0.0661 0.091,22.23586 0.17829,0.10748 c 0,0 1.32525,-0.0553 1.38338,-0.0553 0.0581,0 0.0796,-0.16847 0.0796,-0.16847 l -0.29404,-0.10542 -0.0692,-0.0765 0.11162,-11.90728 c 0,0 -0.0518,-0.0313 -0.11523,-0.0568 -0.0635,-0.0255 -0.30386,-0.0217 -0.30386,-0.0217 l -0.0202,0.42323 0.0455,0.62219 0.11162,10.74404 -0.0165,0.24805 h -0.1943 c -0.11242,0 -0.67024,0.0656 -0.67024,0.0656 l -0.015,-0.21704 0.0419,-29.84572 0.0532,-0.4067 c 0,0 0.16794,-0.70178 0.16794,-0.8139 0,-0.11212 0.0267,-0.42452 -0.0196,-0.56224 -0.0463,-0.13772 -0.21188,-0.55191 -0.21188,-0.55191 0,0 -0.0331,-0.36713 -0.0331,-0.47542 0,-0.10828 -0.0324,-0.23564 0.0134,-0.3638 0.0458,-0.12816 0.50022,-0.3266 0.50022,-0.3266 l 0.35554,-0.0326 0.31367,0.19586 0.33745,0.36432 0.44494,0.60564 0.17156,0.76275 0.12454,0.91209 0.0465,0.76068 0.18035,29.4044 0.0233,0.78393 -0.26459,0.86765 -1.46192,3.09749 -1.10743,1.88309 0.29145,0.44803 c 0,0 0.10314,-0.76033 0.19121,-0.85473 0.0881,-0.0944 2.41639,-4.42453 2.41639,-4.42453 l 0.30024,-1.25936 -0.3266,-31.51539 -0.21549,-0.66869 -0.49971,-0.9896 c 0,0 -0.54469,-0.47749 -0.60255,-0.5116 -0.0579,-0.0341 -0.89503,-0.11369 -0.89503,-0.11369 0,0 -0.24105,-0.1137 -0.30024,-0.0703 z m -52.96782,0.53382 -0.13385,0.0465 -0.0724,0.24081 0.0553,13.33407 0.0946,0.12919 0.1633,-0.0698 0.0682,-0.11266 0.0274,-13.33458 z m -5.58364,0.28319 0.13229,1.87637 2.97191,1.28261 0.0687,-1.25574 z m 87.45409,0.0233 0.14366,0.28577 0.0191,1.70429 -0.20464,0.31264 -9.57564,5.83169 -0.14883,-0.13229 -0.13901,-1.69603 9.4697,-6.00221 z m -64.82808,1.65623 -0.0315,10.50013 0.21135,-0.20205 0.0176,-9.98492 z m 0.74517,0.33279 -0.0336,8.65581 -0.21962,0.3514 0.0475,0.44287 0.37258,-0.63201 0.0212,-8.62945 z m 27.57661,0.25218 -1.08831,1.32034 -0.0527,4.10621 0.35709,0.47542 0.28783,0.4098 -0.004,-4.86586 0.94878,-1.09657 z m -50.68218,0.0134 -0.0207,0.39378 3.03496,1.42834 0.061,-0.29973 z m 20.64216,0.26407 0.10025,12.01322 0.28939,0.25166 -0.1478,-12.15894 z m 30.47462,1.7446 0.046,2.56263 h 0.31316 l -0.002,-2.55643 z m 36.31664,0.26251 0.18449,0.31213 -0.001,3.76153 -0.108,0.15296 -9.70328,4.76663 -0.19741,-0.0904 -0.0816,-3.00034 z m -87.53677,0.23255 -0.0491,1.32808 3.08457,1.2516 0.032,-1.10639 z m 72.16097,1.31516 -0.0584,3.59978 -2.63498,2.53421 h -0.22221 l -0.0465,-2.96312 z m -71.99612,0.55914 -0.12247,0.15503 0.0579,0.1447 2.89233,1.24798 0.0486,-0.28784 z m 13.55059,0.61133 0.0367,1.03818 1.50947,1.04748 -0.0114,0.41393 0.3328,0.30438 -0.0248,-0.98082 z m 37.73465,0.64958 -0.36019,0.0382 c 0.0381,0.2004 0.10542,0.95033 0.10542,0.95033 l 0.28009,0.047 z m -51.53587,1.22163 0.009,1.53427 3.06286,1.13791 -0.0413,-1.44125 z m 13.84463,0.56017 -0.0279,0.77101 1.91461,1.38493 -0.0315,-0.60927 z m 37.87004,0.0966 -0.39016,0.12868 0.0124,0.33331 0.31626,0.78135 0.0615,0.017 z m -51.72552,1.30845 -0.0636,2.20555 2.9471,0.76171 0.2682,-0.0408 -0.005,-0.26562 -0.11472,-0.17415 -2.30683,-0.52193 -0.25425,-0.31574 0.093,-1.03095 h 0.26716 l 2.04639,0.8108 0.2682,0.0408 0.0589,-0.16588 -0.15709,-0.25218 z m 13.79864,0.0315 0.001,0.53692 1.973,1.34204 -0.0786,-0.49403 z m 73.95052,0.39533 0.0579,9.58649 -0.54054,0.20413 -0.0222,-4.93769 -1.06143,0.4315 0.0708,4.66121 -0.66507,0.28164 -0.21188,0.032 -0.14676,-9.07128 z m -32.3293,1.00459 -0.67076,0.25786 -1.74149,3.75791 0.18707,9.34879 -0.10077,0.17725 -0.40204,0.4625 -0.23306,0.30593 -0.0698,0.50074 0.0568,7.04298 1.22008,0.0119 0.0387,-7.6631 v -0.22686 l 0.30541,-0.31419 c 0,0 0.70878,-0.25991 0.81029,-0.28371 0.10151,-0.0238 0.43879,-0.0419 0.39119,0.14521 -0.0476,0.18713 0.16485,4.76612 0.16485,4.76612 l 0.1235,-4.73201 -0.0475,-0.65112 -0.40773,-0.0357 -1.5999,0.7643 -0.108,-9.4816 0.13694,-0.57929 1.49913,-3.07216 z m -41.54526,0.0956 -0.047,0.53588 1.92908,1.19115 0.0315,-0.46354 z m 70.91505,0.15813 0.0594,4.63589 -0.48008,0.0801 -0.005,4.38681 -0.74362,0.25994 c 0.009,-0.084 -0.0444,-4.21887 -0.0444,-4.21887 l -0.49093,0.0724 -0.0413,-4.42454 z m -62.20137,0.19999 -0.32504,0.0372 0.12764,9.47333 0.23306,-0.35967 c 0,0 0.0681,-0.0637 0.0997,-0.094 z m 60.05215,0.88728 0.17466,8.56124 -0.48627,0.1204 -0.0672,-4.1429 -0.70332,0.20051 0.0109,3.96926 -0.41237,0.13798 -0.22531,-8.107 z m -108.06989,0.0718 10.943,3.08147 -0.009,0.39429 -10.92698,-3.12126 z m 39.25859,0.0419 0.0222,0.59376 1.8743,1.05885 -0.0186,-0.55035 z m 66.66001,0.76119 0.0915,8.04861 -0.46664,0.11265 0.0548,-3.78943 -0.9834,0.32815 -0.0574,-4.19148 z m -105.87933,0.29921 10.93267,3.03031 -0.0222,0.31057 -10.85619,-3.0024 z m 104.14972,0.53537 -0.0207,7.71942 -0.9188,0.24753 -0.10801,-7.62847 z m -6.31125,0.94309 -5.06738,3.406 -0.0786,1.37046 -0.12765,10.96884 0.25426,0.69814 0.0346,0.003 0.26769,0.31678 0.77153,0.0811 0.0599,1.7291 0.14521,0.41961 0.33125,0.42995 0.51315,0.24391 3.91707,0.55759 0.0806,-0.0646 -0.0651,-0.19172 -0.40256,-0.10852 -3.44992,-0.45475 -0.28267,-0.20567 -0.29662,-0.30799 -0.0951,-0.32195 -0.0662,-0.94154 0.0176,-0.77412 3.29024,-0.047 -0.58911,-0.0491 0.62528,0.047 0.41807,-0.15451 -0.006,-16.53543 z m -53.26031,1.05575 1.17823,1.83762 -0.0295,8.26564 0.60409,0.68937 0.16692,-0.28939 0.0749,-0.093 -0.39274,-0.37259 0.0388,-8.12973 -1.37201,-1.86397 z m -20.93929,0.56276 -0.16588,0.009 0.0264,0.20568 5.42086,1.24695 0.0574,-0.15038 -0.0326,-0.0718 z m 73.39293,0.95085 h 0.10697 l 0.0476,2.33009 -0.11214,0.11472 -3.19619,1.42885 h -0.16691 l -0.13953,-0.0873 -0.0703,-0.0946 -0.0501,-1.5875 0.0687,-0.17725 0.20051,-0.0868 z m -20.82662,2.06085 -0.84801,1.04283 -0.0341,0.5979 1.17357,-1.51257 z m -52.5999,0.56638 -0.015,0.10025 -0.0481,0.77618 5.46737,0.87333 0.0109,-0.84336 z m 11.59309,0.15141 -0.0584,15.41766 0.31213,0.13178 h 0.36018 l 2.21279,-0.22738 -0.006,-0.38499 -1.80868,0.15038 -0.48782,-0.13229 -0.0992,-0.52297 c 0,0 -0.0242,-12.60992 0.0982,-12.65142 0.12233,-0.0415 0.48421,0 0.48421,0 l 2.80861,1.02939 -0.0279,-1.2299 z m 61.78952,0.86144 c 0.0531,0 0.26717,0.15452 0.26717,0.15452 l 0.0222,0.63303 -0.006,0.39791 -0.0982,0.17415 -0.20619,0.16381 -3.44837,1.18133 -0.0248,-0.28784 -0.0584,-0.46716 v -0.29248 l 0.0455,-0.23203 0.0703,-0.14728 0.13332,-0.0548 c 0,0 3.25005,-1.22318 3.30315,-1.22318 z m -21.70307,0.48576 -0.11369,0.69918 -0.21084,0.89452 0.18759,12.06697 0.008,0.0109 z m 37.42511,0.13643 0.22582,0.2961 0.0656,2.36472 -0.16794,0.21239 -4.0535,0.45682 c 0,0 -0.11614,-2.23885 -0.0599,-2.33785 0.0562,-0.0989 0.2558,-0.21032 0.2558,-0.21032 z m -4.53668,1.04334 0.17932,0.077 0.0429,2.30167 -3.01067,0.40359 -0.20258,-0.0842 -0.0419,-2.0252 0.18604,-0.1819 z m -71.60597,0.0992 -0.15606,0.1354 -0.0574,9.94771 0.13539,0.26096 0.4098,0.0109 0.22892,-0.0129 0.0729,-0.0486 -0.0124,-5.77122 0.093,-2.96054 0.18087,-0.27131 0.262,0.0326 0.29094,0.24288 0.0264,0.31264 0.0202,8.12664 c 0,0 -0.0455,0.44413 -0.10904,0.51883 -0.0635,0.0747 -0.20309,0.20515 -0.20309,0.20515 l -0.31367,0.22738 -0.37828,0.0393 -0.83922,-0.0754 0.0114,0.74104 0.0739,0.0703 2.15284,-0.0811 0.0977,-0.20981 0.047,-2.16576 -0.0966,-0.19379 -0.22324,-0.0119 -0.003,-6.39599 0.10438,-1.00511 0.16123,-0.38706 h 0.26459 l 0.30851,0.0724 0.0207,-0.60151 z m 67.94263,0.61754 0.19379,0.15916 -0.0698,1.98438 -1.50895,0.19998 -0.1912,-0.19378 -0.0289,-1.6521 0.17622,-0.24805 z m -8.92039,0.8909 c 0.0546,-0.002 0.11922,0.002 0.15968,0.0238 0.0809,0.044 0.15555,5.29012 0.15555,5.29012 l -0.0243,0.19895 -0.12557,0.13901 -2.1301,-0.0134 -0.13902,-0.0439 -0.0682,-0.27854 0.002,-4.46174 0.0439,-0.21652 c 0,0 0.1343,-0.0915 0.19017,-0.13591 0.0559,-0.0444 1.83658,-0.493 1.83658,-0.493 0,0 0.0446,-0.007 0.0992,-0.009 z m -51.16484,1.60817 0.0734,5.94072 0.22893,-0.063 0.13436,0.016 0.0853,-5.85029 z m -5.22965,3.33416 v 0.5271 l 1.27899,-0.0382 c 0,0 0.0296,-0.043 0.0853,0.0326 0.0557,0.0756 0.11679,0.33176 0.11679,0.33176 l -0.0625,0.22531 -0.35812,0.077 -0.96841,-0.0217 0.0687,0.19069 0.077,0.293 1.41851,-0.0284 0.0434,-1.495 z m 73.13818,0.29042 -6.47351,0.31316 -0.16227,0.0755 -0.28577,0.27389 -0.16536,0.29197 0.0212,5.9216 0.10179,0.30282 0.27388,0.27182 1.23766,0.0181 2.77192,0.0724 2.65048,0.0506 0.28371,-0.14056 0.24754,-0.18345 0.13641,-0.29921 0.14625,-6.0079 -0.14262,-0.4563 -0.23617,-0.27441 z m -65.93965,0.50643 0.0264,1.92082 0.34209,0.0294 h 0.0233 l -0.0238,-1.37356 -0.25579,-0.38292 z m 65.57223,0.0997 c 0.0437,-0.006 0.0883,-0.006 0.17828,0.0181 0.18001,0.0478 0.27337,0.29093 0.27337,0.29093 l 0.0646,5.77484 -0.19585,0.3297 -0.22014,0.0331 -2.9192,-0.0232 -2.75642,-0.0961 -0.4961,-0.0233 -0.0946,-0.11783 -0.0222,-5.45393 0.093,-0.32194 0.11007,-0.14159 c 0,0 5.64011,-0.25063 5.81257,-0.25063 0.0862,0 0.12886,-0.0121 0.1726,-0.0181 z m -102.06717,0.19999 1.62678,1.92546 2.74557,-0.0631 -1.64228,-1.83864 z m -0.75344,0.017 -2.80448,0.0419 1.87637,2.03863 2.48564,-0.13074 z m -4.2602,0.0295 -3.36466,0.0754 c 0.55803,0.50079 2.57607,2.21072 2.57607,2.21072 l 3.03134,-0.10439 z m 43.04543,1.42833 0.004,0.27905 0.35605,0.0481 -0.002,-0.16019 -0.2036,-0.0677 z m -48.32573,0.18759 -0.11421,0.0925 -0.0124,1.93063 0.001,1.54254 0.11421,0.50178 0.11627,-0.40049 0.0114,-3.43494 z m -0.96429,0.22272 -1.51153,0.0351 0.0331,4.02405 h 1.50688 z m -2.17661,0.0217 -1.00304,0.0517 0.0667,4.10104 0.95964,-0.0729 z m 87.47064,0.4811 -2.51509,3.76463 0.23151,0.34778 2.48822,-3.85919 v -0.25322 z m 42.54831,0.0558 -3.56722,0.016 -0.0724,3.12591 -1.43971,-5.1e-4 -0.36587,0.32866 2.18333,0.0357 0.0656,-3.13055 3.16828,0.0129 z m -48.96549,0.1664 -0.34158,0.23358 -0.26923,0.59376 0.0558,2.06913 c 0,0 -0.12539,-0.0573 -0.27337,0 -0.14037,0.0543 -0.17337,2.80532 -0.17673,3.10265 l 0.0744,0.20516 0.19895,0.0997 2.38591,-0.13953 h 0.0832 l -0.0589,-6.04872 -0.24081,-0.0713 z m 1.16324,0.71314 -0.0424,1.51825 -1.32808,-0.13901 v -1.2237 z m 14.24357,0.94929 -2.92075,3.12229 0.0367,8.90179 0.36018,0.15916 -0.015,-9.00927 2.84169,-3.0856 z m -75.41556,0.72399 -4.87205,0.0191 h -0.7922 l -14.96446,1.72031 -1.01596,0.10025 0.48628,0.11317 1.18494,0.0512 14.27716,-1.70739 5.68441,-0.0393 0.2744,0.16691 0.90796,2.08773 0.15813,0.73846 -0.0537,0.41909 -20.88297,4.454 -1.19424,0.0734 -0.12971,-0.14625 -0.0388,-3.85919 0.0899,-0.12868 0.3235,-0.12506 0.55294,-0.0744 1.61178,-0.23823 1.16117,2.14561 17.69866,-3.22409 -0.77049,-1.64125 -18.01751,2.54507 -2.86649,0.0899 -0.008,5.00693 -0.60255,0.80047 -0.6134,0.62373 -0.7276,0.54054 -0.28422,0.19895 -0.43718,0.1354 0.16588,0.35191 1.20819,-0.72502 0.80926,-0.71365 0.50488,-0.59583 0.31884,-0.69608 1.41387,-0.0357 20.7517,-4.41523 0.35812,-0.47646 v -0.33124 l -0.53795,-1.66347 -0.71831,-1.46606 z m 15.42542,1.4702 0.0258,0.13849 3.44837,2.74918 c 0.0737,-0.0544 0.11742,-0.0874 0.15244,-0.11213 z m 87.9688,0.76222 -2.01642,1.69912 3.07423,0.25167 0.0899,-1.90996 z m 1.90996,0.14005 -0.0413,1.79523 3.74757,0.32712 -0.0873,-1.79318 z m -25.07237,0.35036 -2.00195,1.76527 6.01256,1.3224 3.07526,-1.88051 z m -59.04705,0.21859 -1.31413,0.36536 0.97875,0.8847 c 0.0147,-0.01 0.0512,-0.0305 0.0512,-0.0305 0,0 0.0909,-0.0446 0.13281,-0.10336 0.0419,-0.0587 0.0806,-0.12157 0.0946,-0.15864 0.014,-0.0371 0.0336,-0.22118 0.0336,-0.22118 0,0 0.0641,-0.2586 0.0641,-0.3514 0,-0.0928 -0.0207,-0.31987 -0.0207,-0.31987 0,0 -0.0131,-0.0442 -0.0202,-0.0651 z m -12.65918,0.19431 -0.12919,0.18396 4.32997,3.72898 0.11214,0.20567 c 0,0 0.0495,0.11453 -0.10904,0.20309 -0.15854,0.0886 -0.75499,0.32452 -0.75499,0.32452 l -8.6186,3.05667 -0.18086,0.23771 0.27698,0.0491 9.55342,-3.42511 0.0134,-0.0196 c -0.0294,-0.0378 -0.14525,-0.19379 0.015,-0.19379 0.0323,0 0.0966,-0.0259 0.14418,-0.0367 l 0.0207,-0.03 -0.0713,-0.37982 -3.16363,-2.89647 0.0496,-0.27078 0.26097,-0.25373 0.53433,-0.22324 v -0.11318 l -0.0863,-0.14469 -0.99012,0.5917 -0.22376,0.0196 z m 81.79605,0.2744 -4.25349,2.68769 2.3673,0.52193 -0.11162,-0.0181 -0.37775,0.64906 -4.16616,-1.01854 -0.34261,0.14676 -5.17902,-1.17254 v -0.20567 l -0.2036,-0.0661 -0.0274,0.48731 5.24102,1.33532 0.56948,-0.24495 3.89847,1.00718 0.0165,21.56561 -12.48555,-9.74669 3.51813,-0.26511 -2.2226,0.18604 3.81786,2.48925 2.69596,-0.1757 -3.9424,-2.52594 0.0341,-0.003 -0.37621,-0.21136 -4.15995,0.29094 -0.0599,-0.0475 0.30128,0.68471 34.28938,29.34498 0.0176,-2.30374 -21.22558,-17.3917 -0.003,-0.17001 -0.0212,-0.0165 0.016,0.007 0.0517,-21.63278 0.59376,-0.94413 0.0119,0.003 0.64492,-0.7984 4.38113,-2.03192 z m -82.62235,0.31109 -1.95492,0.38292 4.3217,3.76928 1.89032,-0.63717 z m 56.91023,0.11317 -0.0889,0.94826 0.0899,0.045 z m 30.72318,0.10284 -4.77438,2.08876 c 0,0 -0.41397,0.29804 -0.45165,0.31626 -0.0377,0.0182 -0.60565,0.74517 -0.60565,0.74517 l -0.34313,0.44287 -0.0114,0.34675 c 0,0 0.96539,-1.12546 0.98339,-1.16014 0.018,-0.0347 0.50023,-0.39015 0.50023,-0.39015 l 4.97541,-2.1668 0.004,-0.16536 z m -27.56524,0.0114 c 0,0 -0.31593,0.0309 -0.35036,0.0827 -0.0344,0.0518 -0.0705,0.0897 -0.12144,0.18552 -0.051,0.0958 -0.1354,0.3669 -0.1354,0.3669 0,0 0.009,0.98813 0.0171,1.89911 l 1.62625,0.94051 1.11725,1.34255 c 0.0918,-0.67798 0.27492,-4.05608 0.27492,-4.05608 0,0 0.0442,-0.2857 -0.0212,-0.31264 -0.0654,-0.0269 -0.28451,-0.16227 -0.34003,-0.16227 -0.0555,0 -2.06706,-0.28628 -2.06706,-0.28628 z m -63.2132,0.35398 -2.16369,0.5209 5.01468,3.90829 2.00815,-0.70177 z m 96.30059,0.2496 -0.004,2.15025 3.51969,0.62477 -0.0584,-2.29753 z m -99.39859,0.55294 -2.00505,0.7214 3.31711,2.61534 0.86352,0.63356 0.19068,0.42788 v 0.18086 l -4.96559,-3.82043 h -0.3359 c 0,0 -0.12318,-0.02 -0.19016,0.1049 -0.067,0.12487 4.93871,3.82147 4.93871,3.82147 l 0.1602,0.36225 3.15743,-1.23558 z m 103.67533,0.0202 0.008,2.27996 3.81837,0.68833 -0.0382,-2.54093 z m -5.55832,1.85105 -3.66127,0.14211 -0.61909,0.64234 -0.0382,13.97382 -5.00641,0.0362 -0.64802,0.48783 -0.0522,0.67334 19.54351,10.79986 0.0222,-20.39875 c -0.004,0.031 -0.0202,0.2067 -0.0202,0.2067 l -9.61957,-2.85667 c 0,0 4.39093,0.51063 4.78576,0.61598 0.39483,0.10534 -7.68532,-2.80551 -7.68532,-2.80551 0,0 12.0694,2.67572 12.47004,2.57038 0.0276,-0.007 0.051,5.4e-4 0.0718,0.0171 l 10e-4,-0.90537 -9.79682,-2.46032 v -0.40824 z m -14.11231,0.79065 c -0.05,0.30459 -0.2186,8.17831 -0.2186,8.17831 l 0.31626,-0.22221 z m -2.90887,0.108 -0.0155,12.38633 0.14882,-6.1371 z m -7.8264,1.25316 c 0,0 -0.23137,0.0808 -0.2806,0.15192 -0.0492,0.0711 -0.13229,0.1571 -0.13229,0.1571 l -0.0382,1.9482 c 0,0 -0.0639,0.0592 -0.11266,0.0811 -0.0487,0.0219 -0.12304,0.0813 -0.21032,0.13023 -0.0873,0.0489 -0.59793,0.12169 -0.64492,0.15399 -0.047,0.0323 -0.18397,0.18862 -0.18397,0.18862 l -0.005,0.0636 -0.0579,0.14572 c 0,0 2.73707,1.57097 2.82412,1.57097 0.087,0 0.5271,0.10283 0.5271,0.10283 l 3.51141,-0.39429 -1.38544,-0.9586 -2.96985,0.31781 -1.31361,-0.67747 -0.38964,0.0548 c 0,0 -0.0966,0.0285 -0.0966,-0.0475 0,-0.076 -0.0902,-0.16558 0.0176,-0.22634 0.1078,-0.0607 0.19878,-0.12062 0.28887,-0.14211 0.0901,-0.0215 0.4346,-0.12506 0.4346,-0.12506 0,0 0.0512,-0.46982 0.0512,-0.52452 0,-0.0547 -0.0538,-0.16245 -0.0491,-0.24029 0.005,-0.0778 0.0212,-0.46539 0.0212,-0.51935 0,-0.054 -0.0222,-0.13471 -0.0222,-0.31523 0,-0.1805 0.0438,-0.25786 0.093,-0.32762 0.0492,-0.0698 0.3328,-0.2372 0.3328,-0.2372 l 2.651,0.0625 c 0,0 0.0994,-0.0291 0.14212,0.0171 0.0427,0.0462 0.0537,0.27079 0.0537,0.27079 l -0.50591,0.1111 -1.77611,-0.0109 c 0,0 -0.22573,-0.0338 -0.27647,0.0119 -0.0507,0.0457 -0.12919,0.19998 -0.12919,0.19998 l -0.0274,1.40715 c 0,0 -0.0421,0.15141 0.0109,0.15141 0.0529,0 0.1695,0.0165 0.1695,0.0165 l 0.13384,-0.28784 -0.0326,-0.92397 c 0,0 -0.0681,-0.0587 0.016,-0.14315 0.0841,-0.0845 0.12491,-0.13849 0.20412,-0.13849 0.0792,0 2.38125,0.0832 2.38125,0.0832 l 0.23461,-0.0837 c 0,0 0.0579,-0.038 0.0579,-0.17519 v -0.56947 c 0,0 -0.17658,-0.18714 -0.25528,-0.22479 -0.0787,-0.0376 -0.19517,-0.0592 -0.37569,-0.0811 -0.18052,-0.0219 -2.88561,-0.0243 -2.88561,-0.0243 z m -64.53456,1.17822 -2.32493,1.10122 -0.0739,7.07347 0.41238,-0.19637 -0.12196,-6.60321 1.79938,-0.77308 0.0377,4.26279 0.14004,-0.32815 0.12713,-0.32143 z m 86.47638,1.20974 11.96206,3.72587 0.35191,12.8726 -3.24321,-0.24701 -2.13269,-1.1498 0.13436,-0.3545 0.0682,-1.46864 -0.63872,-0.79737 -4.17908,0.0894 -2.74763,-1.19993 0.0465,-11.23859 z m -91.69157,1.05834 -2.32389,1.1777 0.0853,7.10189 0.35295,-0.0408 -0.0909,-6.8678 1.97249,-1.02371 z m 67.79587,0.16433 -0.32143,0.41393 -0.007,0.87746 0.22635,0.55501 0.003,-0.74363 0.077,-0.0703 h 0.11368 l 6.39393,3.45302 0.0145,-0.37775 -6.3593,-3.43804 0.0181,-0.17208 z m -76.01863,0.2129 -20.6716,6.96805 0.26251,1.58647 21.95164,-7.70185 h 0.44803 l 0.28164,0.0971 0.11885,0.20774 v 0.17673 l -14.83734,5.58312 -0.19792,0.28319 0.17415,0.12454 14.97273,-5.79396 0.47646,-0.416 -0.5917,-0.57981 z m 11.67371,5.77536 -1.07538,0.70642 0.0134,0.18035 0.27698,0.0656 0.39481,0.006 z m -12.34447,0.18966 -5.81308,2.4138 1.36684,0.22738 5.28133,-2.25206 z m 1.37718,0.64543 -4.21008,2.11305 0.17673,0.31626 0.42479,0.16588 h 0.72657 l 3.41788,-1.59938 0.33227,-0.1726 0.19224,0.35037 -4.38423,2.25722 0.47232,0.79375 4.82762,-2.10995 0.17311,-0.27285 v -0.39429 l -1.37562,-1.32033 z m -11.52539,2.88097 -5.39916,2.37969 0.85318,0.3049 1.08314,0.27233 0.47852,0.37414 0.41083,0.0553 3.6437,-1.77147 0.11111,0.37052 -3.68556,1.90531 0.37413,1.34824 4.44676,-1.86138 -0.45113,-2.16886 0.44906,-0.44132 z m 20.46748,0.03 -2.93057,0.0496 -0.14934,0.23771 -3.47008,-0.15658 -0.0253,2.61483 -5.24516,3.17913 -1.20251,-0.0191 -2.94142,1.92288 -0.12764,0.64854 -1.5751,0.82527 0.11266,2.08205 z m -8.1964,0.63303 -0.32763,0.19327 -0.078,3.00034 0.47594,-0.25838 z m 8.32508,0.0269 -31.12265,21.67361 0.55759,1.47691 30.7697,-22.26841 c -0.0102,-0.0122 -0.0233,-0.0207 -0.0326,-0.0331 -0.10318,-0.13799 -0.15401,-0.64849 -0.17209,-0.84904 z m -9.37979,0.55448 -0.83768,0.64182 0.27285,2.23759 0.78393,-0.63975 z m 10.35182,0.90331 -31.15986,22.29734 0.29301,0.53279 30.91284,-22.80068 z m -22.57692,4.18165 -1.8743,1.65572 0.0729,0.49867 3.6468,1.1281 0.74828,0.1447 2.47737,-1.46038 -0.11524,-0.78186 -2.60966,1.65571 c 0,0 -2.90831,-0.90689 -3.20549,-1.01544 l 1.12603,-1.34101 z m 4.85294,0.0476 -1.90015,1.45727 2.20969,-0.80925 z m -9.76582,3.98425 -2.5554,1.55804 0.15658,0.46199 2.85564,-1.99006 z m 1.39785,0.49661 -3.283,2.02933 0.12195,0.34365 3.62821,-2.18591 z m 1.20096,0.48473 -3.79563,2.41483 0.0791,0.4129 3.33674,-1.91565 0.37983,3.24167 z m -6.69891,-119.2102 c -0.81338,0 -1.46813,0.65599 -1.46813,1.47123 v 133.69158 c 0,0.81523 0.65475,1.47174 1.46813,1.47174 h 133.50348 c 0.81339,0 1.46813,-0.65651 1.46813,-1.47174 V 122.86164 c 0,-0.81524 -0.65474,-1.47123 -1.46813,-1.47123 z m 0.72864,2.35489 0.16071,0.15813 v -0.0191 l 68.29041,0.20878 -0.16795,1.70945 -0.13281,1.54616 -0.51004,2.88665 -1.28623,4.37234 -1.13688,3.28972 -1.93838,4.28346 -1.59577,3.12384 -3.57498,5.29632 c 0,0 -1.34205,1.52027 -1.46141,1.6862 -0.11935,0.16594 -2.63705,2.64635 -2.63705,2.64635 l -2.46083,1.98645 -2.06499,1.40714 0.0403,2.34301 1.81953,2.07223 -0.0196,8.74158 0.6165,0.5948 -0.0388,-8.03724 0.13333,-0.0408 0.21962,0.0294 0.11162,0.16382 0.0191,3.1874 0.42581,0.0439 1.0387,1.16944 0.17983,2.50734 0.31161,-0.61857 -0.0786,-2.00763 0.24495,-0.58394 -0.002,-10.19369 0.078,-0.15142 0.20671,-0.0145 0.22014,0.14883 0.0258,13.49427 0.48265,0.48782 0.0605,8.64185 -0.54363,0.68523 0.0294,1.50275 0.25786,0.29352 0.83716,-2.33267 1.0573,-1.72909 0.96377,-1.125 -0.009,-3.68711 1.61799,-2.11977 -0.0284,-4.38939 0.13746,-0.0796 0.12454,0.10128 0.0941,4.11293 0.96376,0.004 1.24799,-1.52962 0.0543,-12.51448 2.12442,-1.87069 -0.0248,-8.63668 1.05472,-1.0573 -0.0279,-2.15646 0.71469,0.01 5.1e-4,1.36064 0.20361,-0.15142 0.003,-1.30483 6.80165,-6.06371 0.004,-4.56406 0.20877,-0.0708 0.015,-1.51205 0.0388,-0.1478 0.17312,-0.006 0.13281,0.0393 0.046,23.48333 0.51108,0.0357 0.009,4.31239 -0.79168,0.0196 5.1e-4,11.5502 3.10421,3.8809 0.001,0.43512 0.49609,0.008 0.9524,-0.0847 0.40308,0.17673 -0.0171,-8.81393 0.15762,-0.0687 h 0.31006 l 0.13849,0.12557 0.0248,9.40356 0.69143,0.92708 0.15142,0.48937 0.39997,0.41807 -5.2e-4,-12.6783 0.18191,-0.2744 0.10697,-13.47101 0.0806,-0.30334 0.18965,0.33279 0.009,13.35164 1.01441,1.14102 0.0729,6.50761 0.14883,0.11524 0.38964,0.046 h 0.38034 l 0.22531,0.39791 0.38395,0.11782 0.16692,0.32556 h 0.14676 l 0.3855,-0.25838 -0.14676,-37.75997 0.0248,-0.16692 0.22686,0.0434 0.0651,0.18656 0.0465,3.15122 0.1695,0.21653 0.0723,17.63665 0.45062,-0.47749 v -0.37 l 0.96842,-0.89607 0.35088,0.0687 0.0134,-11.52023 0.22221,-0.29042 0.29817,0.12764 0.0698,11.74399 1.71928,-0.0341 0.0651,-6.29833 0.22221,-0.077 h 0.18397 l 0.16433,7.50807 1.24747,1.1157 0.10852,2.09703 1.00149,-0.60255 -0.0481,-11.66751 0.0811,-0.44596 0.16381,-0.21756 -0.0134,-0.90537 c 0,0 -0.0173,-0.41538 0.0326,-0.46148 0.0498,-0.0461 0.0398,-0.0403 0.0398,-0.0403 l 0.49971,-0.28732 -0.0419,-3.44992 0.53588,-0.50591 0.54467,-0.86765 0.83509,-1.08468 0.79582,-1.22318 -0.0568,-6.69055 0.47955,-0.13281 0.12248,0.15916 0.0873,6.84816 0.19379,0.092 0.58136,-0.79581 0.19585,-0.62736 -0.0677,-3.64887 0.13333,-0.0481 0.31058,3.35794 0.38395,0.12505 0.10284,0.79892 0.19637,0.87333 0.43821,1.02785 0.7643,1.19579 0.49402,0.88263 0.50747,0.42943 0.0961,3.1626 0.32711,0.45734 0.15141,1.89756 0.0512,1.74615 -0.017,1.67328 0.42271,2.34094 -0.0171,2.466 0.36845,0.11317 0.49661,-1.50016 0.34882,-1.94252 c 0,0 0.41812,-2.47642 0.46302,-2.67374 0.0446,-0.19732 0.0506,-1.1436 0.0506,-1.1436 l -0.16898,-1.28054 -0.15555,-1.71308 -0.30799,-1.27899 -0.26975,-1.70842 -0.63407,-1.77612 -0.5085,-1.53428 -0.72967,-1.84588 -0.8754,-1.7539 -0.51159,-1.06815 -0.73329,-1.16685 c 0,0 -0.66655,-0.91654 -0.76585,-1.07125 -0.0993,-0.15472 -0.26165,-0.71961 -0.36328,-0.93018 -0.10164,-0.21057 0,-0.47803 0,-0.76636 v -0.82476 l 0.14107,-1.44849 c 0,0 0.0844,-0.48662 0.22996,-0.84697 0.14556,-0.36036 0.36949,-1.57458 0.36949,-1.57458 l 0.28112,-1.29502 34.24907,0.0413 0.28474,132.1475 -132.34851,-0.0786 -0.0279,-94.95803 h -0.11169 l 0.10749,-15.22121 z m 48.92053,34.95033 -1.28003,0.7462 0.0119,0.80409 1.27693,-0.007 z m -2.03243,1.12758 -2.64325,1.19321 -1.10123,-0.001 0.0481,10.48308 1.80816,-0.001 0.0186,-9.4294 1.87017,-1.64796 z" />
    <path
       id="path39"
       style="display:inline;fill:#d40000;stroke-width:0.264583"
       d="m 255.50113,123.84711 -0.0109,0.007 -29.41629,0.24184 -0.29818,3.23443 -0.51831,2.96106 -2.40967,7.6078 -1.96784,4.34392 -1.57717,3.067 -2.98379,4.42919 -0.54932,0.81959 -1.48674,1.73374 -2.63704,2.61328 -2.466,2.00918 -2.07429,1.41077 0.0419,2.34249 1.81591,2.06757 -0.0181,8.74521 0.6196,0.59841 -0.0398,-8.03672 0.13125,-0.0424 0.21705,0.03 0.11627,0.1633 0.0207,3.18895 0.41806,0.0388 1.04541,1.17254 0.18242,2.50992 0.30903,-0.61805 -0.0801,-2.00918 0.24804,-0.58187 -0.006,-10.19938 0.0837,-0.14986 0.20309,-0.0124 0.21756,0.14676 0.0284,13.49013 0.48059,0.47956 0.0636,8.65373 -0.54519,0.68316 0.0274,1.50275 0.26097,0.29869 0.82941,-2.3275 1.07693,-1.74977 0.95033,-1.10949 -0.008,-3.68866 1.61903,-2.11874 -0.0284,-4.38887 0.13901,-0.0827 0.12144,0.0987 0.0946,4.11861 0.96583,-0.001 1.24902,-1.52859 0.0506,-12.51397 2.12596,-1.8681 -0.0258,-8.63823 1.05679,-1.0604 -0.0295,-2.15285 0.7152,0.009 5.2e-4,1.36374 0.20412,-0.15554 0.0145,-1.28519 6.81457,-6.04356 -0.0155,-4.54805 0.21549,-0.10955 -0.005,-1.56425 0.077,-0.0951 0.17518,0.008 0.0894,0.0362 0.0569,23.36809 -0.0165,0.045 0.0165,0.001 v 0.009 l 0.004,-0.009 0.50126,0.0305 0.009,4.36046 -0.77928,0.0212 -0.0222,11.56828 3.12797,3.86333 -0.006,0.41807 0.54777,0.0238 0.90744,-0.0894 0.40152,0.19223 -0.0202,-8.8284 0.17932,-0.0656 0.31264,0.0124 0.12867,0.14573 0.009,9.38185 0.70848,0.92139 0.14315,0.48938 0.41134,0.41393 -0.0279,-12.68915 0.20877,-0.25373 0.0786,-13.51597 0.094,-0.24547 0.0765,0.11628 -0.001,0.005 0.13229,0.24546 v 0.2651 l -0.0119,0.11007 -0.009,12.91859 0.36122,0.39791 0.66249,0.75809 0.0677,5.36402 -0.005,0.99425 0.49868,0.30541 0.42116,-0.007 0.2341,0.39894 0.39429,0.13023 0.15399,0.31264 0.17777,-0.0119 0.3669,-0.26045 -0.14521,-33.86564 -0.005,0.017 -0.0134,-3.87004 0.0279,-0.19689 0.22738,0.0574 0.0703,0.17415 0.0439,3.15329 0.16485,0.20309 0.0718,17.64441 0.45527,-0.47491 -0.003,-0.37155 0.97255,-0.89607 0.35967,0.0687 0.001,-11.52023 0.21808,-0.29042 0.30592,0.1297 0.0667,11.74141 1.71928,-0.0326 0.0672,-6.29781 0.23461,-0.0796 0.16743,0.007 0.16175,7.50445 1.25935,1.125 0.0971,2.08308 1.01906,-0.61134 -0.0641,-11.64683 0.0889,-0.47646 0.16019,-0.19275 -0.0139,-1.35703 0.56844,-0.33951 -0.0408,-3.45354 0.54467,-0.49609 2.16886,-3.16725 -0.0279,-6.68693 0.44132,-0.14728 0.13746,0.1664 0.0822,6.83369 0.19379,0.0977 0.58188,-0.79633 0.19482,-0.62994 -0.0672,-3.653 0.13384,-0.0439 0.30231,3.3538 0.38499,0.14779 0.29714,1.97146 1.6831,2.79001 0.53692,0.45062 0.0904,3.14864 0.32814,0.46664 0.18449,5.31441 0.41961,2.30528 0.001,2.50062 0.37465,0.0956 0.50436,-1.50585 0.78858,-4.59765 0.0429,-1.22938 -0.31265,-2.7957 -0.59789,-3.12332 -1.65468,-4.71651 -1.60817,-3.27112 -1.36271,-2.09341 -0.50746,-1.264 0.22324,-3.09026 0.83096,-3.38532 0.0269,-0.0351 h -0.0186 z m -48.95567,34.848 -1.28312,0.74983 0.015,0.80305 1.27795,-0.006 z m -2.0283,1.12241 -2.65823,1.19838 -1.09038,-0.006 0.0439,10.50168 1.82057,0.006 0.007,-9.45368 1.87327,-1.63246 z" />
  </g>
</svg>
