<?xml version="1.0" encoding="UTF-8" standalone="no"?>
<!-- Created with Inkscape (http://www.inkscape.org/) -->

<svg
   width="259.32303mm"
   height="20.097523mm"
   viewBox="0 0 980.11855 75.959143"
   version="1.1"
   id="svg1"
   inkscape:version="1.3.2 (091e20ef0f, 2023-11-25, custom)"
   sodipodi:docname="text-white.svg"
   xmlns:inkscape="http://www.inkscape.org/namespaces/inkscape"
   xmlns:sodipodi="http://sodipodi.sourceforge.net/DTD/sodipodi-0.dtd"
   xmlns="http://www.w3.org/2000/svg"
   xmlns:svg="http://www.w3.org/2000/svg">
  <sodipodi:namedview
     id="namedview1"
     pagecolor="#ffffff"
     bordercolor="#999999"
     borderopacity="1"
     inkscape:showpageshadow="2"
     inkscape:pageopacity="0"
     inkscape:pagecheckerboard="0"
     inkscape:deskcolor="#d1d1d1"
     inkscape:document-units="mm"
     inkscape:zoom="0.57"
     inkscape:cx="279.82456"
     inkscape:cy="52.631579"
     inkscape:window-width="1902"
     inkscape:window-height="1006"
     inkscape:window-x="7"
     inkscape:window-y="35"
     inkscape:window-maximized="1"
     inkscape:current-layer="layer1" />
  <defs
     id="defs1">
    <rect
       x="92.594444"
       y="155.07071"
       width="871.36597"
       height="123.68888"
       id="rect1" />
  </defs>
  <g
     inkscape:label="Layer 1"
     inkscape:groupmode="layer"
     id="layer1"
     transform="translate(-81.117719,-363.40617)">
    <g
       id="text1"
       style="font-size:8.91539px;font-family:'JetBrains Mono';-inkscape-font-specification:'JetBrains Mono, Normal';white-space:pre;fill:#ffffff"
       transform="matrix(1.4314519,0,0,1,-51.42578,209.42597)"
       aria-label="     ██╗███████╗ █████╗ ███╗   ██╗███╗   ██╗███████╗    ██████╗ ██╗  ██╗ █████╗  ██████╗██╗  ██╗     ██████╗████████╗███████╗    &#10;     ██║██╔════╝██╔══██╗████╗  ██║████╗  ██║██╔════╝    ██╔══██╗██║  ██║██╔══██╗██╔════╝██║ ██╔╝    ██╔════╝╚══██╔══╝██╔════╝    &#10;     ██║█████╗  ███████║██╔██╗ ██║██╔██╗ ██║█████╗      ██║  ██║███████║███████║██║     █████╔╝     ██║        ██║   █████╗      &#10;██   ██║██╔══╝  ██╔══██║██║╚██╗██║██║╚██╗██║██╔══╝      ██║  ██║██╔══██║██╔══██║██║     ██╔═██╗     ██║        ██║   ██╔══╝      &#10;╚█████╔╝███████╗██║  ██║██║ ╚████║██║ ╚████║███████╗    ██████╔╝██║  ██║██║  ██║╚██████╗██║  ██╗    ╚██████╗   ██║   ██║         &#10; ╚════╝ ╚══════╝╚═╝  ╚═╝╚═╝  ╚═══╝╚═╝  ╚═══╝╚══════╝    ╚═════╝ ╚═╝  ╚═╝╚═╝  ╚═╝ ╚═════╝╚═╝  ╚═╝     ╚═════╝   ╚═╝   ╚═╝         &#10;                                                                                                                                 ">
      <path
         d="M 119.33994,165.74852 V 153.9802 h 5.34923 v 11.76832 z m 5.34923,0 V 153.9802 h 5.34924 v 11.76832 z m 8.46963,0.89154 v -7.31062 h -3.29869 v -0.89154 h 4.19023 v 8.20216 z m -1.78308,0 v -5.52754 h -1.51561 v -0.89154 h 2.40715 v 6.41908 z m 4.01193,-0.89154 V 153.9802 h 5.34923 v 11.76832 z m 5.34924,0 V 153.9802 h 5.34923 v 11.76832 z m 5.34923,0 V 153.9802 h 5.34924 v 11.76832 z m 5.34924,0 V 153.9802 h 5.34924 v 11.76832 z m 5.34924,0 V 153.9802 h 5.34923 v 11.76832 z m 5.34923,0 V 153.9802 h 5.34924 v 11.76832 z m 5.34925,0 V 153.9802 h 5.34923 v 11.76832 z m 8.46962,0.89154 v -7.31062 h -3.29869 v -0.89154 h 4.19023 v 8.20216 z m -1.78308,0 v -5.52754 h -1.51561 v -0.89154 h 2.40715 v 6.41908 z m 9.36116,-0.89154 V 153.9802 h 5.34924 v 11.76832 z m 5.34924,0 V 153.9802 h 5.34923 v 11.76832 z m 5.34924,0 V 153.9802 h 5.34924 v 11.76832 z m 5.34924,0 V 153.9802 h 5.34923 v 11.76832 z m 5.34923,0 V 153.9802 h 5.34924 v 11.76832 z m 8.46963,0.89154 v -7.31062 h -3.29869 v -0.89154 h 4.19023 v 8.20216 z m -1.78307,0 v -5.52754 h -1.51562 v -0.89154 h 2.40716 v 6.41908 z m 9.36116,-0.89154 V 153.9802 h 5.34923 v 11.76832 z m 5.34924,0 V 153.9802 h 5.34924 v 11.76832 z m 5.34923,0 V 153.9802 h 5.34923 v 11.76832 z m 8.46963,0.89154 v -7.31062 h -3.29869 v -0.89154 h 4.19023 v 8.20216 z m -1.78308,0 v -5.52754 h -1.51561 v -0.89154 h 2.40715 v 6.41908 z m 20.05963,-0.89154 V 153.9802 h 5.34924 v 11.76832 z m 5.34925,0 V 153.9802 h 5.34923 v 11.76832 z m 8.46963,0.89154 v -7.31062 h -3.2987 v -0.89154 h 4.19024 v 8.20216 z m -1.78308,0 v -5.52754 h -1.51562 v -0.89154 h 2.40716 v 6.41908 z m 4.01192,-0.89154 V 153.9802 h 5.34923 v 11.76832 z m 5.34924,0 V 153.9802 h 5.34924 v 11.76832 z m 5.34923,0 V 153.9802 h 5.34923 v 11.76832 z m 8.46963,0.89154 v -7.31062 h -3.29869 v -0.89154 h 4.19023 v 8.20216 z m -1.78308,0 v -5.52754 h -1.51561 v -0.89154 h 2.40715 v 6.41908 z m 20.05965,-0.89154 V 153.9802 h 5.34923 v 11.76832 z m 5.34923,0 V 153.9802 h 5.34923 v 11.76832 z m 8.46963,0.89154 v -7.31062 h -3.2987 v -0.89154 h 4.19024 v 8.20216 z m -1.78308,0 v -5.52754 h -1.51562 v -0.89154 h 2.40716 v 6.41908 z m 4.01194,-0.89154 V 153.9802 h 5.34923 v 11.76832 z m 5.34922,0 V 153.9802 h 5.34924 v 11.76832 z m 5.34925,0 V 153.9802 h 5.34923 v 11.76832 z m 5.34922,0 V 153.9802 h 5.34924 v 11.76832 z m 5.34925,0 V 153.9802 h 5.34923 v 11.76832 z m 5.34924,0 V 153.9802 h 5.34923 v 11.76832 z m 5.34924,0 V 153.9802 h 5.34924 v 11.76832 z m 8.4696,0.89154 v -7.31062 h -3.29869 v -0.89154 h 4.19023 v 8.20216 z m -1.78308,0 v -5.52754 h -1.51561 v -0.89154 h 2.40715 v 6.41908 z m 25.40891,-0.89154 V 153.9802 h 5.34924 v 11.76832 z m 5.34921,0 V 153.9802 h 5.34924 v 11.76832 z m 5.34925,0 V 153.9802 h 5.34923 v 11.76832 z m 5.34924,0 V 153.9802 h 5.34923 v 11.76832 z m 5.34924,0 V 153.9802 h 5.34924 v 11.76832 z m 5.34925,0 V 153.9802 h 5.34923 v 11.76832 z m 8.4696,0.89154 v -7.31062 h -3.2987 v -0.89154 h 4.19024 v 8.20216 z m -1.78308,0 v -5.52754 h -1.51562 v -0.89154 h 2.40716 v 6.41908 z m 9.36118,-0.89154 V 153.9802 h 5.34923 v 11.76832 z m 5.34924,0 V 153.9802 h 5.34923 v 11.76832 z m 8.46963,0.89154 v -7.31062 h -3.2987 v -0.89154 h 4.19024 v 8.20216 z m -1.78308,0 v -5.52754 h -1.51562 v -0.89154 h 2.40716 v 6.41908 z m 14.71039,-0.89154 V 153.9802 h 5.34924 v 11.76832 z m 5.34924,0 V 153.9802 h 5.34924 v 11.76832 z m 8.46963,0.89154 v -7.31062 h -3.29869 v -0.89154 h 4.19023 v 8.20216 z m -1.78307,0 v -5.52754 h -1.51562 v -0.89154 h 2.40716 v 6.41908 z m 9.36114,-0.89154 V 153.9802 h 5.34924 v 11.76832 z m 5.34925,0 V 153.9802 h 5.34923 v 11.76832 z m 5.34924,0 V 153.9802 h 5.34923 v 11.76832 z m 5.34924,0 V 153.9802 h 5.34924 v 11.76832 z m 5.34925,0 V 153.9802 h 5.34923 v 11.76832 z m 8.4696,0.89154 v -7.31062 h -3.2987 v -0.89154 h 4.19023 v 8.20216 z m -1.78308,0 v -5.52754 h -1.51562 v -0.89154 h 2.40716 v 6.41908 z m 14.71042,-0.89154 V 153.9802 h 5.34923 v 11.76832 z m 5.34924,0 V 153.9802 h 5.34924 v 11.76832 z m 5.34921,0 V 153.9802 h 5.34924 v 11.76832 z m 5.34925,0 V 153.9802 h 5.34923 v 11.76832 z m 5.34924,0 V 153.9802 h 5.34923 v 11.76832 z m 5.34924,0 V 153.9802 h 5.34924 v 11.76832 z m 8.46963,0.89154 v -7.31062 h -3.29869 v -0.89154 h 4.19023 v 8.20216 z m -1.78307,0 v -5.52754 h -1.51562 v -0.89154 h 2.40715 v 6.41908 z m 4.01193,-0.89154 V 153.9802 h 5.34923 v 11.76832 z m 5.34921,0 V 153.9802 h 5.34924 v 11.76832 z m 8.46963,0.89154 v -7.31062 h -3.29869 v -0.89154 h 4.19023 v 8.20216 z m -1.78308,0 v -5.52754 h -1.51561 v -0.89154 h 2.40715 v 6.41908 z m 14.71043,-0.89154 V 153.9802 h 5.34923 v 11.76832 z m 5.34921,0 V 153.9802 h 5.34923 v 11.76832 z m 8.46963,0.89154 v -7.31062 h -3.2987 v -0.89154 h 4.19024 v 8.20216 z m -1.78308,0 v -5.52754 h -1.51562 v -0.89154 h 2.40716 v 6.41908 z m 30.75815,-0.89154 V 153.9802 h 5.34923 v 11.76832 z m 5.34918,0 V 153.9802 h 5.34924 v 11.76832 z m 5.34925,0 V 153.9802 h 5.34923 v 11.76832 z m 5.34924,0 V 153.9802 h 5.34923 v 11.76832 z m 5.34924,0 V 153.9802 h 5.34924 v 11.76832 z m 5.34925,0 V 153.9802 h 5.34923 v 11.76832 z m 8.46962,0.89154 v -7.31062 h -3.29869 v -0.89154 h 4.19023 v 8.20216 z m -1.78307,0 v -5.52754 h -1.51562 v -0.89154 h 2.40716 v 6.41908 z m 4.01193,-0.89154 V 153.9802 h 5.34924 v 11.76832 z m 5.34924,0 V 153.9802 h 5.34924 v 11.76832 z m 5.34925,0 V 153.9802 h 5.34923 v 11.76832 z m 5.34924,0 V 153.9802 h 5.34923 v 11.76832 z m 5.34924,0 V 153.9802 h 5.34924 v 11.76832 z m 5.34919,0 V 153.9802 h 5.34923 v 11.76832 z m 5.34924,0 V 153.9802 h 5.34923 v 11.76832 z m 5.34924,0 V 153.9802 h 5.34924 v 11.76832 z m 8.46963,0.89154 v -7.31062 h -3.29869 v -0.89154 h 4.19023 v 8.20216 z m -1.78308,0 v -5.52754 h -1.51561 v -0.89154 h 2.40715 v 6.41908 z m 4.01194,-0.89154 V 153.9802 h 5.34923 v 11.76832 z m 5.34924,0 V 153.9802 h 5.34924 v 11.76832 z m 5.34925,0 V 153.9802 h 5.34923 v 11.76832 z m 5.34924,0 V 153.9802 h 5.34923 v 11.76832 z m 5.34924,0 V 153.9802 h 5.34924 v 11.76832 z m 5.34924,0 V 153.9802 h 5.34924 v 11.76832 z m 5.34919,0 V 153.9802 h 5.34923 v 11.76832 z m 8.46963,0.89154 v -7.31062 h -3.2987 v -0.89154 h 4.19024 v 8.20216 z m -1.78308,0 v -5.52754 h -1.51562 v -0.89154 h 2.40716 v 6.41908 z"
         id="path1" />
      <path
         d="m 119.33994,176.89276 v -11.76832 h 5.34923 v 11.76832 z m 5.34923,0 v -11.76832 h 5.34924 v 11.76832 z m 8.46963,0.89154 v -13.55139 h 0.89154 v 13.55139 z m -1.78308,0 v -13.55139 h 0.89154 v 13.55139 z m 4.01193,-0.89154 v -11.76832 h 5.34923 v 11.76832 z m 5.34924,0 v -11.76832 h 5.34923 v 11.76832 z m 6.68654,0.89154 v -8.20216 h 4.19024 v 0.89154 h -3.2987 v 7.31062 z m 1.78308,0 v -6.41908 h 2.40716 v 0.89154 h -1.51562 v 5.52754 z m 2.05055,-7.31062 v -0.89154 h 5.70585 v 0.89154 z m 0,1.78308 v -0.89154 h 5.70585 v 0.89154 z m 5.34923,-1.78308 v -0.89154 h 5.70585 v 0.89154 z m 0,1.78308 v -0.89154 h 5.70585 v 0.89154 z m 5.34924,-1.78308 v -0.89154 h 5.70585 v 0.89154 z m 0,1.78308 v -0.89154 h 5.70585 v 0.89154 z m 5.34924,-1.78308 v -0.89154 h 5.70585 v 0.89154 z m 0,1.78308 v -0.89154 h 5.70585 v 0.89154 z m 5.34924,0 v -0.89154 h 3.29869 v -7.13231 h 0.89154 v 8.02385 z m 0,-1.78308 v -0.89154 h 1.51561 v -5.34923 h 0.89154 v 6.24077 z m 5.52754,6.41908 v -11.76832 h 5.34923 v 11.76832 z m 5.34923,0 v -11.76832 h 5.34924 v 11.76832 z m 6.68655,0.89154 v -8.20216 h 4.19023 v 0.89154 h -3.29869 v 7.31062 z m 1.78308,0 v -6.41908 h 2.40715 v 0.89154 h -1.51561 v 5.52754 z m 2.05055,-7.31062 v -0.89154 h 5.70585 v 0.89154 z m 0,1.78308 v -0.89154 h 5.70585 v 0.89154 z m 5.34923,-1.78308 v -0.89154 h 5.70585 v 0.89154 z m 0,1.78308 v -0.89154 h 5.70585 v 0.89154 z m 5.52754,4.636 v -11.76832 h 5.34924 v 11.76832 z m 5.34925,0 v -11.76832 h 5.34923 v 11.76832 z m 8.46962,0.89154 v -7.31062 h -3.29869 v -0.89154 h 4.19023 v 8.20216 z m -1.78308,0 v -5.52754 h -1.51561 v -0.89154 h 2.40715 v 6.41908 z m 4.01193,-0.89154 v -11.76832 h 5.34923 v 11.76832 z m 5.34924,0 v -11.76832 h 5.34924 v 11.76832 z m 5.34923,0 v -11.76832 h 5.34923 v 11.76832 z m 5.34924,0 v -11.76832 h 5.34924 v 11.76832 z m 8.46963,0.89154 v -7.31062 h -3.29869 v -0.89154 h 4.19023 v 8.20216 z m -1.78308,0 v -5.52754 h -1.51561 v -0.89154 h 2.40715 v 6.41908 z m 14.71039,-0.89154 v -11.76832 h 5.34924 v 11.76832 z m 5.34925,0 v -11.76832 h 5.34923 v 11.76832 z m 8.46963,0.89154 v -13.55139 h 0.89154 v 13.55139 z m -1.78308,0 v -13.55139 h 0.89154 v 13.55139 z m 4.01192,-0.89154 v -11.76832 h 5.34923 v 11.76832 z m 5.34924,0 v -11.76832 h 5.34924 v 11.76832 z m 5.34923,0 v -11.76832 h 5.34923 v 11.76832 z m 5.34924,0 v -11.76832 h 5.34924 v 11.76832 z m 8.46963,0.89154 v -7.31062 h -3.29869 v -0.89154 h 4.19023 v 8.20216 z m -1.78307,0 v -5.52754 h -1.51562 v -0.89154 h 2.40715 v 6.41908 z m 14.7104,-0.89154 v -11.76832 h 5.34923 v 11.76832 z m 5.34923,0 v -11.76832 h 5.34923 v 11.76832 z m 8.46963,0.89154 v -13.55139 h 0.89154 v 13.55139 z m -1.78308,0 v -13.55139 h 0.89154 v 13.55139 z m 4.01194,-0.89154 v -11.76832 h 5.34923 v 11.76832 z m 5.34922,0 v -11.76832 h 5.34924 v 11.76832 z m 6.68655,0.89154 v -8.20216 h 4.19024 v 0.89154 h -3.2987 v 7.31062 z m 1.78308,0 v -6.41908 h 2.40716 v 0.89154 h -1.51562 v 5.52754 z m 2.05054,-7.31062 v -0.89154 h 5.70585 v 0.89154 z m 0,1.78308 v -0.89154 h 5.70585 v 0.89154 z m 5.34924,-1.78308 v -0.89154 h 5.70585 v 0.89154 z m 0,1.78308 v -0.89154 h 5.70585 v 0.89154 z m 5.34924,-1.78308 v -0.89154 h 5.70585 v 0.89154 z m 0,1.78308 v -0.89154 h 5.70585 v 0.89154 z m 5.34925,-1.78308 v -0.89154 h 5.70585 v 0.89154 z m 0,1.78308 v -0.89154 h 5.70585 v 0.89154 z m 5.34921,0 v -0.89154 h 3.29869 v -7.13231 h 0.89154 v 8.02385 z m 0,-1.78308 v -0.89154 h 1.51561 v -5.34923 h 0.89154 v 6.24077 z m 26.92452,6.41908 v -11.76832 h 5.34924 v 11.76832 z m 5.34921,0 v -11.76832 h 5.34924 v 11.76832 z m 6.68656,0.89154 v -8.20216 h 4.19023 v 0.89154 h -3.29869 v 7.31062 z m 1.78307,0 v -6.41908 h 2.40716 v 0.89154 h -1.51562 v 5.52754 z m 2.05055,-7.31062 v -0.89154 h 5.70585 v 0.89154 z m 0,1.78308 v -0.89154 h 5.70585 v 0.89154 z m 5.34925,-1.78308 v -0.89154 h 5.70585 v 0.89154 z m 0,1.78308 v -0.89154 h 5.70585 v 0.89154 z m 5.52755,4.636 v -11.76832 h 5.34923 v 11.76832 z m 5.34921,0 v -11.76832 h 5.34923 v 11.76832 z m 8.46963,0.89154 v -7.31062 h -3.29869 v -0.89154 h 4.19023 v 8.20216 z m -1.78308,0 v -5.52754 h -1.51561 v -0.89154 h 2.40715 v 6.41908 z m 4.01194,-0.89154 v -11.76832 h 5.34923 v 11.76832 z m 5.34924,0 v -11.76832 h 5.34923 v 11.76832 z m 8.46963,0.89154 v -13.55139 h 0.89154 v 13.55139 z m -1.78308,0 v -13.55139 h 0.89154 v 13.55139 z m 14.71039,-0.89154 v -11.76832 h 5.34924 v 11.76832 z m 5.34924,0 v -11.76832 h 5.34924 v 11.76832 z m 8.46963,0.89154 v -13.55139 h 0.89154 v 13.55139 z m -1.78307,0 v -13.55139 h 0.89154 v 13.55139 z m 4.0119,-0.89154 v -11.76832 h 5.34923 v 11.76832 z m 5.34924,0 v -11.76832 h 5.34924 v 11.76832 z m 6.68656,0.89154 v -8.20216 h 4.19023 v 0.89154 h -3.2987 v 7.31062 z m 1.78307,0 v -6.41908 h 2.40716 v 0.89154 h -1.51562 v 5.52754 z m 2.05055,-7.31062 v -0.89154 h 5.70585 v 0.89154 z m 0,1.78308 v -0.89154 h 5.70585 v 0.89154 z m 5.34925,-1.78308 v -0.89154 h 5.70585 v 0.89154 z m 0,1.78308 v -0.89154 h 5.70585 v 0.89154 z m 5.52755,4.636 v -11.76832 h 5.34923 v 11.76832 z m 5.34921,0 v -11.76832 h 5.34923 v 11.76832 z m 8.46963,0.89154 v -7.31062 h -3.2987 v -0.89154 h 4.19024 v 8.20216 z m -1.78308,0 v -5.52754 h -1.51562 v -0.89154 h 2.40716 v 6.41908 z m 4.01194,-0.89154 v -11.76832 h 5.34923 v 11.76832 z m 5.34924,0 v -11.76832 h 5.34923 v 11.76832 z m 6.68655,0.89154 v -8.20216 h 4.19023 v 0.89154 h -3.29869 v 7.31062 z m 1.78308,0 v -6.41908 h 2.40715 v 0.89154 h -1.51561 v 5.52754 z m 2.05052,-7.31062 v -0.89154 h 5.70585 v 0.89154 z m 0,1.78308 v -0.89154 h 5.70585 v 0.89154 z m 5.34924,-1.78308 v -0.89154 h 5.70585 v 0.89154 z m 0,1.78308 v -0.89154 h 5.70585 v 0.89154 z m 5.34924,-1.78308 v -0.89154 h 5.70585 v 0.89154 z m 0,1.78308 v -0.89154 h 5.70585 v 0.89154 z m 5.34925,-1.78308 v -0.89154 h 5.70585 v 0.89154 z m 0,1.78308 v -0.89154 h 5.70585 v 0.89154 z m 5.34924,0 v -0.89154 h 3.29869 v -7.13231 h 0.89154 v 8.02385 z m 0,-1.78308 v -0.89154 h 1.51562 v -5.34923 h 0.89153 v 6.24077 z m 5.52755,6.41908 v -11.76832 h 5.34923 v 11.76832 z m 5.34921,0 v -11.76832 h 5.34924 v 11.76832 z m 8.46963,0.89154 v -13.55139 h 0.89154 v 13.55139 z m -1.78308,0 v -13.55139 h 0.89154 v 13.55139 z m 9.36118,-0.89154 v -11.76832 h 5.34924 v 11.76832 z m 5.34925,0 v -11.76832 h 5.34923 v 11.76832 z m 6.68652,0.89154 v -8.20216 h 4.19023 v 0.89154 h -3.29869 v 7.31062 z m 1.78307,0 v -6.41908 h 2.40716 v 0.89154 h -1.51562 v 5.52754 z m 2.05055,-5.52754 v -0.89154 h 3.2987 v -7.13231 h 0.89154 v 8.02385 z m 0,-1.78308 v -0.89154 h 1.51562 v -5.34923 h 0.89154 v 6.24077 z m 26.92453,6.41908 v -11.76832 h 5.34923 v 11.76832 z m 5.34924,0 v -11.76832 h 5.34923 v 11.76832 z m 6.68649,0.89154 v -8.20216 h 4.19023 v 0.89154 h -3.29869 v 7.31062 z m 1.78308,0 v -6.41908 h 2.40715 v 0.89154 h -1.51561 v 5.52754 z m 2.05055,-7.31062 v -0.89154 h 5.70585 v 0.89154 z m 0,1.78308 v -0.89154 h 5.70585 v 0.89154 z m 5.34924,-1.78308 v -0.89154 h 5.70585 v 0.89154 z m 0,1.78308 v -0.89154 h 5.70585 v 0.89154 z m 5.34924,-1.78308 v -0.89154 h 5.70585 v 0.89154 z m 0,1.78308 v -0.89154 h 5.70585 v 0.89154 z m 5.34925,-1.78308 v -0.89154 h 5.70585 v 0.89154 z m 0,1.78308 v -0.89154 h 5.70585 v 0.89154 z m 5.34924,0 v -0.89154 h 3.29869 v -7.13231 h 0.89154 v 8.02385 z m 0,-1.78308 v -0.89154 h 1.51562 v -5.34923 h 0.89154 v 6.24077 z m 6.86486,1.78308 v -8.02385 h 0.89154 v 7.13231 h 3.29869 v 0.89154 z m 1.78308,-1.78308 v -6.24077 h 0.89154 v 5.34923 h 1.51561 v 0.89154 z m 2.05055,0 v -0.89154 h 5.70585 v 0.89154 z m 0,1.78308 v -0.89154 h 5.70585 v 0.89154 z m 5.34924,-1.78308 v -0.89154 h 5.70585 v 0.89154 z m 0,1.78308 v -0.89154 h 5.70585 v 0.89154 z m 5.52755,4.636 v -11.76832 h 5.34923 v 11.76832 z m 5.34924,0 v -11.76832 h 5.34924 v 11.76832 z m 6.68649,0.89154 v -8.20216 h 4.19024 v 0.89154 h -3.2987 v 7.31062 z m 1.78308,0 v -6.41908 h 2.40716 v 0.89154 h -1.51562 v 5.52754 z m 2.05055,-7.31062 v -0.89154 h 5.70585 v 0.89154 z m 0,1.78308 v -0.89154 h 5.70585 v 0.89154 z m 5.34924,-1.78308 v -0.89154 h 5.70585 v 0.89154 z m 0,1.78308 v -0.89154 h 5.70585 v 0.89154 z m 5.34925,0 v -0.89154 h 3.29869 v -7.13231 h 0.89154 v 8.02385 z m 0,-1.78308 v -0.89154 h 1.51561 v -5.34923 h 0.89154 v 6.24077 z m 5.52755,6.41908 v -11.76832 h 5.34923 v 11.76832 z m 5.34924,0 v -11.76832 h 5.34924 v 11.76832 z m 6.68655,0.89154 v -8.20216 h 4.19024 v 0.89154 h -3.2987 v 7.31062 z m 1.78308,0 v -6.41908 h 2.40716 v 0.89154 h -1.51562 v 5.52754 z m 2.05055,-7.31062 v -0.89154 h 5.70585 v 0.89154 z m 0,1.78308 v -0.89154 h 5.70585 v 0.89154 z m 5.34924,-1.78308 v -0.89154 h 5.70585 v 0.89154 z m 0,1.78308 v -0.89154 h 5.70585 v 0.89154 z m 5.34925,-1.78308 v -0.89154 h 5.70585 v 0.89154 z m 0,1.78308 v -0.89154 h 5.70585 v 0.89154 z m 5.34918,-1.78308 v -0.89154 h 5.70585 v 0.89154 z m 0,1.78308 v -0.89154 h 5.70585 v 0.89154 z m 5.34924,0 v -0.89154 h 3.2987 v -7.13231 h 0.89154 v 8.02385 z m 0,-1.78308 v -0.89154 h 1.51562 v -5.34923 h 0.89154 v 6.24077 z"
         id="path2" />
      <path
         d="m 119.33994,188.037 v -11.76831 h 5.34923 V 188.037 Z m 5.34923,0 v -11.76831 h 5.34924 V 188.037 Z m 8.46963,0.89154 v -13.55139 h 0.89154 v 13.55139 z m -1.78308,0 v -13.55139 h 0.89154 v 13.55139 z m 4.01193,-0.89154 v -11.76831 h 5.34923 V 188.037 Z m 5.34924,0 v -11.76831 h 5.34923 V 188.037 Z m 5.34923,0 v -11.76831 h 5.34924 V 188.037 Z m 5.34924,0 v -11.76831 h 5.34924 V 188.037 Z m 5.34924,0 v -11.76831 h 5.34923 V 188.037 Z m 8.46962,0.89154 v -7.31062 h -3.29869 v -0.89154 h 4.19023 v 8.20216 z m -1.78308,0 V 183.401 h -1.51561 v -0.89154 h 2.40715 v 6.41908 z m 14.71041,-0.89154 v -11.76831 h 5.34923 V 188.037 Z m 5.34923,0 v -11.76831 h 5.34924 V 188.037 Z m 5.34924,0 v -11.76831 h 5.34923 V 188.037 Z m 5.34924,0 v -11.76831 h 5.34924 V 188.037 Z m 5.34924,0 v -11.76831 h 5.34923 V 188.037 Z m 5.34923,0 v -11.76831 h 5.34924 V 188.037 Z m 5.34925,0 v -11.76831 h 5.34923 V 188.037 Z m 8.46962,0.89154 v -13.55139 h 0.89154 v 13.55139 z m -1.78308,0 v -13.55139 h 0.89154 v 13.55139 z m 4.01193,-0.89154 v -11.76831 h 5.34923 V 188.037 Z m 5.34924,0 v -11.76831 h 5.34924 V 188.037 Z m 6.68654,0.89154 v -8.20216 h 4.19023 v 0.89154 h -3.29869 v 7.31062 z m 1.78308,0 v -6.41908 h 2.40715 v 0.89154 h -1.51561 v 5.52754 z m 2.22885,-0.89154 v -11.76831 h 5.34924 V 188.037 Z m 5.34925,0 v -11.76831 h 5.34923 V 188.037 Z m 8.46961,0.89154 v -7.31062 h -3.29869 v -0.89154 h 4.19023 v 8.20216 z m -1.78308,0 V 183.401 h -1.51561 v -0.89154 h 2.40715 v 6.41908 z m 9.36116,-0.89154 v -11.76831 h 5.34924 V 188.037 Z m 5.34925,0 v -11.76831 h 5.34923 V 188.037 Z m 8.46963,0.89154 v -13.55139 h 0.89154 v 13.55139 z m -1.78308,0 v -13.55139 h 0.89154 v 13.55139 z m 4.01192,-0.89154 v -11.76831 h 5.34923 V 188.037 Z m 5.34924,0 v -11.76831 h 5.34924 V 188.037 Z m 6.68654,0.89154 v -8.20216 h 4.19023 v 0.89154 h -3.29869 v 7.31062 z m 1.78308,0 v -6.41908 h 2.40715 v 0.89154 h -1.51561 v 5.52754 z m 2.22885,-0.89154 v -11.76831 h 5.34924 V 188.037 Z m 5.34925,0 v -11.76831 h 5.34923 V 188.037 Z m 8.46961,0.89154 v -7.31062 h -3.29869 v -0.89154 h 4.19023 v 8.20216 z m -1.78308,0 V 183.401 h -1.51561 v -0.89154 h 2.40715 v 6.41908 z m 9.36118,-0.89154 v -11.76831 h 5.34923 V 188.037 Z m 5.34923,0 v -11.76831 h 5.34923 V 188.037 Z m 8.46963,0.89154 v -13.55139 h 0.89154 v 13.55139 z m -1.78308,0 v -13.55139 h 0.89154 v 13.55139 z m 4.01194,-0.89154 v -11.76831 h 5.34923 V 188.037 Z m 5.34922,0 v -11.76831 h 5.34924 V 188.037 Z m 5.34925,0 v -11.76831 h 5.34923 V 188.037 Z m 5.34922,0 v -11.76831 h 5.34924 V 188.037 Z m 5.34925,0 v -11.76831 h 5.34923 V 188.037 Z m 8.46963,0.89154 v -7.31062 h -3.2987 v -0.89154 h 4.19024 v 8.20216 z m -1.78308,0 V 183.401 h -1.51562 v -0.89154 h 2.40716 v 6.41908 z m 36.10736,-0.89154 v -11.76831 h 5.34924 V 188.037 Z m 5.34921,0 v -11.76831 h 5.34924 V 188.037 Z m 8.46963,0.89154 v -13.55139 h 0.89154 v 13.55139 z m -1.78307,0 v -13.55139 h 0.89154 v 13.55139 z m 14.71042,-0.89154 v -11.76831 h 5.34923 V 188.037 Z m 5.34921,0 v -11.76831 h 5.34923 V 188.037 Z m 8.46963,0.89154 v -13.55139 h 0.89154 v 13.55139 z m -1.78308,0 v -13.55139 h 0.89154 v 13.55139 z m 4.01194,-0.89154 v -11.76831 h 5.34923 V 188.037 Z m 5.34924,0 v -11.76831 h 5.34923 V 188.037 Z m 5.34924,0 v -11.76831 h 5.34924 V 188.037 Z m 5.34922,0 v -11.76831 h 5.34923 V 188.037 Z m 5.34924,0 v -11.76831 h 5.34923 V 188.037 Z m 5.34924,0 v -11.76831 h 5.34924 V 188.037 Z m 5.34924,0 v -11.76831 h 5.34924 V 188.037 Z m 8.46963,0.89154 v -13.55139 h 0.89154 v 13.55139 z m -1.78307,0 v -13.55139 h 0.89154 v 13.55139 z m 4.0119,-0.89154 v -11.76831 h 5.34923 V 188.037 Z m 5.34924,0 v -11.76831 h 5.34924 V 188.037 Z m 5.34925,0 v -11.76831 h 5.34923 V 188.037 Z m 5.34924,0 v -11.76831 h 5.34923 V 188.037 Z m 5.34924,0 v -11.76831 h 5.34924 V 188.037 Z m 5.34925,0 v -11.76831 h 5.34923 V 188.037 Z m 5.34921,0 v -11.76831 h 5.34923 V 188.037 Z m 8.46963,0.89154 v -13.55139 h 0.89154 v 13.55139 z m -1.78308,0 v -13.55139 h 0.89154 v 13.55139 z m 4.01194,-0.89154 v -11.76831 h 5.34923 V 188.037 Z m 5.34924,0 v -11.76831 h 5.34923 V 188.037 Z m 8.46963,0.89154 v -13.55139 h 0.89154 v 13.55139 z m -1.78308,0 v -13.55139 h 0.89154 v 13.55139 z m 30.75812,-0.89154 v -11.76831 h 5.34923 V 188.037 Z m 5.34921,0 v -11.76831 h 5.34924 V 188.037 Z m 5.34925,0 v -11.76831 h 5.34923 V 188.037 Z m 5.34924,0 v -11.76831 h 5.34923 V 188.037 Z m 5.34924,0 v -11.76831 h 5.34924 V 188.037 Z m 6.68655,0.89154 v -8.20216 h 4.19024 v 0.89154 h -3.2987 v 7.31062 z m 1.78308,0 v -6.41908 h 2.40716 v 0.89154 h -1.51562 v 5.52754 z m 2.05052,-5.52754 v -0.89154 h 3.29869 v -7.13231 h 0.89154 v 8.02385 z m 0,-1.78308 v -0.89154 h 1.51562 v -5.34923 h 0.89154 v 6.24077 z m 32.27377,6.41908 v -11.76831 h 5.34923 V 188.037 Z m 5.34924,0 v -11.76831 h 5.34923 V 188.037 Z m 8.46957,0.89154 v -13.55139 h 0.89154 v 13.55139 z m -1.78308,0 v -13.55139 h 0.89154 v 13.55139 z m 46.80588,-0.89154 v -11.76831 h 5.34923 V 188.037 Z m 5.34924,0 v -11.76831 h 5.34924 V 188.037 Z m 8.46957,0.89154 v -13.55139 h 0.89154 v 13.55139 z m -1.78308,0 v -13.55139 h 0.89154 v 13.55139 z m 20.05967,-0.89154 v -11.76831 h 5.34923 V 188.037 Z m 5.34924,0 v -11.76831 h 5.34924 V 188.037 Z m 5.34925,0 v -11.76831 h 5.34923 V 188.037 Z m 5.34924,0 v -11.76831 h 5.34923 V 188.037 Z m 5.34924,0 v -11.76831 h 5.34924 V 188.037 Z m 8.46963,0.89154 v -7.31062 h -3.29869 v -0.89154 h 4.19023 v 8.20216 z m -1.78308,0 V 183.401 h -1.51561 v -0.89154 h 2.40715 v 6.41908 z"
         id="path3" />
      <path
         d="m 92.59375,199.18124 v -11.76831 h 5.349234 v 11.76831 z m 5.349237,0 v -11.76831 h 5.349233 v 11.76831 z m 21.396953,0 v -11.76831 h 5.34923 v 11.76831 z m 5.34923,0 v -11.76831 h 5.34924 v 11.76831 z m 8.46963,0.89154 v -13.55139 h 0.89154 v 13.55139 z m -1.78308,0 v -13.55139 h 0.89154 v 13.55139 z m 4.01193,-0.89154 v -11.76831 h 5.34923 v 11.76831 z m 5.34924,0 v -11.76831 h 5.34923 v 11.76831 z m 6.68654,0.89154 v -8.20216 h 4.19024 v 0.89154 h -3.2987 v 7.31062 z m 1.78308,0 v -6.41908 h 2.40716 v 0.89154 h -1.51562 v 5.52754 z m 2.05055,-7.31062 v -0.89154 h 5.70585 v 0.89154 z m 0,1.78308 v -0.89154 h 5.70585 v 0.89154 z m 5.34923,-1.78308 v -0.89154 h 5.70585 v 0.89154 z m 0,1.78308 v -0.89154 h 5.70585 v 0.89154 z m 5.34924,0 v -0.89154 h 3.29869 v -7.13231 h 0.89154 v 8.02385 z m 0,-1.78308 v -0.89154 h 1.51561 v -5.34923 h 0.89154 v 6.24077 z m 16.22602,6.41908 v -11.76831 h 5.34923 v 11.76831 z m 5.34923,0 v -11.76831 h 5.34924 v 11.76831 z m 6.68655,0.89154 v -8.20216 h 4.19023 v 0.89154 h -3.29869 v 7.31062 z m 1.78308,0 v -6.41908 h 2.40715 v 0.89154 h -1.51561 v 5.52754 z m 2.05055,-7.31062 v -0.89154 h 5.70585 v 0.89154 z m 0,1.78308 v -0.89154 h 5.70585 v 0.89154 z m 5.34923,-1.78308 v -0.89154 h 5.70585 v 0.89154 z m 0,1.78308 v -0.89154 h 5.70585 v 0.89154 z m 5.52754,4.636 v -11.76831 h 5.34924 v 11.76831 z m 5.34925,0 v -11.76831 h 5.34923 v 11.76831 z m 8.46962,0.89154 v -13.55139 h 0.89154 v 13.55139 z m -1.78308,0 v -13.55139 h 0.89154 v 13.55139 z m 4.01193,-0.89154 v -11.76831 h 5.34923 v 11.76831 z m 5.34924,0 v -11.76831 h 5.34924 v 11.76831 z m 8.46962,0.89154 v -13.55139 h 0.89154 v 13.55139 z m -1.78308,0 v -13.55139 h 0.89154 v 13.55139 z m 5.34924,-5.52754 v -8.02385 h 0.89154 v 7.13231 h 3.29869 v 0.89154 z m 1.78308,-1.78308 v -6.24077 h 0.89154 v 5.34923 h 1.51561 v 0.89154 z m 2.22886,6.41908 v -11.76831 h 5.34923 v 11.76831 z m 5.34922,0 v -11.76831 h 5.34924 v 11.76831 z m 8.46963,0.89154 v -7.31062 h -3.29869 v -0.89154 h 4.19023 v 8.20216 z m -1.78307,0 v -5.52754 h -1.51562 v -0.89154 h 2.40715 v 6.41908 z m 4.01191,-0.89154 v -11.76831 h 5.34924 v 11.76831 z m 5.34925,0 v -11.76831 h 5.34923 v 11.76831 z m 8.46963,0.89154 v -13.55139 h 0.89154 v 13.55139 z m -1.78308,0 v -13.55139 h 0.89154 v 13.55139 z m 4.01192,-0.89154 v -11.76831 h 5.34923 v 11.76831 z m 5.34924,0 v -11.76831 h 5.34924 v 11.76831 z m 8.46962,0.89154 v -13.55139 h 0.89154 v 13.55139 z m -1.78308,0 v -13.55139 h 0.89154 v 13.55139 z m 5.34924,-5.52754 v -8.02385 h 0.89154 v 7.13231 h 3.2987 v 0.89154 z m 1.78308,-1.78308 v -6.24077 h 0.89154 v 5.34923 h 1.51562 v 0.89154 z m 2.22886,6.41908 v -11.76831 h 5.34923 v 11.76831 z m 5.34922,0 v -11.76831 h 5.34924 v 11.76831 z m 8.46963,0.89154 v -7.31062 h -3.29869 v -0.89154 h 4.19023 v 8.20216 z m -1.78307,0 v -5.52754 h -1.51562 v -0.89154 h 2.40716 v 6.41908 z m 4.01193,-0.89154 v -11.76831 h 5.34923 v 11.76831 z m 5.34923,0 v -11.76831 h 5.34923 v 11.76831 z m 8.46963,0.89154 v -13.55139 h 0.89154 v 13.55139 z m -1.78308,0 v -13.55139 h 0.89154 v 13.55139 z m 4.01194,-0.89154 v -11.76831 h 5.34923 v 11.76831 z m 5.34922,0 v -11.76831 h 5.34924 v 11.76831 z m 6.68655,0.89154 v -8.20216 h 4.19024 v 0.89154 h -3.2987 v 7.31062 z m 1.78308,0 v -6.41908 h 2.40716 v 0.89154 h -1.51562 v 5.52754 z m 2.05054,-7.31062 v -0.89154 h 5.70585 v 0.89154 z m 0,1.78308 v -0.89154 h 5.70585 v 0.89154 z m 5.34924,-1.78308 v -0.89154 h 5.70585 v 0.89154 z m 0,1.78308 v -0.89154 h 5.70585 v 0.89154 z m 5.34924,0 v -0.89154 h 3.2987 v -7.13231 h 0.89154 v 8.02385 z m 0,-1.78308 v -0.89154 h 1.51562 v -5.34923 h 0.89154 v 6.24077 z m 37.62298,6.41908 v -11.76831 h 5.34924 v 11.76831 z m 5.34921,0 v -11.76831 h 5.34924 v 11.76831 z m 8.46963,0.89154 v -13.55139 h 0.89154 v 13.55139 z m -1.78307,0 v -13.55139 h 0.89154 v 13.55139 z m 14.71042,-0.89154 v -11.76831 h 5.34923 v 11.76831 z m 5.34921,0 v -11.76831 h 5.34923 v 11.76831 z m 8.46963,0.89154 v -13.55139 h 0.89154 v 13.55139 z m -1.78308,0 v -13.55139 h 0.89154 v 13.55139 z m 4.01194,-0.89154 v -11.76831 h 5.34923 v 11.76831 z m 5.34924,0 v -11.76831 h 5.34923 v 11.76831 z m 6.68655,0.89154 v -8.20216 h 4.19023 v 0.89154 h -3.29869 v 7.31062 z m 1.78308,0 v -6.41908 h 2.40715 v 0.89154 h -1.51561 v 5.52754 z m 2.05052,-7.31062 v -0.89154 h 5.70585 v 0.89154 z m 0,1.78308 v -0.89154 h 5.70585 v 0.89154 z m 5.34924,-1.78308 v -0.89154 h 5.70585 v 0.89154 z m 0,1.78308 v -0.89154 h 5.70585 v 0.89154 z m 5.52755,4.636 v -11.76831 h 5.34924 v 11.76831 z m 5.34924,0 v -11.76831 h 5.34924 v 11.76831 z m 8.46963,0.89154 v -13.55139 h 0.89154 v 13.55139 z m -1.78307,0 v -13.55139 h 0.89154 v 13.55139 z m 4.0119,-0.89154 v -11.76831 h 5.34923 v 11.76831 z m 5.34924,0 v -11.76831 h 5.34924 v 11.76831 z m 6.68656,0.89154 v -8.20216 h 4.19023 v 0.89154 h -3.2987 v 7.31062 z m 1.78307,0 v -6.41908 h 2.40716 v 0.89154 h -1.51562 v 5.52754 z m 2.05055,-7.31062 v -0.89154 h 5.70585 v 0.89154 z m 0,1.78308 v -0.89154 h 5.70585 v 0.89154 z m 5.34925,-1.78308 v -0.89154 h 5.70585 v 0.89154 z m 0,1.78308 v -0.89154 h 5.70585 v 0.89154 z m 5.52755,4.636 v -11.76831 h 5.34923 v 11.76831 z m 5.34921,0 v -11.76831 h 5.34923 v 11.76831 z m 8.46963,0.89154 v -13.55139 h 0.89154 v 13.55139 z m -1.78308,0 v -13.55139 h 0.89154 v 13.55139 z m 4.01194,-0.89154 v -11.76831 h 5.34923 v 11.76831 z m 5.34924,0 v -11.76831 h 5.34923 v 11.76831 z m 8.46963,0.89154 v -13.55139 h 0.89154 v 13.55139 z m -1.78308,0 v -13.55139 h 0.89154 v 13.55139 z m 30.75812,-0.89154 v -11.76831 h 5.34923 v 11.76831 z m 5.34921,0 v -11.76831 h 5.34924 v 11.76831 z m 6.68655,0.89154 v -8.20216 h 4.19024 v 0.89154 h -3.2987 v 7.31062 z m 1.78308,0 v -6.41908 h 2.40716 v 0.89154 h -1.51562 v 5.52754 z m 2.05055,-7.31062 v -0.89154 h 5.70585 v 0.89154 z m 0,1.78308 v -0.89154 h 5.70585 v 0.89154 z m 5.52755,4.636 v -11.76831 h 5.34924 v 11.76831 z m 5.34925,0 v -11.76831 h 5.34923 v 11.76831 z m 8.46959,0.89154 v -7.31062 h -3.29869 v -0.89154 h 4.19023 v 8.20216 z m -1.78307,0 v -5.52754 h -1.51562 v -0.89154 h 2.40716 v 6.41908 z m 30.75815,-0.89154 v -11.76831 h 5.34923 v 11.76831 z m 5.34924,0 v -11.76831 h 5.34923 v 11.76831 z m 8.46957,0.89154 v -13.55139 h 0.89154 v 13.55139 z m -1.78308,0 v -13.55139 h 0.89154 v 13.55139 z m 46.80588,-0.89154 v -11.76831 h 5.34923 v 11.76831 z m 5.34924,0 v -11.76831 h 5.34924 v 11.76831 z m 8.46957,0.89154 v -13.55139 h 0.89154 v 13.55139 z m -1.78308,0 v -13.55139 h 0.89154 v 13.55139 z m 20.05967,-0.89154 v -11.76831 h 5.34923 v 11.76831 z m 5.34924,0 v -11.76831 h 5.34924 v 11.76831 z m 6.68655,0.89154 v -8.20216 h 4.19024 v 0.89154 h -3.2987 v 7.31062 z m 1.78308,0 v -6.41908 h 2.40716 v 0.89154 h -1.51562 v 5.52754 z m 2.05055,-7.31062 v -0.89154 h 5.70585 v 0.89154 z m 0,1.78308 v -0.89154 h 5.70585 v 0.89154 z m 5.34924,-1.78308 v -0.89154 h 5.70585 v 0.89154 z m 0,1.78308 v -0.89154 h 5.70585 v 0.89154 z m 5.34925,0 v -0.89154 h 3.29869 v -7.13231 h 0.89154 v 8.02385 z m 0,-1.78308 v -0.89154 h 1.51561 v -5.34923 h 0.89154 v 6.24077 z"
         id="path4" />
      <path
         d="m 93.931059,205.68948 v -8.02385 h 0.891539 v 7.13231 h 3.298694 v 0.89154 z m 1.783078,-1.78308 v -6.24077 h 0.891539 v 5.34923 h 1.515616 v 0.89154 z m 2.22885,6.41908 v -11.76831 h 5.349233 v 11.76831 z m 5.349233,0 v -11.76831 h 5.34924 v 11.76831 z m 5.34924,0 v -11.76831 h 5.34924 v 11.76831 z m 5.34924,0 v -11.76831 h 5.34923 v 11.76831 z m 5.34924,0 v -11.76831 h 5.34923 v 11.76831 z m 6.68654,0.89154 v -8.20216 h 4.19024 v 0.89154 h -3.2987 v 7.31062 z m 1.78308,0 v -6.41908 h 2.40716 v 0.89154 h -1.51562 v 5.52754 z m 2.05055,-5.52754 v -0.89154 h 3.29869 v -7.13231 h 0.89154 v 8.02385 z m 0,-1.78308 v -0.89154 h 1.51561 v -5.34923 h 0.89154 v 6.24077 z m 5.52754,6.41908 v -11.76831 h 5.34923 v 11.76831 z m 5.34924,0 v -11.76831 h 5.34923 v 11.76831 z m 5.34923,0 v -11.76831 h 5.34924 v 11.76831 z m 5.34924,0 v -11.76831 h 5.34924 v 11.76831 z m 5.34924,0 v -11.76831 h 5.34923 v 11.76831 z m 5.34923,0 v -11.76831 h 5.34924 v 11.76831 z m 5.34925,0 v -11.76831 h 5.34923 v 11.76831 z m 8.46962,0.89154 v -7.31062 h -3.29869 v -0.89154 h 4.19023 v 8.20216 z m -1.78308,0 v -5.52754 h -1.51561 v -0.89154 h 2.40715 v 6.41908 z m 4.01193,-0.89154 v -11.76831 h 5.34923 v 11.76831 z m 5.34923,0 v -11.76831 h 5.34924 v 11.76831 z m 8.46963,0.89154 v -13.55139 h 0.89154 v 13.55139 z m -1.78308,0 v -13.55139 h 0.89154 v 13.55139 z m 14.7104,-0.89154 v -11.76831 h 5.34924 v 11.76831 z m 5.34925,0 v -11.76831 h 5.34923 v 11.76831 z m 8.46962,0.89154 v -13.55139 h 0.89154 v 13.55139 z m -1.78308,0 v -13.55139 h 0.89154 v 13.55139 z m 4.01193,-0.89154 v -11.76831 h 5.34923 v 11.76831 z m 5.34924,0 v -11.76831 h 5.34924 v 11.76831 z m 8.46962,0.89154 v -13.55139 h 0.89154 v 13.55139 z m -1.78308,0 v -13.55139 h 0.89154 v 13.55139 z m 10.69848,-5.52754 v -8.02385 h 0.89154 v 7.13231 h 3.2987 v 0.89154 z m 1.78308,-1.78308 v -6.24077 h 0.89154 v 5.34923 h 1.51562 v 0.89154 z m 2.22884,6.41908 v -11.76831 h 5.34924 v 11.76831 z m 5.34925,0 v -11.76831 h 5.34923 v 11.76831 z m 5.34922,0 v -11.76831 h 5.34924 v 11.76831 z m 5.34925,0 v -11.76831 h 5.34923 v 11.76831 z m 8.46963,0.89154 v -13.55139 h 0.89154 v 13.55139 z m -1.78308,0 v -13.55139 h 0.89154 v 13.55139 z m 4.01192,-0.89154 v -11.76831 h 5.34923 v 11.76831 z m 5.34924,0 v -11.76831 h 5.34924 v 11.76831 z m 8.46962,0.89154 v -13.55139 h 0.89154 v 13.55139 z m -1.78308,0 v -13.55139 h 0.89154 v 13.55139 z m 10.69849,-5.52754 v -8.02385 h 0.89153 v 7.13231 h 3.2987 v 0.89154 z m 1.78307,-1.78308 v -6.24077 h 0.89154 v 5.34923 h 1.51562 v 0.89154 z m 2.22884,6.41908 v -11.76831 h 5.34924 v 11.76831 z m 5.34925,0 v -11.76831 h 5.34923 v 11.76831 z m 5.34924,0 v -11.76831 h 5.34923 v 11.76831 z m 5.34923,0 v -11.76831 h 5.34923 v 11.76831 z m 8.46963,0.89154 v -13.55139 h 0.89154 v 13.55139 z m -1.78308,0 v -13.55139 h 0.89154 v 13.55139 z m 4.01194,-0.89154 v -11.76831 h 5.34923 v 11.76831 z m 5.34922,0 v -11.76831 h 5.34924 v 11.76831 z m 5.34925,0 v -11.76831 h 5.34923 v 11.76831 z m 5.34922,0 v -11.76831 h 5.34924 v 11.76831 z m 5.34925,0 v -11.76831 h 5.34923 v 11.76831 z m 5.34924,0 v -11.76831 h 5.34923 v 11.76831 z m 5.34924,0 v -11.76831 h 5.34924 v 11.76831 z m 8.4696,0.89154 v -7.31062 h -3.29869 v -0.89154 h 4.19023 v 8.20216 z m -1.78308,0 v -5.52754 h -1.51561 v -0.89154 h 2.40715 v 6.41908 z m 25.40891,-0.89154 v -11.76831 h 5.34924 v 11.76831 z m 5.34921,0 v -11.76831 h 5.34924 v 11.76831 z m 5.34925,0 v -11.76831 h 5.34923 v 11.76831 z m 5.34924,0 v -11.76831 h 5.34923 v 11.76831 z m 5.34924,0 v -11.76831 h 5.34924 v 11.76831 z m 5.34925,0 v -11.76831 h 5.34923 v 11.76831 z m 6.68652,0.89154 v -8.20216 h 4.19023 v 0.89154 h -3.29869 v 7.31062 z m 1.78308,0 v -6.41908 h 2.40715 v 0.89154 h -1.51561 v 5.52754 z m 2.05055,-5.52754 v -0.89154 h 3.29869 v -7.13231 h 0.89154 v 8.02385 z m 0,-1.78308 v -0.89154 h 1.51561 v -5.34923 h 0.89154 v 6.24077 z m 5.52755,6.41908 v -11.76831 h 5.34923 v 11.76831 z m 5.34924,0 v -11.76831 h 5.34923 v 11.76831 z m 8.46963,0.89154 v -13.55139 h 0.89154 v 13.55139 z m -1.78308,0 v -13.55139 h 0.89154 v 13.55139 z m 14.71039,-0.89154 v -11.76831 h 5.34924 v 11.76831 z m 5.34924,0 v -11.76831 h 5.34924 v 11.76831 z m 8.46963,0.89154 v -13.55139 h 0.89154 v 13.55139 z m -1.78307,0 v -13.55139 h 0.89154 v 13.55139 z m 4.0119,-0.89154 v -11.76831 h 5.34923 v 11.76831 z m 5.34924,0 v -11.76831 h 5.34924 v 11.76831 z m 8.46963,0.89154 v -13.55139 h 0.89154 v 13.55139 z m -1.78307,0 v -13.55139 h 0.89153 v 13.55139 z m 14.71042,-0.89154 v -11.76831 h 5.34923 v 11.76831 z m 5.34921,0 v -11.76831 h 5.34923 v 11.76831 z m 8.46963,0.89154 v -13.55139 h 0.89154 v 13.55139 z m -1.78308,0 v -13.55139 h 0.89154 v 13.55139 z m 5.34924,-5.52754 v -8.02385 h 0.89154 v 7.13231 h 3.2987 v 0.89154 z m 1.78308,-1.78308 v -6.24077 h 0.89154 v 5.34923 h 1.51562 v 0.89154 z m 2.22886,6.41908 v -11.76831 h 5.34923 v 11.76831 z m 5.34924,0 v -11.76831 h 5.34924 v 11.76831 z m 5.34921,0 v -11.76831 h 5.34924 v 11.76831 z m 5.34925,0 v -11.76831 h 5.34923 v 11.76831 z m 5.34924,0 v -11.76831 h 5.34923 v 11.76831 z m 5.34924,0 v -11.76831 h 5.34924 v 11.76831 z m 8.46963,0.89154 v -7.31062 h -3.29869 v -0.89154 h 4.19023 v 8.20216 z m -1.78307,0 v -5.52754 h -1.51562 v -0.89154 h 2.40715 v 6.41908 z m 4.01193,-0.89154 v -11.76831 h 5.34923 v 11.76831 z m 5.34921,0 v -11.76831 h 5.34924 v 11.76831 z m 8.46963,0.89154 v -13.55139 h 0.89154 v 13.55139 z m -1.78308,0 v -13.55139 h 0.89154 v 13.55139 z m 14.71043,-0.89154 v -11.76831 h 5.34923 v 11.76831 z m 5.34921,0 v -11.76831 h 5.34923 v 11.76831 z m 8.46963,0.89154 v -7.31062 h -3.2987 v -0.89154 h 4.19024 v 8.20216 z m -1.78308,0 v -5.52754 h -1.51562 v -0.89154 h 2.40716 v 6.41908 z m 26.74622,-5.52754 v -8.02385 h 0.89153 v 7.13231 h 3.2987 v 0.89154 z m 1.78307,-1.78308 v -6.24077 h 0.89154 v 5.34923 h 1.51562 v 0.89154 z m 2.22886,6.41908 v -11.76831 h 5.34923 v 11.76831 z m 5.34918,0 v -11.76831 h 5.34924 v 11.76831 z m 5.34925,0 v -11.76831 h 5.34923 v 11.76831 z m 5.34924,0 v -11.76831 h 5.34923 v 11.76831 z m 5.34924,0 v -11.76831 h 5.34924 v 11.76831 z m 5.34925,0 v -11.76831 h 5.34923 v 11.76831 z m 8.46962,0.89154 v -7.31062 h -3.29869 v -0.89154 h 4.19023 v 8.20216 z m -1.78307,0 v -5.52754 h -1.51562 v -0.89154 h 2.40716 v 6.41908 z m 20.05966,-0.89154 v -11.76831 h 5.34923 v 11.76831 z m 5.34924,0 v -11.76831 h 5.34924 v 11.76831 z m 8.46957,0.89154 v -13.55139 h 0.89154 v 13.55139 z m -1.78308,0 v -13.55139 h 0.89154 v 13.55139 z m 20.05967,-0.89154 v -11.76831 h 5.34923 v 11.76831 z m 5.34924,0 v -11.76831 h 5.34924 v 11.76831 z m 8.46963,0.89154 v -13.55139 h 0.89154 v 13.55139 z m -1.78308,0 v -13.55139 h 0.89154 v 13.55139 z"
         id="path5" />
      <path
         d="m 99.280296,216.83372 v -8.02385 h 0.891534 v 7.13231 h 3.2987 v 0.89154 z m 1.783074,-1.78308 v -6.24077 h 0.89154 v 5.34924 h 1.51562 v 0.89153 z m 2.05055,0 v -0.89153 h 5.70585 v 0.89153 z m 0,1.78308 v -0.89154 h 5.70585 v 0.89154 z m 5.34923,-1.78308 v -0.89153 h 5.70585 v 0.89153 z m 0,1.78308 v -0.89154 h 5.70585 v 0.89154 z m 5.34924,-1.78308 v -0.89153 h 5.70585 v 0.89153 z m 0,1.78308 v -0.89154 h 5.70585 v 0.89154 z m 5.34924,-1.78308 v -0.89153 h 5.70585 v 0.89153 z m 0,1.78308 v -0.89154 h 5.70585 v 0.89154 z m 5.34924,0 v -0.89154 h 3.29869 v -7.13231 h 0.89154 v 8.02385 z m 0,-1.78308 v -0.89153 h 1.51561 v -5.34924 h 0.89154 v 6.24077 z m 12.21409,1.78308 v -8.02385 h 0.89154 v 7.13231 h 3.29869 v 0.89154 z m 1.78308,-1.78308 v -6.24077 h 0.89154 v 5.34924 h 1.51561 v 0.89153 z m 2.05054,0 v -0.89153 h 5.70585 v 0.89153 z m 0,1.78308 v -0.89154 h 5.70585 v 0.89154 z m 5.34924,-1.78308 v -0.89153 h 5.70585 v 0.89153 z m 0,1.78308 v -0.89154 h 5.70585 v 0.89154 z m 5.34924,-1.78308 v -0.89153 h 5.70585 v 0.89153 z m 0,1.78308 v -0.89154 h 5.70585 v 0.89154 z m 5.34923,-1.78308 v -0.89153 h 5.70585 v 0.89153 z m 0,1.78308 v -0.89154 h 5.70585 v 0.89154 z m 5.34924,-1.78308 v -0.89153 h 5.70585 v 0.89153 z m 0,1.78308 v -0.89154 h 5.70585 v 0.89154 z m 5.34924,-1.78308 v -0.89153 h 5.70585 v 0.89153 z m 0,1.78308 v -0.89154 h 5.70585 v 0.89154 z m 5.34924,0 v -0.89154 h 3.29869 v -7.13231 h 0.89154 v 8.02385 z m 0,-1.78308 v -0.89153 h 1.51561 v -5.34924 h 0.89154 v 6.24077 z m 6.86485,1.78308 v -8.02385 h 0.89154 v 7.13231 h 3.29869 v 0.89154 z m 1.78308,-1.78308 v -6.24077 h 0.89153 v 5.34924 h 1.51562 v 0.89153 z m 2.05054,0 v -0.89153 h 5.70585 v 0.89153 z m 0,1.78308 v -0.89154 h 5.70585 v 0.89154 z m 5.34923,0 v -0.89154 h 3.2987 v -7.13231 h 0.89154 v 8.02385 z m 0,-1.78308 v -0.89153 h 1.51562 v -5.34924 h 0.89154 v 6.24077 z m 17.56333,1.78308 v -8.02385 h 0.89154 v 7.13231 h 3.2987 v 0.89154 z m 1.78308,-1.78308 v -6.24077 h 0.89154 v 5.34924 h 1.51562 v 0.89153 z m 2.05055,0 v -0.89153 h 5.70585 v 0.89153 z m 0,1.78308 v -0.89154 h 5.70585 v 0.89154 z m 5.34924,0 v -0.89154 h 3.29869 v -7.13231 h 0.89154 v 8.02385 z m 0,-1.78308 v -0.89153 h 1.51561 v -5.34924 h 0.89154 v 6.24077 z m 6.86485,1.78308 v -8.02385 h 0.89154 v 7.13231 h 3.29869 v 0.89154 z m 1.78308,-1.78308 v -6.24077 h 0.89153 v 5.34924 h 1.51562 v 0.89153 z m 2.05054,0 v -0.89153 h 5.70585 v 0.89153 z m 0,1.78308 v -0.89154 h 5.70585 v 0.89154 z m 5.34923,0 v -0.89154 h 3.2987 v -7.13231 h 0.89154 v 8.02385 z m 0,-1.78308 v -0.89153 h 1.51562 v -5.34924 h 0.89154 v 6.24077 z m 17.56333,1.78308 v -8.02385 h 0.89154 v 7.13231 h 3.2987 v 0.89154 z m 1.78308,-1.78308 v -6.24077 h 0.89154 v 5.34924 h 1.51562 v 0.89153 z m 2.05055,0 v -0.89153 h 5.70585 v 0.89153 z m 0,1.78308 v -0.89154 h 5.70585 v 0.89154 z m 5.34923,-1.78308 v -0.89153 h 5.70585 v 0.89153 z m 0,1.78308 v -0.89154 h 5.70585 v 0.89154 z m 5.34924,-1.78308 v -0.89153 h 5.70585 v 0.89153 z m 0,1.78308 v -0.89154 h 5.70585 v 0.89154 z m 5.34924,0 v -0.89154 h 3.2987 v -7.13231 h 0.89154 v 8.02385 z m 0,-1.78308 v -0.89153 h 1.51562 v -5.34924 h 0.89154 v 6.24077 z m 6.86485,1.78308 v -8.02385 h 0.89154 v 7.13231 h 3.29869 v 0.89154 z m 1.78308,-1.78308 v -6.24077 h 0.89153 v 5.34924 h 1.51562 v 0.89153 z m 2.05054,0 v -0.89153 h 5.70585 v 0.89153 z m 0,1.78308 v -0.89154 h 5.70585 v 0.89154 z m 5.34923,0 v -0.89154 h 3.2987 v -7.13231 h 0.89154 v 8.02385 z m 0,-1.78308 v -0.89153 h 1.51562 v -5.34924 h 0.89154 v 6.24077 z m 17.56333,1.78308 v -8.02385 h 0.89154 v 7.13231 h 3.2987 v 0.89154 z m 1.78308,-1.78308 v -6.24077 h 0.89154 v 5.34924 h 1.51562 v 0.89153 z m 2.05055,0 v -0.89153 h 5.70585 v 0.89153 z m 0,1.78308 v -0.89154 h 5.70585 v 0.89154 z m 5.34924,-1.78308 v -0.89153 h 5.70585 v 0.89153 z m 0,1.78308 v -0.89154 h 5.70585 v 0.89154 z m 5.34923,-1.78308 v -0.89153 h 5.70585 v 0.89153 z m 0,1.78308 v -0.89154 h 5.70585 v 0.89154 z m 5.34924,0 v -0.89154 h 3.2987 v -7.13231 h 0.89154 v 8.02385 z m 0,-1.78308 v -0.89153 h 1.51562 v -5.34924 h 0.89154 v 6.24077 z m 6.86486,1.78308 v -8.02385 h 0.89154 v 7.13231 h 3.2987 v 0.89154 z m 1.78308,-1.78308 v -6.24077 h 0.89154 v 5.34924 h 1.51562 v 0.89153 z m 2.05054,0 v -0.89153 h 5.70584 v 0.89153 z m 0,1.78308 v -0.89154 h 5.70584 v 0.89154 z m 5.34924,-1.78308 v -0.89153 h 5.70585 v 0.89153 z m 0,1.78308 v -0.89154 h 5.70585 v 0.89154 z m 5.34923,-1.78308 v -0.89153 h 5.70585 v 0.89153 z m 0,1.78308 v -0.89154 h 5.70585 v 0.89154 z m 5.34924,-1.78308 v -0.89153 h 5.70585 v 0.89153 z m 0,1.78308 v -0.89154 h 5.70585 v 0.89154 z m 5.34924,-1.78308 v -0.89153 h 5.70585 v 0.89153 z m 0,1.78308 v -0.89154 h 5.70585 v 0.89154 z m 5.34925,-1.78308 v -0.89153 h 5.70585 v 0.89153 z m 0,1.78308 v -0.89154 h 5.70585 v 0.89154 z m 5.34921,0 v -0.89154 h 3.29869 v -7.13231 h 0.89154 v 8.02385 z m 0,-1.78308 v -0.89153 h 1.51561 v -5.34924 h 0.89154 v 6.24077 z m 28.26183,1.78308 v -8.02385 h 0.89154 v 7.13231 h 3.29869 v 0.89154 z m 1.78308,-1.78308 v -6.24077 h 0.89154 v 5.34924 h 1.51561 v 0.89153 z m 2.05052,0 v -0.89153 h 5.70585 v 0.89153 z m 0,1.78308 v -0.89154 h 5.70585 v 0.89154 z m 5.34924,-1.78308 v -0.89153 h 5.70585 v 0.89153 z m 0,1.78308 v -0.89154 h 5.70585 v 0.89154 z m 5.34924,-1.78308 v -0.89153 h 5.70585 v 0.89153 z m 0,1.78308 v -0.89154 h 5.70585 v 0.89154 z m 5.34925,-1.78308 v -0.89153 h 5.70585 v 0.89153 z m 0,1.78308 v -0.89154 h 5.70585 v 0.89154 z m 5.34924,-1.78308 v -0.89153 h 5.70585 v 0.89153 z m 0,1.78308 v -0.89154 h 5.70585 v 0.89154 z m 5.34921,0 v -0.89154 h 3.2987 v -7.13231 h 0.89154 v 8.02385 z m 0,-1.78308 v -0.89153 h 1.51562 v -5.34924 h 0.89154 v 6.24077 z m 12.2141,1.78308 v -8.02385 h 0.89154 v 7.13231 h 3.2987 v 0.89154 z m 1.78308,-1.78308 v -6.24077 h 0.89154 v 5.34924 h 1.51562 v 0.89153 z m 2.05055,0 v -0.89153 h 5.70585 v 0.89153 z m 0,1.78308 v -0.89154 h 5.70585 v 0.89154 z m 5.34924,0 v -0.89154 h 3.2987 v -7.13231 h 0.89154 v 8.02385 z m 0,-1.78308 v -0.89153 h 1.51562 v -5.34924 h 0.89154 v 6.24077 z m 17.56332,1.78308 v -8.02385 h 0.89154 v 7.13231 h 3.29869 v 0.89154 z m 1.78308,-1.78308 v -6.24077 h 0.89154 v 5.34924 h 1.51561 v 0.89153 z m 2.05055,0 v -0.89153 h 5.70585 v 0.89153 z m 0,1.78308 v -0.89154 h 5.70585 v 0.89154 z m 5.34924,0 v -0.89154 H 475.51 v -7.13231 h 0.89154 v 8.02385 z m 0,-1.78308 v -0.89153 h 1.51562 v -5.34924 h 0.89154 v 6.24077 z m 6.86483,1.78308 v -8.02385 h 0.89154 v 7.13231 h 3.29869 v 0.89154 z m 1.78308,-1.78308 v -6.24077 h 0.89154 v 5.34924 h 1.51561 v 0.89153 z m 2.05055,0 v -0.89153 h 5.70585 v 0.89153 z m 0,1.78308 v -0.89154 h 5.70585 v 0.89154 z m 5.34924,0 v -0.89154 h 3.29869 v -7.13231 h 0.89154 v 8.02385 z m 0,-1.78308 v -0.89153 h 1.51562 v -5.34924 h 0.89153 v 6.24077 z m 17.56334,1.78308 v -8.02385 h 0.89154 v 7.13231 h 3.2987 v 0.89154 z m 1.78308,-1.78308 v -6.24077 h 0.89154 v 5.34924 h 1.51562 v 0.89153 z m 2.05052,0 v -0.89153 h 5.70585 v 0.89153 z m 0,1.78308 v -0.89154 h 5.70585 v 0.89154 z m 5.34924,0 v -0.89154 h 3.2987 v -7.13231 h 0.89154 v 8.02385 z m 0,-1.78308 v -0.89153 h 1.51562 v -5.34924 h 0.89154 v 6.24077 z m 12.21411,1.78308 v -8.02385 h 0.89154 v 7.13231 h 3.29869 v 0.89154 z m 1.78308,-1.78308 v -6.24077 h 0.89153 v 5.34924 h 1.51562 v 0.89153 z m 2.05054,0 v -0.89153 h 5.70585 v 0.89153 z m 0,1.78308 v -0.89154 h 5.70585 v 0.89154 z m 5.34922,-1.78308 v -0.89153 h 5.70585 v 0.89153 z m 0,1.78308 v -0.89154 h 5.70585 v 0.89154 z m 5.34924,-1.78308 v -0.89153 h 5.70585 v 0.89153 z m 0,1.78308 v -0.89154 h 5.70585 v 0.89154 z m 5.34924,-1.78308 v -0.89153 h 5.70585 v 0.89153 z m 0,1.78308 v -0.89154 h 5.70585 v 0.89154 z m 5.34925,-1.78308 v -0.89153 h 5.70585 v 0.89153 z m 0,1.78308 v -0.89154 h 5.70585 v 0.89154 z m 5.34924,0 v -0.89154 h 3.29869 v -7.13231 h 0.89154 v 8.02385 z m 0,-1.78308 v -0.89153 h 1.51562 v -5.34924 h 0.89153 v 6.24077 z m 6.86486,1.78308 v -8.02385 h 0.89154 v 7.13231 h 3.29869 v 0.89154 z m 1.78308,-1.78308 v -6.24077 h 0.89154 v 5.34924 h 1.51561 v 0.89153 z m 2.05052,0 v -0.89153 h 5.70584 v 0.89153 z m 0,1.78308 v -0.89154 h 5.70584 v 0.89154 z m 5.34924,0 v -0.89154 h 3.29869 v -7.13231 h 0.89154 v 8.02385 z m 0,-1.78308 v -0.89153 h 1.51561 v -5.34924 h 0.89154 v 6.24077 z m 17.56334,1.78308 v -8.02385 h 0.89154 v 7.13231 h 3.2987 v 0.89154 z m 1.78308,-1.78308 v -6.24077 h 0.89154 v 5.34924 h 1.51562 v 0.89153 z m 2.05052,0 v -0.89153 h 5.70585 v 0.89153 z m 0,1.78308 v -0.89154 h 5.70585 v 0.89154 z m 5.34924,0 v -0.89154 h 3.2987 v -7.13231 h 0.89154 v 8.02385 z m 0,-1.78308 v -0.89153 h 1.51562 v -5.34924 h 0.89154 v 6.24077 z m 33.61108,1.78308 v -8.02385 h 0.89154 v 7.13231 h 3.29869 v 0.89154 z m 1.78308,-1.78308 v -6.24077 h 0.89154 v 5.34924 h 1.51561 v 0.89153 z m 2.05048,0 v -0.89153 h 5.70585 v 0.89153 z m 0,1.78308 v -0.89154 h 5.70585 v 0.89154 z m 5.34925,-1.78308 v -0.89153 h 5.70585 v 0.89153 z m 0,1.78308 v -0.89154 h 5.70585 v 0.89154 z m 5.34924,-1.78308 v -0.89153 h 5.70585 v 0.89153 z m 0,1.78308 v -0.89154 h 5.70585 v 0.89154 z m 5.34924,-1.78308 v -0.89153 h 5.70585 v 0.89153 z m 0,1.78308 v -0.89154 h 5.70585 v 0.89154 z m 5.34925,-1.78308 v -0.89153 h 5.70585 v 0.89153 z m 0,1.78308 v -0.89154 h 5.70585 v 0.89154 z m 5.34924,0 v -0.89154 h 3.29869 v -7.13231 h 0.89154 v 8.02385 z m 0,-1.78308 v -0.89153 h 1.51562 v -5.34924 h 0.89154 v 6.24077 z m 22.91259,1.78308 v -8.02385 h 0.89154 v 7.13231 h 3.29869 v 0.89154 z m 1.78308,-1.78308 v -6.24077 h 0.89154 v 5.34924 h 1.51561 v 0.89153 z m 2.05055,0 v -0.89153 h 5.70585 v 0.89153 z m 0,1.78308 v -0.89154 h 5.70585 v 0.89154 z m 5.34918,0 v -0.89154 h 3.29869 v -7.13231 h 0.89154 v 8.02385 z m 0,-1.78308 v -0.89153 h 1.51561 v -5.34924 h 0.89154 v 6.24077 z m 22.91259,1.78308 v -8.02385 h 0.89154 v 7.13231 h 3.29869 v 0.89154 z m 1.78308,-1.78308 v -6.24077 h 0.89153 v 5.34924 h 1.51562 v 0.89153 z m 2.05054,0 v -0.89153 h 5.70585 v 0.89153 z m 0,1.78308 v -0.89154 h 5.70585 v 0.89154 z m 5.34925,0 v -0.89154 h 3.29869 v -7.13231 h 0.89154 v 8.02385 z m 0,-1.78308 v -0.89153 h 1.51561 v -5.34924 h 0.89154 v 6.24077 z"
         id="path6" />
    </g>
  </g>
</svg>
